<svg width="1000" height="1000" viewBox="0 0 1000 1000" fill="none" xmlns="http://www.w3.org/2000/svg">
<g id="PravopisOkonchEnd">
<rect width="1000" height="1000" fill="white"/>
<rect id="backgroundFon" x="72" y="44" width="863" height="887" rx="35" stroke="#0BCB78" stroke-width="6" stroke-dasharray="14 14"/>
<rect id="bgWord" x="129" y="353" width="750" height="147" rx="22" fill="#B8ECFF"/>
<text id="title" fill="#505F9A" xml:space="preserve" style="white-space: pre" font-family="Arial" font-size="40" letter-spacing="0em"><tspan x="224" y="433.867">&#x41b;&#x44f;&#x433;&#x443;&#x448;&#x43a;&#x430; &#x43e;&#x441;&#x442;&#x430;&#x43b;&#x430;&#x441;&#x44c; &#x433;&#x43e;&#x43b;&#x43e;&#x434;&#x43d;&#x43e;&#x439;!</tspan></text>
<path id="StarGold" d="M383.836 201.918L394.11 222.049C394.764 223.33 395.991 224.222 397.411 224.448L419.732 227.998C420.941 228.19 421.423 229.673 420.558 230.539L404.586 246.531C403.57 247.549 403.101 248.991 403.325 250.412L406.847 272.737C407.037 273.947 405.776 274.863 404.685 274.308L384.54 264.06C383.258 263.408 381.742 263.408 380.46 264.06L360.315 274.308C359.224 274.863 357.963 273.947 358.153 272.737L361.675 250.412C361.899 248.991 361.43 247.549 360.414 246.531L344.442 230.539C343.577 229.673 344.059 228.19 345.268 227.998L367.589 224.448C369.009 224.222 370.236 223.33 370.89 222.049L381.164 201.918C381.721 200.827 383.279 200.827 383.836 201.918Z" fill="#FDC754" stroke="#FC5E42" stroke-width="3"/>
<path id="StarGold_2" d="M500.836 201.918L511.11 222.049C511.764 223.33 512.991 224.222 514.411 224.448L536.732 227.998C537.941 228.19 538.423 229.673 537.558 230.539L521.586 246.531C520.57 247.549 520.101 248.991 520.325 250.412L523.847 272.737C524.037 273.947 522.776 274.863 521.685 274.308L501.54 264.06C500.258 263.408 498.742 263.408 497.46 264.06L477.315 274.308C476.224 274.863 474.963 273.947 475.153 272.737L478.675 250.412C478.899 248.991 478.43 247.549 477.414 246.531L461.442 230.539C460.577 229.673 461.059 228.19 462.268 227.998L484.589 224.448C486.009 224.222 487.236 223.33 487.89 222.049L498.164 201.918C498.721 200.827 500.279 200.827 500.836 201.918Z" fill="#FDC754" stroke="#FC5E42" stroke-width="3"/>
<path id="StarGold_3" d="M617.836 201.918L628.11 222.049C628.764 223.33 629.991 224.222 631.411 224.448L653.732 227.998C654.941 228.19 655.423 229.673 654.558 230.539L638.586 246.531C637.57 247.549 637.101 248.991 637.325 250.412L640.847 272.737C641.037 273.947 639.776 274.863 638.685 274.308L618.54 264.06C617.258 263.408 615.742 263.408 614.46 264.06L594.315 274.308C593.224 274.863 591.963 273.947 592.153 272.737L595.675 250.412C595.899 248.991 595.43 247.549 594.414 246.531L578.442 230.539C577.577 229.673 578.059 228.19 579.268 227.998L601.589 224.448C603.009 224.222 604.236 223.33 604.89 222.049L615.164 201.918C615.721 200.827 617.279 200.827 617.836 201.918Z" fill="#FDC754" stroke="#FC5E42" stroke-width="3"/>
<g id="frog">
<path id="Ellipse 1" d="M447.761 576.903C445.257 582.89 447.473 590.439 453.594 597.927C459.685 605.377 469.483 612.54 481.561 617.593C493.639 622.646 505.619 624.594 515.2 623.7C524.83 622.802 531.761 619.08 534.266 613.094C536.77 607.107 534.554 599.558 528.433 592.07C522.342 584.62 512.544 577.456 500.466 572.404C488.388 567.351 476.408 565.403 466.827 566.297C457.197 567.195 450.266 570.917 447.761 576.903Z" fill="#A0CB6C" stroke="#7D6262" stroke-width="2"/>
<g id="Ellipse 3">
<mask id="path-8-inside-1_7_35" fill="white">
<path d="M446.911 577.177C445.619 580.265 445.479 583.8 446.498 587.579C447.517 591.358 449.676 595.307 452.852 599.202C456.028 603.096 460.157 606.86 465.006 610.277C469.854 613.694 475.326 616.698 481.109 619.117C486.892 621.537 492.873 623.324 498.71 624.377C504.547 625.431 510.126 625.729 515.129 625.256C520.132 624.783 524.46 623.548 527.867 621.62C531.274 619.693 533.692 617.111 534.984 614.023L490.948 595.6L446.911 577.177Z"/>
</mask>
<path d="M446.911 577.177C445.619 580.265 445.479 583.8 446.498 587.579C447.517 591.358 449.676 595.307 452.852 599.202C456.028 603.096 460.157 606.86 465.006 610.277C469.854 613.694 475.326 616.698 481.109 619.117C486.892 621.537 492.873 623.324 498.71 624.377C504.547 625.431 510.126 625.729 515.129 625.256C520.132 624.783 524.46 623.548 527.867 621.62C531.274 619.693 533.692 617.111 534.984 614.023L490.948 595.6L446.911 577.177Z" fill="#F1EE9F" stroke="#7D6262" stroke-width="4" mask="url(#path-8-inside-1_7_35)"/>
</g>
<path id="Subtract" fill-rule="evenodd" clip-rule="evenodd" d="M450.019 575.306C459.848 568.62 479.012 568.885 498.31 576.959C518.265 585.307 532.173 599.414 533.57 611.373C537.004 599.075 522.6 582.19 500.275 572.85C478.556 563.764 457.016 565.029 450.019 575.306Z" fill="#D5F276"/>
<circle id="Ellipse 2" cx="12.0573" cy="12.0573" r="11.0573" transform="matrix(-1 0 0 1 491.358 555.726)" fill="#A0CB6C" stroke="#7D6262" stroke-width="2"/>
<path id="Subtract_2" fill-rule="evenodd" clip-rule="evenodd" d="M469.999 564.108C471.872 562.069 474.56 560.792 477.546 560.792C483.205 560.792 487.792 565.379 487.792 571.037C487.792 571.891 487.687 572.72 487.491 573.513C488.625 571.892 489.291 569.918 489.291 567.789C489.291 562.268 484.816 557.793 479.295 557.793C475.075 557.793 471.465 560.409 469.999 564.108Z" fill="#D5F276"/>
<path id="Vector 3" d="M465.521 608.089C457.968 602.922 445.885 590.865 448.296 580.185C448.296 580.185 452.086 589.831 463.109 600.51C474.133 611.19 486.535 618.424 486.535 618.424C479.99 617.046 478.612 617.046 465.521 608.089Z" fill="#CAC770"/>
<circle id="Ellipse 5" cx="1.37798" cy="1.37798" r="1.37798" transform="matrix(-1 0 0 1 476.889 568.128)" fill="#7D6262"/>
<path id="Vector 1" d="M446.574 624.97C446.574 624.97 447.263 617.735 464.487 619.113L478.612 590.865C485.157 580.874 499.281 588.109 496.525 594.998L471.033 624.97H446.574Z" fill="#A0CB6C" stroke="#7D6262" stroke-width="2" stroke-linecap="round"/>
<path id="Vector 2" d="M466.554 624.969L532.353 624.969C538.209 590.176 474.822 580.185 485.846 618.424C480.059 617.322 466.554 619.457 466.554 624.969Z" fill="#A0CB6C" stroke="#7D6262" stroke-width="2" stroke-linecap="round"/>
<path id="Subtract_3" fill-rule="evenodd" clip-rule="evenodd" d="M490.669 599.886C495.423 596.067 504.69 596.218 514.023 600.831C523.673 605.6 530.399 613.659 531.075 620.491C532.736 613.465 525.77 603.819 514.973 598.483C504.47 593.293 494.053 594.015 490.669 599.886Z" fill="#D5F276"/>
<path id="Vector 4" d="M467.932 623.936H531.664C532.008 620.836 510.871 621.18 500.659 621.18C490.324 621.18 468.966 621.525 467.932 623.936Z" fill="#7B9C53"/>
</g>
</g>
</svg>
