<svg width="600" height="800" viewBox="0 0 600 800" fill="none" xmlns="http://www.w3.org/2000/svg">
<g id="forDiktantHome">
<rect width="600" height="800" fill="white"/>
<g id="next">
<circle id="Ellipse 2" cx="299.5" cy="543.5" r="48.5" fill="#2FDA96" stroke="#4F9FEA" stroke-width="4"/>
<path id="Arrow 1" d="M270.088 541.555C268.707 541.555 267.588 542.674 267.588 544.055C267.588 545.436 268.707 546.555 270.088 546.555L270.088 541.555ZM330.68 545.823C331.656 544.846 331.656 543.263 330.68 542.287L314.77 526.377C313.794 525.401 312.211 525.401 311.234 526.377C310.258 527.354 310.258 528.936 311.234 529.913L325.377 544.055L311.234 558.197C310.258 559.173 310.258 560.756 311.234 561.733C312.211 562.709 313.794 562.709 314.77 561.733L330.68 545.823ZM270.088 546.555L328.912 546.555L328.912 541.555L270.088 541.555L270.088 546.555Z" fill="#4F9FEA"/>
</g>
<g id="&#208;&#164;&#208;&#190;&#209;&#128;&#208;&#188;&#208;&#184;&#209;&#128;&#208;&#190;&#208;&#178;&#208;&#176;&#208;&#189;&#208;&#184;&#208;&#181; &#208;&#178;&#209;&#139;&#209;&#135;&#208;&#184;&#209;&#129;&#208;&#187;&#208;&#184;&#209;&#130;&#208;&#181;&#208;&#187;&#209;&#140;&#208;&#189;&#209;&#139;&#209;&#133; &#208;&#189;&#208;&#176;&#208;&#178;&#209;&#139;&#208;&#186;&#208;&#190;&#208;&#178;. 3 &#208;&#186;&#208;&#187;&#208;&#176;&#209;&#129;&#209;&#129;">
<text fill="#4F9FEA" xml:space="preserve" style="white-space: pre" font-family="Arial" font-size="40" letter-spacing="0em"><tspan x="155.383" y="154.867">&#x424;&#x43e;&#x440;&#x43c;&#x438;&#x440;&#x43e;&#x432;&#x430;&#x43d;&#x438;&#x435; &#10;</tspan><tspan x="55.0508" y="200.867">&#x432;&#x44b;&#x447;&#x438;&#x441;&#x43b;&#x438;&#x442;&#x435;&#x43b;&#x44c;&#x43d;&#x44b;&#x445; &#x43d;&#x430;&#x432;&#x44b;&#x43a;&#x43e;&#x432;.&#10;</tspan></text>
<text fill="#4F9FEA" xml:space="preserve" style="white-space: pre" font-family="Arial" font-size="64" letter-spacing="0em"><tspan x="226.531" y="274.867"> &#x43a;&#x43b;&#x430;&#x441;&#x441;</tspan></text>
<text fill="#22A36F" xml:space="preserve" style="white-space: pre" font-family="Arial" font-size="64" letter-spacing="0em"><tspan x="190.906" y="274.867">3</tspan></text>
</g>
</g>
</svg>
