<svg width="1470" height="935" viewBox="0 0 1470 935" fill="none" xmlns="http://www.w3.org/2000/svg">
<g id="Predlojenie">
<rect width="1470" height="935" fill="#266040"/>
<path id="podlejaschee" d="M442 445H651" stroke="#FFFFAB" stroke-width="5" stroke-linecap="round"/>
<path id="vtorostepennie2" d="M1105 452L1121.56 444.5C1132.09 439.733 1144.16 439.733 1154.69 444.5V444.5C1165.21 449.267 1177.29 449.267 1187.81 444.5V444.5C1198.34 439.733 1210.41 439.733 1220.94 444.5V444.5C1231.46 449.267 1243.54 449.267 1254.06 444.5V444.5C1264.59 439.733 1276.66 439.733 1287.19 444.5V444.5C1297.71 449.267 1309.79 449.267 1320.31 444.5V444.5C1330.84 439.733 1342.91 439.733 1353.44 444.5L1370 452" stroke="#FFFFAB" stroke-width="5" stroke-linecap="round"/>
<path id="vtorostepennie1" d="M110 452L123.062 444.5C131.152 439.856 141.098 439.856 149.187 444.5V444.5C157.277 449.144 167.223 449.144 175.312 444.5V444.5C183.402 439.856 193.348 439.856 201.437 444.5V444.5C209.527 449.144 219.473 449.144 227.562 444.5V444.5C235.652 439.856 245.598 439.856 253.687 444.5V444.5C261.777 449.144 271.723 449.144 279.812 444.5V444.5C287.902 439.856 297.848 439.856 305.937 444.5L319 452" stroke="#FFFFAB" stroke-width="5" stroke-linecap="round"/>
<g id="skazuemoe">
<path id="Line 2" d="M776 437H1016" stroke="#FFFFAB" stroke-width="5" stroke-linecap="round"/>
<path id="Line 3" d="M776 453H1016" stroke="#FFFFAB" stroke-width="5" stroke-linecap="round"/>
</g>
<text id="dragable4" fill="white" xml:space="preserve" style="white-space: pre" font-family="Arial" font-size="64" letter-spacing="0em"><tspan x="1073" y="399.188">&#x43f;&#x43e; &#x43a;&#x440;&#x44b;&#x448;&#x430;&#x43c;</tspan></text>
<text id="dragable3" fill="white" xml:space="preserve" style="white-space: pre" font-family="Arial" font-size="64" letter-spacing="0em"><tspan x="799" y="398.188">&#x441;&#x442;&#x443;&#x447;&#x438;&#x442; </tspan></text>
<text id="dragable2" fill="white" xml:space="preserve" style="white-space: pre" font-family="Arial" font-size="64" letter-spacing="0em"><tspan x="463" y="398.188">&#x434;&#x43e;&#x436;&#x434;&#x44c; </tspan></text>
<text id="draggable1" fill="white" xml:space="preserve" style="white-space: pre" font-family="Arial" font-size="64" letter-spacing="0em"><tspan x="110" y="398.188">&#x41b;&#x435;&#x442;&#x43d;&#x438;&#x439; </tspan></text>
<text id="." fill="white" xml:space="preserve" style="white-space: pre" font-family="Arial" font-size="64" letter-spacing="0em"><tspan x="1408" y="398.188">.</tspan></text>
<path id="Vector 1" d="M547 250V247H544V250H547ZM880.5 250H883.5V247H880.5V250ZM878.379 308.121C879.55 309.293 881.45 309.293 882.621 308.121L901.713 289.029C902.885 287.858 902.885 285.958 901.713 284.787C900.542 283.615 898.642 283.615 897.471 284.787L880.5 301.757L863.529 284.787C862.358 283.615 860.458 283.615 859.287 284.787C858.115 285.958 858.115 287.858 859.287 289.029L878.379 308.121ZM550 326.5V250H544V326.5H550ZM547 253L880.5 253V247L547 247V253ZM877.5 250V306H883.5V250H877.5Z" fill="#FFFFAB"/>
<path id="Vector 2" d="M183.121 479.879C181.95 478.707 180.05 478.707 178.879 479.879L159.787 498.971C158.615 500.142 158.615 502.042 159.787 503.213C160.958 504.385 162.858 504.385 164.029 503.213L181 486.243L197.971 503.213C199.142 504.385 201.042 504.385 202.213 503.213C203.385 502.042 203.385 500.142 202.213 498.971L183.121 479.879ZM181 543H178V546H181V543ZM543 543V546H546V543H543ZM178 482V543H184V482H178ZM181 546H543V540H181V546ZM546 543V482H540V543H546Z" fill="#FFFFAB"/>
<text id="&#208;&#161;&#208;&#190;&#209;&#129;&#209;&#130;&#208;&#176;&#208;&#178; &#208;&#191;&#209;&#128;&#208;&#181;&#208;&#180;&#208;&#187;&#208;&#190;&#208;&#182;&#208;&#181;&#208;&#189;&#208;&#184;&#209;&#143;" fill="white" xml:space="preserve" style="white-space: pre" font-family="Arial" font-size="32" letter-spacing="0em"><tspan x="578" y="69.5938">&#x421;&#x43e;&#x441;&#x442;&#x430;&#x432; &#x43f;&#x440;&#x435;&#x434;&#x43b;&#x43e;&#x436;&#x435;&#x43d;&#x438;&#x44f;</tspan></text>
<text id="&#208;&#167;&#209;&#130;&#208;&#190; &#208;&#180;&#208;&#181;&#208;&#187;&#208;&#176;&#208;&#181;&#209;&#130;?" fill="white" xml:space="preserve" style="white-space: pre" font-family="Arial" font-size="32" letter-spacing="0em"><tspan x="620" y="219.594">&#x427;&#x442;&#x43e; &#x434;&#x435;&#x43b;&#x430;&#x435;&#x442;?</tspan></text>
<text id="&#208;&#154;&#208;&#176;&#208;&#186;&#208;&#190;&#208;&#185;?" fill="white" xml:space="preserve" style="white-space: pre" font-family="Arial" font-size="32" letter-spacing="0em"><tspan x="309" y="519.594">&#x41a;&#x430;&#x43a;&#x43e;&#x439;?</tspan></text>
<g id="btnCheck">
<rect id="Rectangle 1" x="80" y="713" width="252" height="80" rx="28" fill="#7DB934" stroke="#FEDD5B" stroke-width="6"/>
<text id="&#208;&#191;&#209;&#128;&#208;&#190;&#208;&#178;&#208;&#181;&#209;&#128;&#208;&#184;&#209;&#130;&#209;&#140;" fill="#266040" xml:space="preserve" style="white-space: pre" font-family="Arial" font-size="40" letter-spacing="0em"><tspan x="109" y="766.867">&#x43f;&#x440;&#x43e;&#x432;&#x435;&#x440;&#x438;&#x442;&#x44c;</tspan></text>
</g>
<g id="btnNext">
<rect id="Rectangle 2" x="1138" y="713" width="252" height="80" rx="28" fill="#3479B9" stroke="#C9C329" stroke-width="6"/>
<text id="&#208;&#180;&#208;&#176;&#208;&#187;&#209;&#140;&#209;&#136;&#208;&#181;" fill="white" xml:space="preserve" style="white-space: pre" font-family="Arial" font-size="40" letter-spacing="0em"><tspan x="1191" y="766.867">&#x434;&#x430;&#x43b;&#x44c;&#x448;&#x435;</tspan></text>
</g>
<rect id="droppable4" x="1066.5" y="341.5" width="340" height="80" stroke="#FFFFAB" stroke-width="3"/>
<rect id="droppable3" x="725.5" y="341.5" width="341" height="80" stroke="#FFFFAB" stroke-width="3"/>
<rect id="droppable2" x="385.5" y="341.5" width="341" height="80" stroke="#FFFFAB" stroke-width="3"/>
<rect id="droppable1" x="45.5" y="341.5" width="340" height="80" stroke="#FFFFAB" stroke-width="3"/>
<rect id="parckingForDraggable" x="386" y="637" width="698" height="221" rx="35" fill="#3A8B5F"/>
<line id="Line 4" y1="112.5" x2="1470" y2="112.5" stroke="#FFFFAB" stroke-width="3"/>
<path id="Star 1" d="M1118.34 25.9179L1126.66 42.2311C1127.32 43.5124 1128.54 44.4038 1129.96 44.6297L1148.05 47.5064C1149.26 47.6988 1149.74 49.1812 1148.88 50.0478L1135.93 63.0065C1134.92 64.0243 1134.45 65.4667 1134.67 66.8876L1137.53 84.9786C1137.72 86.1884 1136.46 87.1046 1135.36 86.5493L1119.04 78.245C1117.76 77.5928 1116.24 77.5928 1114.96 78.245L1098.64 86.5493C1097.54 87.1046 1096.28 86.1884 1096.47 84.9786L1099.33 66.8876C1099.55 65.4667 1099.08 64.0243 1098.07 63.0065L1085.12 50.0478C1084.26 49.1812 1084.74 47.6988 1085.95 47.5064L1104.04 44.6297C1105.46 44.4038 1106.68 43.5124 1107.34 42.2311L1115.66 25.9179C1116.22 24.827 1117.78 24.8271 1118.34 25.9179Z" fill="#FFE60A" stroke="#F35111" stroke-width="3"/>
<text id="correct" fill="#FFE60A" xml:space="preserve" style="white-space: pre" font-family="Arial" font-size="64" letter-spacing="0em"><tspan x="1184" y="81.1875">0</tspan></text>
<text id="incorrect" fill="#0AB9FF" xml:space="preserve" style="white-space: pre" font-family="Arial" font-size="64" letter-spacing="0em"><tspan x="1390" y="81.1875">0</tspan></text>
<g id="Union">
<mask id="path-29-inside-1_69_2" fill="white">
<path fill-rule="evenodd" clip-rule="evenodd" d="M1334.31 49.6776L1318.63 34L1309.34 43.288L1325.02 58.9656L1309 74.9877L1318.29 84.2756L1334.31 68.2535L1350.21 84.155L1359.5 74.867L1343.6 58.9656L1359.15 43.4086L1349.87 34.1207L1334.31 49.6776Z"/>
</mask>
<path fill-rule="evenodd" clip-rule="evenodd" d="M1334.31 49.6776L1318.63 34L1309.34 43.288L1325.02 58.9656L1309 74.9877L1318.29 84.2756L1334.31 68.2535L1350.21 84.155L1359.5 74.867L1343.6 58.9656L1359.15 43.4086L1349.87 34.1207L1334.31 49.6776Z" fill="#0AB9FF"/>
<path d="M1318.63 34L1320.05 32.5858L1318.63 31.1716L1317.22 32.5858L1318.63 34ZM1334.31 49.6776L1332.9 51.0918L1334.31 52.506L1335.72 51.0918L1334.31 49.6776ZM1309.34 43.288L1307.93 41.8737L1306.52 43.288L1307.93 44.7022L1309.34 43.288ZM1325.02 58.9656L1326.44 60.3798L1327.85 58.9656L1326.44 57.5514L1325.02 58.9656ZM1309 74.9877L1307.59 73.5735L1306.17 74.9877L1307.59 76.4019L1309 74.9877ZM1318.29 84.2756L1316.87 85.6899L1318.29 87.1041L1319.7 85.6899L1318.29 84.2756ZM1334.31 68.2535L1335.72 66.8393L1334.31 65.4251L1332.9 66.8393L1334.31 68.2535ZM1350.21 84.155L1348.8 85.5692L1350.21 86.9834L1351.63 85.5692L1350.21 84.155ZM1359.5 74.867L1360.91 76.2812L1362.33 74.867L1360.91 73.4528L1359.5 74.867ZM1343.6 58.9656L1342.18 57.5514L1340.77 58.9656L1342.18 60.3798L1343.6 58.9656ZM1359.15 43.4086L1360.57 44.8228L1361.98 43.4086L1360.57 41.9944L1359.15 43.4086ZM1349.87 34.1207L1351.28 32.7065L1349.87 31.2923L1348.45 32.7065L1349.87 34.1207ZM1317.22 35.4142L1332.9 51.0918L1335.72 48.2634L1320.05 32.5858L1317.22 35.4142ZM1310.76 44.7022L1320.05 35.4142L1317.22 32.5858L1307.93 41.8737L1310.76 44.7022ZM1326.44 57.5514L1310.76 41.8737L1307.93 44.7022L1323.61 60.3798L1326.44 57.5514ZM1310.41 76.4019L1326.44 60.3798L1323.61 57.5514L1307.59 73.5735L1310.41 76.4019ZM1319.7 82.8614L1310.41 73.5735L1307.59 76.4019L1316.87 85.6899L1319.7 82.8614ZM1332.9 66.8393L1316.87 82.8614L1319.7 85.6899L1335.72 69.6677L1332.9 66.8393ZM1351.63 82.7407L1335.72 66.8393L1332.9 69.6677L1348.8 85.5692L1351.63 82.7407ZM1358.09 73.4528L1348.8 82.7407L1351.63 85.5692L1360.91 76.2812L1358.09 73.4528ZM1342.18 60.3798L1358.09 76.2812L1360.91 73.4528L1345.01 57.5514L1342.18 60.3798ZM1357.74 41.9944L1342.18 57.5514L1345.01 60.3798L1360.57 44.8228L1357.74 41.9944ZM1348.45 35.5349L1357.74 44.8228L1360.57 41.9944L1351.28 32.7065L1348.45 35.5349ZM1335.72 51.0918L1351.28 35.5349L1348.45 32.7065L1332.9 48.2634L1335.72 51.0918Z" fill="#16355F" mask="url(#path-29-inside-1_69_2)"/>
</g>
</g>
</svg>
