<svg width="1334" height="338" viewBox="0 0 1334 338" fill="none" xmlns="http://www.w3.org/2000/svg">
<g id="deti">
<path id="podlejaschee" d="M3 233L296 233" stroke="#FFFFAB" stroke-width="5" stroke-linecap="round"/>
<path id="vtorostepennie2" d="M364 240L380.563 232.5C391.09 227.733 403.16 227.733 413.688 232.5V232.5C424.215 237.267 436.285 237.267 446.813 232.5V232.5C457.34 227.733 469.41 227.733 479.938 232.5V232.5C490.465 237.267 502.535 237.267 513.063 232.5V232.5C523.59 227.733 535.66 227.733 546.188 232.5V232.5C556.715 237.267 568.785 237.267 579.313 232.5V232.5C589.84 227.733 601.91 227.733 612.438 232.5L629 240" stroke="#FFFFAB" stroke-width="5" stroke-linecap="round"/>
<path id="vtorostepennie1" d="M1018 246L1041.37 237.039C1051.51 233.151 1062.74 233.151 1072.88 237.039L1080.5 239.961C1090.64 243.849 1101.86 243.849 1112 239.961L1119.62 237.039C1129.76 233.151 1140.99 233.151 1151.13 237.039L1158.75 239.961C1168.89 243.849 1180.11 243.849 1190.25 239.961L1197.87 237.039C1208.01 233.151 1219.24 233.151 1229.38 237.039L1237 239.961C1247.14 243.849 1258.36 243.849 1268.5 239.961L1276.12 237.039C1286.26 233.151 1297.49 233.151 1307.63 237.039L1331 246" stroke="#FFFFAB" stroke-width="5" stroke-linecap="round"/>
<g id="skazuemoe">
<path id="Line 2" d="M673 233H987" stroke="#FFFFAB" stroke-width="5" stroke-linecap="round"/>
<path id="Line 3" d="M673 249H987" stroke="#FFFFAB" stroke-width="5" stroke-linecap="round"/>
</g>
<path id="Vector 1" d="M837 52V49L834 49V52H837ZM1171 52H1174V49H1171V52ZM1168.88 114.121C1170.05 115.293 1171.95 115.293 1173.12 114.121L1192.21 95.0294C1193.38 93.8579 1193.38 91.9584 1192.21 90.7868C1191.04 89.6152 1189.14 89.6152 1187.97 90.7868L1171 107.757L1154.03 90.7868C1152.86 89.6152 1150.96 89.6152 1149.79 90.7868C1148.62 91.9584 1148.62 93.8579 1149.79 95.0294L1168.88 114.121ZM840 128.5V52H834V128.5H840ZM837 55L1171 55V49L837 49V55ZM1168 52V112H1174V52H1168Z" fill="#FFFFAB"/>
<path id="Vector 2" d="M495.121 273.879C493.95 272.707 492.05 272.707 490.879 273.879L471.787 292.971C470.615 294.142 470.615 296.042 471.787 297.213C472.958 298.385 474.858 298.385 476.029 297.213L493 280.243L509.971 297.213C511.142 298.385 513.042 298.385 514.213 297.213C515.385 296.042 515.385 294.142 514.213 292.971L495.121 273.879ZM493 335H490V338H493V335ZM819 335V338H822V335H819ZM490 276V335H496V276H490ZM493 338H819V332H493V338ZM822 335V257H816V335H822Z" fill="#FFFFAB"/>
<path id="&#208;&#147;&#208;&#180;&#208;&#181;?" d="M971.516 7.09375H986.328V9.79688H974.547V30H971.516V7.09375ZM988.516 13.4062H1000.08V27.6875H1001.88V34.7031H999.562V30H986.5V34.7031H984.188V27.6875H985.672C987.651 25 988.599 20.2396 988.516 13.4062ZM990.859 15.7344C990.651 21.1198 989.818 25.1042 988.359 27.6875H997.281V15.7344H990.859ZM1016.34 24.6562L1019.25 25.0156C1018.79 26.7135 1017.94 28.0312 1016.7 28.9688C1015.46 29.9062 1013.88 30.375 1011.95 30.375C1009.53 30.375 1007.6 29.6302 1006.17 28.1406C1004.76 26.6406 1004.05 24.5417 1004.05 21.8438C1004.05 19.0521 1004.77 16.8854 1006.2 15.3438C1007.64 13.8021 1009.51 13.0312 1011.8 13.0312C1014.02 13.0312 1015.83 13.7865 1017.23 15.2969C1018.64 16.8073 1019.34 18.9323 1019.34 21.6719C1019.34 21.8385 1019.34 22.0885 1019.33 22.4219H1006.95C1007.06 24.2448 1007.57 25.6406 1008.5 26.6094C1009.43 27.5781 1010.58 28.0625 1011.97 28.0625C1013 28.0625 1013.88 27.7917 1014.61 27.25C1015.34 26.7083 1015.92 25.8438 1016.34 24.6562ZM1007.11 20.1094H1016.38C1016.25 18.7135 1015.9 17.6667 1015.31 16.9688C1014.42 15.8854 1013.26 15.3438 1011.83 15.3438C1010.54 15.3438 1009.45 15.776 1008.56 16.6406C1007.69 17.5052 1007.2 18.6615 1007.11 20.1094ZM1028.06 24.3594C1028.05 23.9844 1028.05 23.7031 1028.05 23.5156C1028.05 22.4115 1028.2 21.4583 1028.52 20.6562C1028.74 20.0521 1029.11 19.4427 1029.62 18.8281C1030 18.3802 1030.67 17.7292 1031.64 16.875C1032.62 16.0104 1033.26 15.3229 1033.55 14.8125C1033.84 14.3021 1033.98 13.7448 1033.98 13.1406C1033.98 12.0469 1033.56 11.0885 1032.7 10.2656C1031.85 9.43229 1030.8 9.01562 1029.56 9.01562C1028.36 9.01562 1027.36 9.39062 1026.56 10.1406C1025.76 10.8906 1025.23 12.0625 1024.98 13.6562L1022.09 13.3125C1022.35 11.1771 1023.12 9.54167 1024.41 8.40625C1025.7 7.27083 1027.4 6.70312 1029.52 6.70312C1031.76 6.70312 1033.54 7.3125 1034.88 8.53125C1036.21 9.75 1036.88 11.224 1036.88 12.9531C1036.88 13.9531 1036.64 14.875 1036.17 15.7188C1035.7 16.5625 1034.79 17.5885 1033.42 18.7969C1032.51 19.6094 1031.91 20.2083 1031.62 20.5938C1031.34 20.9792 1031.14 21.4219 1031 21.9219C1030.86 22.4219 1030.79 23.2344 1030.77 24.3594H1028.06ZM1027.89 30V26.7969H1031.09V30H1027.89Z" fill="white"/>
<path id="&#208;&#154;&#208;&#176;&#208;&#186;?" d="M631.516 293.094H634.547V303.125C635.932 303.125 636.906 302.859 637.469 302.328C638.031 301.786 638.75 300.495 639.625 298.453C640.26 296.953 640.781 295.896 641.188 295.281C641.604 294.656 642.193 294.135 642.953 293.719C643.714 293.292 644.552 293.078 645.469 293.078C646.635 293.078 647.25 293.089 647.312 293.109V295.734C647.208 295.734 647.005 295.729 646.703 295.719C646.37 295.708 646.167 295.703 646.094 295.703C645.125 295.703 644.406 295.938 643.938 296.406C643.458 296.875 642.911 297.875 642.297 299.406C641.526 301.344 640.875 302.568 640.344 303.078C639.812 303.578 639.177 303.979 638.438 304.281C639.917 304.688 641.375 306.052 642.812 308.375L647.531 316H643.766L639.938 309.781C638.885 308.062 638.005 306.885 637.297 306.25C636.589 305.604 635.672 305.281 634.547 305.281V316H631.516V293.094ZM660.594 313.953C659.552 314.839 658.547 315.464 657.578 315.828C656.62 316.193 655.589 316.375 654.484 316.375C652.661 316.375 651.26 315.932 650.281 315.047C649.302 314.151 648.812 313.01 648.812 311.625C648.812 310.812 648.995 310.073 649.359 309.406C649.734 308.729 650.219 308.188 650.812 307.781C651.417 307.375 652.094 307.068 652.844 306.859C653.396 306.714 654.229 306.573 655.344 306.438C657.615 306.167 659.286 305.844 660.359 305.469C660.37 305.083 660.375 304.839 660.375 304.734C660.375 303.589 660.109 302.781 659.578 302.312C658.859 301.677 657.792 301.359 656.375 301.359C655.052 301.359 654.073 301.594 653.438 302.062C652.812 302.521 652.349 303.339 652.047 304.516L649.297 304.141C649.547 302.964 649.958 302.016 650.531 301.297C651.104 300.568 651.932 300.01 653.016 299.625C654.099 299.229 655.354 299.031 656.781 299.031C658.198 299.031 659.349 299.198 660.234 299.531C661.12 299.865 661.771 300.286 662.188 300.797C662.604 301.297 662.896 301.932 663.062 302.703C663.156 303.182 663.203 304.047 663.203 305.297V309.047C663.203 311.661 663.26 313.318 663.375 314.016C663.5 314.703 663.74 315.365 664.094 316H661.156C660.865 315.417 660.677 314.734 660.594 313.953ZM660.359 307.672C659.339 308.089 657.807 308.443 655.766 308.734C654.609 308.901 653.792 309.089 653.312 309.297C652.833 309.505 652.464 309.812 652.203 310.219C651.943 310.615 651.812 311.057 651.812 311.547C651.812 312.297 652.094 312.922 652.656 313.422C653.229 313.922 654.062 314.172 655.156 314.172C656.24 314.172 657.203 313.938 658.047 313.469C658.891 312.99 659.51 312.339 659.906 311.516C660.208 310.88 660.359 309.943 660.359 308.703V307.672ZM667.562 299.406H670.375V306.578C671.271 306.578 671.896 306.406 672.25 306.062C672.615 305.719 673.146 304.719 673.844 303.062C674.396 301.75 674.844 300.885 675.188 300.469C675.531 300.052 675.927 299.771 676.375 299.625C676.823 299.479 677.542 299.406 678.531 299.406H679.094V301.734L678.312 301.719C677.573 301.719 677.099 301.828 676.891 302.047C676.672 302.276 676.339 302.958 675.891 304.094C675.464 305.177 675.073 305.927 674.719 306.344C674.365 306.76 673.818 307.141 673.078 307.484C674.286 307.807 675.474 308.932 676.641 310.859L679.719 316H676.625L673.625 310.859C673.01 309.828 672.474 309.151 672.016 308.828C671.557 308.495 671.01 308.328 670.375 308.328V316H667.562V299.406ZM686.844 310.359C686.833 309.984 686.828 309.703 686.828 309.516C686.828 308.411 686.984 307.458 687.297 306.656C687.526 306.052 687.896 305.443 688.406 304.828C688.781 304.38 689.453 303.729 690.422 302.875C691.401 302.01 692.036 301.323 692.328 300.812C692.62 300.302 692.766 299.745 692.766 299.141C692.766 298.047 692.339 297.089 691.484 296.266C690.63 295.432 689.583 295.016 688.344 295.016C687.146 295.016 686.146 295.391 685.344 296.141C684.542 296.891 684.016 298.062 683.766 299.656L680.875 299.312C681.135 297.177 681.906 295.542 683.188 294.406C684.479 293.271 686.182 292.703 688.297 292.703C690.536 292.703 692.323 293.312 693.656 294.531C694.99 295.75 695.656 297.224 695.656 298.953C695.656 299.953 695.422 300.875 694.953 301.719C694.484 302.562 693.568 303.589 692.203 304.797C691.286 305.609 690.688 306.208 690.406 306.594C690.125 306.979 689.917 307.422 689.781 307.922C689.646 308.422 689.568 309.234 689.547 310.359H686.844ZM686.672 316V312.797H689.875V316H686.672Z" fill="white"/>
</g>
</svg>
