<svg width="1334" height="334" viewBox="0 0 1334 334" fill="none" xmlns="http://www.w3.org/2000/svg">
<g id="kot">
<path id="podlejaschee" d="M3 229L296 229" stroke="#FFFFAB" stroke-width="5" stroke-linecap="round"/>
<path id="vtorostepennie2" d="M686 238L702.563 230.5C713.09 225.733 725.16 225.733 735.688 230.5V230.5C746.215 235.267 758.285 235.267 768.813 230.5V230.5C779.34 225.733 791.41 225.733 801.938 230.5V230.5C812.465 235.267 824.535 235.267 835.063 230.5V230.5C845.59 225.733 857.66 225.733 868.188 230.5V230.5C878.715 235.267 890.785 235.267 901.313 230.5V230.5C911.84 225.733 923.91 225.733 934.438 230.5L951 238" stroke="#FFFFAB" stroke-width="5" stroke-linecap="round"/>
<path id="vtorostepennie1" d="M1018 242L1041.37 233.039C1051.51 229.151 1062.74 229.151 1072.88 233.039L1080.5 235.961C1090.64 239.849 1101.86 239.849 1112 235.961L1119.62 233.039C1129.76 229.151 1140.99 229.151 1151.13 233.039L1158.75 235.961C1168.89 239.849 1180.11 239.849 1190.25 235.961L1197.87 233.039C1208.01 229.151 1219.24 229.151 1229.38 233.039L1237 235.961C1247.14 239.849 1258.36 239.849 1268.5 235.961L1276.12 233.039C1286.26 229.151 1297.49 229.151 1307.63 233.039L1331 242" stroke="#FFFFAB" stroke-width="5" stroke-linecap="round"/>
<g id="skazuemoe">
<path id="Line 2" d="M333 226H647" stroke="#FFFFAB" stroke-width="5" stroke-linecap="round"/>
<path id="Line 3" d="M333 242H647" stroke="#FFFFAB" stroke-width="5" stroke-linecap="round"/>
</g>
<path id="Vector 1" d="M463 54V51H460V54H463ZM1171 54H1174V51H1171V54ZM1168.88 116.513C1170.05 117.685 1171.95 117.685 1173.12 116.513L1192.21 97.4216C1193.38 96.25 1193.38 94.3505 1192.21 93.179C1191.04 92.0074 1189.14 92.0074 1187.97 93.179L1171 110.15L1154.03 93.179C1152.86 92.0074 1150.96 92.0074 1149.79 93.179C1148.62 94.3505 1148.62 96.25 1149.79 97.4216L1168.88 116.513ZM466 131V54H460V131H466ZM463 57L1171 57V51L463 51V57ZM1168 54V114.392H1174V54H1168Z" fill="#FFFFAB"/>
<path id="Vector 2" d="M463 331H460V334H463V331ZM819 331V334H822V331H819ZM821.121 260.379C819.95 259.207 818.05 259.207 816.879 260.379L797.787 279.471C796.615 280.642 796.615 282.542 797.787 283.713C798.958 284.885 800.858 284.885 802.029 283.713L819 266.743L835.971 283.713C837.142 284.885 839.042 284.885 840.213 283.713C841.385 282.542 841.385 280.642 840.213 279.471L821.121 260.379ZM460 249V331H466V249H460ZM463 334H819V328H463V334ZM822 331V262.5H816V331H822Z" fill="#FFFFAB"/>
<path id="&#208;&#157;&#208;&#176; &#209;&#135;&#209;&#145;&#208;&#188;?" d="M588.562 30V7.09375H591.594V16.5H603.5V7.09375H606.531V30H603.5V19.2031H591.594V30H588.562ZM622.062 27.9531C621.021 28.8385 620.016 29.4635 619.047 29.8281C618.089 30.1927 617.057 30.375 615.953 30.375C614.13 30.375 612.729 29.9323 611.75 29.0469C610.771 28.151 610.281 27.0104 610.281 25.625C610.281 24.8125 610.464 24.0729 610.828 23.4062C611.203 22.7292 611.688 22.1875 612.281 21.7812C612.885 21.375 613.562 21.0677 614.312 20.8594C614.865 20.7135 615.698 20.5729 616.812 20.4375C619.083 20.1667 620.755 19.8438 621.828 19.4688C621.839 19.0833 621.844 18.8385 621.844 18.7344C621.844 17.5885 621.578 16.7812 621.047 16.3125C620.328 15.6771 619.26 15.3594 617.844 15.3594C616.521 15.3594 615.542 15.5938 614.906 16.0625C614.281 16.5208 613.818 17.3385 613.516 18.5156L610.766 18.1406C611.016 16.9635 611.427 16.0156 612 15.2969C612.573 14.5677 613.401 14.0104 614.484 13.625C615.568 13.2292 616.823 13.0312 618.25 13.0312C619.667 13.0312 620.818 13.1979 621.703 13.5312C622.589 13.8646 623.24 14.2865 623.656 14.7969C624.073 15.2969 624.365 15.9323 624.531 16.7031C624.625 17.1823 624.672 18.0469 624.672 19.2969V23.0469C624.672 25.6615 624.729 27.3177 624.844 28.0156C624.969 28.7031 625.208 29.3646 625.562 30H622.625C622.333 29.4167 622.146 28.7344 622.062 27.9531ZM621.828 21.6719C620.807 22.0885 619.276 22.4427 617.234 22.7344C616.078 22.901 615.26 23.0885 614.781 23.2969C614.302 23.5052 613.932 23.8125 613.672 24.2188C613.411 24.6146 613.281 25.0573 613.281 25.5469C613.281 26.2969 613.562 26.9219 614.125 27.4219C614.698 27.9219 615.531 28.1719 616.625 28.1719C617.708 28.1719 618.672 27.9375 619.516 27.4688C620.359 26.9896 620.979 26.3385 621.375 25.5156C621.677 24.8802 621.828 23.9427 621.828 22.7031V21.6719ZM636.922 13.4062H639.734V16.5469C639.734 17.901 639.812 18.8854 639.969 19.5C640.135 20.1042 640.526 20.6354 641.141 21.0938C641.755 21.5417 642.526 21.7656 643.453 21.7656C644.516 21.7656 645.891 21.4844 647.578 20.9219V13.4062H650.391V30H647.578V23.3125C645.849 23.8542 644.234 24.125 642.734 24.125C641.474 24.125 640.359 23.8073 639.391 23.1719C638.432 22.526 637.781 21.7396 637.438 20.8125C637.094 19.8854 636.922 18.8646 636.922 17.75V13.4062ZM666 24.6562L668.906 25.0156C668.448 26.7135 667.599 28.0312 666.359 28.9688C665.12 29.9062 663.536 30.375 661.609 30.375C659.182 30.375 657.255 29.6302 655.828 28.1406C654.411 26.6406 653.703 24.5417 653.703 21.8438C653.703 19.0521 654.422 16.8854 655.859 15.3438C657.297 13.8021 659.161 13.0312 661.453 13.0312C663.672 13.0312 665.484 13.7865 666.891 15.2969C668.297 16.8073 669 18.9323 669 21.6719C669 21.8385 668.995 22.0885 668.984 22.4219H656.609C656.714 24.2448 657.229 25.6406 658.156 26.6094C659.083 27.5781 660.24 28.0625 661.625 28.0625C662.656 28.0625 663.536 27.7917 664.266 27.25C664.995 26.7083 665.573 25.8438 666 24.6562ZM656.766 20.1094H666.031C665.906 18.7135 665.552 17.6667 664.969 16.9688C664.073 15.8854 662.911 15.3438 661.484 15.3438C660.193 15.3438 659.104 15.776 658.219 16.6406C657.344 17.5052 656.859 18.6615 656.766 20.1094ZM656.969 10.1562V6.95312H659.906V10.1562H656.969ZM662.797 10.1562V6.95312H665.734V10.1562H662.797ZM672.531 13.4062H676.906L681.266 26.6875L686.109 13.4062H690.156V30H687.344V16.6406L682.438 30H679.922L675.281 16V30H672.531V13.4062ZM699.719 24.3594C699.708 23.9844 699.703 23.7031 699.703 23.5156C699.703 22.4115 699.859 21.4583 700.172 20.6562C700.401 20.0521 700.771 19.4427 701.281 18.8281C701.656 18.3802 702.328 17.7292 703.297 16.875C704.276 16.0104 704.911 15.3229 705.203 14.8125C705.495 14.3021 705.641 13.7448 705.641 13.1406C705.641 12.0469 705.214 11.0885 704.359 10.2656C703.505 9.43229 702.458 9.01562 701.219 9.01562C700.021 9.01562 699.021 9.39062 698.219 10.1406C697.417 10.8906 696.891 12.0625 696.641 13.6562L693.75 13.3125C694.01 11.1771 694.781 9.54167 696.062 8.40625C697.354 7.27083 699.057 6.70312 701.172 6.70312C703.411 6.70312 705.198 7.3125 706.531 8.53125C707.865 9.75 708.531 11.224 708.531 12.9531C708.531 13.9531 708.297 14.875 707.828 15.7188C707.359 16.5625 706.443 17.5885 705.078 18.7969C704.161 19.6094 703.562 20.2083 703.281 20.5938C703 20.9792 702.792 21.4219 702.656 21.9219C702.521 22.4219 702.443 23.2344 702.422 24.3594H699.719ZM699.547 30V26.7969H702.75V30H699.547Z" fill="white"/>
</g>
</svg>
