<svg width="1266" height="347" viewBox="0 0 1266 347" fill="none" xmlns="http://www.w3.org/2000/svg">
<g id="letni">
<path id="podlejaschee" d="M335 246H544" stroke="#FFFFAB" stroke-width="5" stroke-linecap="round"/>
<path id="vtorostepennie2" d="M998 253L1014.56 245.5C1025.09 240.733 1037.16 240.733 1047.69 245.5V245.5C1058.21 250.267 1070.29 250.267 1080.81 245.5V245.5C1091.34 240.733 1103.41 240.733 1113.94 245.5V245.5C1124.46 250.267 1136.54 250.267 1147.06 245.5V245.5C1157.59 240.733 1169.66 240.733 1180.19 245.5V245.5C1190.71 250.267 1202.79 250.267 1213.31 245.5V245.5C1223.84 240.733 1235.91 240.733 1246.44 245.5L1263 253" stroke="#FFFFAB" stroke-width="5" stroke-linecap="round"/>
<path id="vtorostepennie1" d="M3 253L16.0625 245.5C24.1516 240.856 34.0984 240.856 42.1875 245.5V245.5C50.2766 250.144 60.2234 250.144 68.3125 245.5V245.5C76.4016 240.856 86.3484 240.856 94.4375 245.5V245.5C102.527 250.144 112.473 250.144 120.562 245.5V245.5C128.652 240.856 138.598 240.856 146.687 245.5V245.5C154.777 250.144 164.723 250.144 172.812 245.5V245.5C180.902 240.856 190.848 240.856 198.937 245.5L212 253" stroke="#FFFFAB" stroke-width="5" stroke-linecap="round"/>
<g id="skazuemoe">
<path id="Line 2" d="M669 238H909" stroke="#FFFFAB" stroke-width="5" stroke-linecap="round"/>
<path id="Line 3" d="M669 254H909" stroke="#FFFFAB" stroke-width="5" stroke-linecap="round"/>
</g>
<path id="Vector 1" d="M804 60V57L801 57V60H804ZM1137.5 60H1140.5V57L1137.5 57V60ZM1135.38 118.121C1136.55 119.293 1138.45 119.293 1139.62 118.121L1158.71 99.0294C1159.88 97.8579 1159.88 95.9584 1158.71 94.7868C1157.54 93.6152 1155.64 93.6152 1154.47 94.7868L1137.5 111.757L1120.53 94.7868C1119.36 93.6152 1117.46 93.6152 1116.29 94.7868C1115.12 95.9584 1115.12 97.8579 1116.29 99.0294L1135.38 118.121ZM807 136.5V60H801V136.5H807ZM804 63L1137.5 63V57L804 57V63ZM1134.5 60V116H1140.5V60H1134.5Z" fill="#FFFFAB"/>
<path id="Vector 2" d="M76.1213 280.879C74.9497 279.707 73.0503 279.707 71.8787 280.879L52.7868 299.971C51.6152 301.142 51.6152 303.042 52.7868 304.213C53.9584 305.385 55.8579 305.385 57.0294 304.213L74 287.243L90.9706 304.213C92.1421 305.385 94.0416 305.385 95.2132 304.213C96.3848 303.042 96.3848 301.142 95.2132 299.971L76.1213 280.879ZM74 344H71V347H74V344ZM436 344V347H439V344H436ZM71 283V344H77V283H71ZM74 347H436V341H74V347ZM439 344V283H433V344H439Z" fill="#FFFFAB"/>
<text id="&#208;&#159;&#208;&#190; &#209;&#135;&#208;&#181;&#208;&#188;&#209;&#131;?" fill="white" xml:space="preserve" style="white-space: pre" font-family="Arial" font-size="32" letter-spacing="0em"><tspan x="877" y="29.5938">&#x41f;&#x43e; &#x447;&#x435;&#x43c;&#x443;?</tspan></text>
<text id="&#208;&#154;&#208;&#176;&#208;&#186;&#208;&#190;&#208;&#185;?" fill="white" xml:space="preserve" style="white-space: pre" font-family="Arial" font-size="32" letter-spacing="0em"><tspan x="202" y="320.594">&#x41a;&#x430;&#x43a;&#x43e;&#x439;?</tspan></text>
</g>
</svg>
