<svg width="1335" height="346" viewBox="0 0 1335 346" fill="none" xmlns="http://www.w3.org/2000/svg">
<g id="lodka">
<path id="podlejaschee" d="M1039 245L1332 245" stroke="#FFFFAB" stroke-width="5" stroke-linecap="round"/>
<path id="vtorostepennie2" d="M722 252L738.563 244.5C749.09 239.733 761.16 239.733 771.688 244.5V244.5C782.215 249.267 794.285 249.267 804.813 244.5V244.5C815.34 239.733 827.41 239.733 837.938 244.5V244.5C848.465 249.267 860.535 249.267 871.063 244.5V244.5C881.59 239.733 893.66 239.733 904.188 244.5V244.5C914.715 249.267 926.785 249.267 937.313 244.5V244.5C947.84 239.733 959.91 239.733 970.438 244.5L987 252" stroke="#FFFFAB" stroke-width="5" stroke-linecap="round"/>
<path id="vtorostepennie1" d="M3 252L26.3739 243.039C36.5148 239.151 47.7352 239.151 57.8761 243.039L65.4989 245.961C75.6398 249.849 86.8602 249.849 97.0011 245.961L104.624 243.039C114.765 239.151 125.985 239.151 136.126 243.039L143.749 245.961C153.89 249.849 165.11 249.849 175.251 245.961L182.874 243.039C193.015 239.151 204.235 239.151 214.376 243.039L221.999 245.961C232.14 249.849 243.36 249.849 253.501 245.961L261.124 243.039C271.265 239.151 282.485 239.151 292.626 243.039L316 252" stroke="#FFFFAB" stroke-width="5" stroke-linecap="round"/>
<g id="skazuemoe">
<path id="Line 2" d="M346 236H660" stroke="#FFFFAB" stroke-width="5" stroke-linecap="round"/>
<path id="Line 3" d="M346 252H660" stroke="#FFFFAB" stroke-width="5" stroke-linecap="round"/>
</g>
<path id="Vector 1" d="M858.879 109.121C860.05 110.293 861.95 110.293 863.121 109.121L882.213 90.0294C883.385 88.8579 883.385 86.9584 882.213 85.7868C881.042 84.6152 879.142 84.6152 877.971 85.7868L861 102.757L844.029 85.7868C842.858 84.6152 840.958 84.6152 839.787 85.7868C838.615 86.9584 838.615 88.8579 839.787 90.0294L858.879 109.121ZM861 59V56L858 56V59H861ZM1195 59H1198V56L1195 56V59ZM864 107V59H858V107H864ZM861 62L1195 62V56L861 56V62ZM1192 59V141H1198V59H1192Z" fill="#FFFFAB"/>
<path id="Vector 2" d="M133.121 279.879C131.95 278.707 130.05 278.707 128.879 279.879L109.787 298.971C108.615 300.142 108.615 302.042 109.787 303.213C110.958 304.385 112.858 304.385 114.029 303.213L131 286.243L147.971 303.213C149.142 304.385 151.042 304.385 152.213 303.213C153.385 302.042 153.385 300.142 152.213 298.971L133.121 279.879ZM131 343H128V346H131V343ZM493 343V346H496V343H493ZM128 282V343H134V282H128ZM131 346H493V340H131V346ZM496 343V264.5H490V343H496Z" fill="#FFFFAB"/>
<path id="&#208;&#154;&#208;&#176;&#208;&#186;&#208;&#176;&#209;&#143;?" d="M967.516 7.09375H970.547V17.125C971.932 17.125 972.906 16.8594 973.469 16.3281C974.031 15.7865 974.75 14.4948 975.625 12.4531C976.26 10.9531 976.781 9.89583 977.188 9.28125C977.604 8.65625 978.193 8.13542 978.953 7.71875C979.714 7.29167 980.552 7.07812 981.469 7.07812C982.635 7.07812 983.25 7.08854 983.312 7.10938V9.73438C983.208 9.73438 983.005 9.72917 982.703 9.71875C982.37 9.70833 982.167 9.70312 982.094 9.70312C981.125 9.70312 980.406 9.9375 979.938 10.4062C979.458 10.875 978.911 11.875 978.297 13.4062C977.526 15.3438 976.875 16.5677 976.344 17.0781C975.812 17.5781 975.177 17.9792 974.438 18.2812C975.917 18.6875 977.375 20.0521 978.812 22.375L983.531 30H979.766L975.938 23.7812C974.885 22.0625 974.005 20.8854 973.297 20.25C972.589 19.6042 971.672 19.2812 970.547 19.2812V30H967.516V7.09375ZM996.594 27.9531C995.552 28.8385 994.547 29.4635 993.578 29.8281C992.62 30.1927 991.589 30.375 990.484 30.375C988.661 30.375 987.26 29.9323 986.281 29.0469C985.302 28.151 984.812 27.0104 984.812 25.625C984.812 24.8125 984.995 24.0729 985.359 23.4062C985.734 22.7292 986.219 22.1875 986.812 21.7812C987.417 21.375 988.094 21.0677 988.844 20.8594C989.396 20.7135 990.229 20.5729 991.344 20.4375C993.615 20.1667 995.286 19.8438 996.359 19.4688C996.37 19.0833 996.375 18.8385 996.375 18.7344C996.375 17.5885 996.109 16.7812 995.578 16.3125C994.859 15.6771 993.792 15.3594 992.375 15.3594C991.052 15.3594 990.073 15.5938 989.438 16.0625C988.812 16.5208 988.349 17.3385 988.047 18.5156L985.297 18.1406C985.547 16.9635 985.958 16.0156 986.531 15.2969C987.104 14.5677 987.932 14.0104 989.016 13.625C990.099 13.2292 991.354 13.0312 992.781 13.0312C994.198 13.0312 995.349 13.1979 996.234 13.5312C997.12 13.8646 997.771 14.2865 998.188 14.7969C998.604 15.2969 998.896 15.9323 999.062 16.7031C999.156 17.1823 999.203 18.0469 999.203 19.2969V23.0469C999.203 25.6615 999.26 27.3177 999.375 28.0156C999.5 28.7031 999.74 29.3646 1000.09 30H997.156C996.865 29.4167 996.677 28.7344 996.594 27.9531ZM996.359 21.6719C995.339 22.0885 993.807 22.4427 991.766 22.7344C990.609 22.901 989.792 23.0885 989.312 23.2969C988.833 23.5052 988.464 23.8125 988.203 24.2188C987.943 24.6146 987.812 25.0573 987.812 25.5469C987.812 26.2969 988.094 26.9219 988.656 27.4219C989.229 27.9219 990.062 28.1719 991.156 28.1719C992.24 28.1719 993.203 27.9375 994.047 27.4688C994.891 26.9896 995.51 26.3385 995.906 25.5156C996.208 24.8802 996.359 23.9427 996.359 22.7031V21.6719ZM1003.56 13.4062H1006.38V20.5781C1007.27 20.5781 1007.9 20.4062 1008.25 20.0625C1008.61 19.7188 1009.15 18.7188 1009.84 17.0625C1010.4 15.75 1010.84 14.8854 1011.19 14.4688C1011.53 14.0521 1011.93 13.7708 1012.38 13.625C1012.82 13.4792 1013.54 13.4062 1014.53 13.4062H1015.09V15.7344L1014.31 15.7188C1013.57 15.7188 1013.1 15.8281 1012.89 16.0469C1012.67 16.276 1012.34 16.9583 1011.89 18.0938C1011.46 19.1771 1011.07 19.9271 1010.72 20.3438C1010.36 20.7604 1009.82 21.1406 1009.08 21.4844C1010.29 21.8073 1011.47 22.9323 1012.64 24.8594L1015.72 30H1012.62L1009.62 24.8594C1009.01 23.8281 1008.47 23.151 1008.02 22.8281C1007.56 22.4948 1007.01 22.3281 1006.38 22.3281V30H1003.56V13.4062ZM1029.12 27.9531C1028.08 28.8385 1027.08 29.4635 1026.11 29.8281C1025.15 30.1927 1024.12 30.375 1023.02 30.375C1021.19 30.375 1019.79 29.9323 1018.81 29.0469C1017.83 28.151 1017.34 27.0104 1017.34 25.625C1017.34 24.8125 1017.53 24.0729 1017.89 23.4062C1018.27 22.7292 1018.75 22.1875 1019.34 21.7812C1019.95 21.375 1020.62 21.0677 1021.38 20.8594C1021.93 20.7135 1022.76 20.5729 1023.88 20.4375C1026.15 20.1667 1027.82 19.8438 1028.89 19.4688C1028.9 19.0833 1028.91 18.8385 1028.91 18.7344C1028.91 17.5885 1028.64 16.7812 1028.11 16.3125C1027.39 15.6771 1026.32 15.3594 1024.91 15.3594C1023.58 15.3594 1022.6 15.5938 1021.97 16.0625C1021.34 16.5208 1020.88 17.3385 1020.58 18.5156L1017.83 18.1406C1018.08 16.9635 1018.49 16.0156 1019.06 15.2969C1019.64 14.5677 1020.46 14.0104 1021.55 13.625C1022.63 13.2292 1023.89 13.0312 1025.31 13.0312C1026.73 13.0312 1027.88 13.1979 1028.77 13.5312C1029.65 13.8646 1030.3 14.2865 1030.72 14.7969C1031.14 15.2969 1031.43 15.9323 1031.59 16.7031C1031.69 17.1823 1031.73 18.0469 1031.73 19.2969V23.0469C1031.73 25.6615 1031.79 27.3177 1031.91 28.0156C1032.03 28.7031 1032.27 29.3646 1032.62 30H1029.69C1029.4 29.4167 1029.21 28.7344 1029.12 27.9531ZM1028.89 21.6719C1027.87 22.0885 1026.34 22.4427 1024.3 22.7344C1023.14 22.901 1022.32 23.0885 1021.84 23.2969C1021.36 23.5052 1020.99 23.8125 1020.73 24.2188C1020.47 24.6146 1020.34 25.0573 1020.34 25.5469C1020.34 26.2969 1020.62 26.9219 1021.19 27.4219C1021.76 27.9219 1022.59 28.1719 1023.69 28.1719C1024.77 28.1719 1025.73 27.9375 1026.58 27.4688C1027.42 26.9896 1028.04 26.3385 1028.44 25.5156C1028.74 24.8802 1028.89 23.9427 1028.89 22.7031V21.6719ZM1049.17 13.4062V30H1046.38V23.5312H1044.75C1043.76 23.5312 1043.02 23.6615 1042.53 23.9219C1042.05 24.1719 1041.35 24.9896 1040.42 26.375L1037.97 30H1034.48L1037.52 25.5312C1038.44 24.1667 1039.36 23.3958 1040.28 23.2188C1038.68 23 1037.48 22.4219 1036.7 21.4844C1035.93 20.5469 1035.55 19.4688 1035.55 18.25C1035.55 16.8125 1036.05 15.6458 1037.06 14.75C1038.08 13.8542 1039.56 13.4062 1041.48 13.4062H1049.17ZM1046.38 15.7344H1042.38C1040.7 15.7344 1039.61 15.9948 1039.12 16.5156C1038.65 17.0365 1038.41 17.6458 1038.41 18.3438C1038.41 19.3333 1038.76 20.0625 1039.47 20.5312C1040.19 20.9896 1041.45 21.2188 1043.27 21.2188H1046.38V15.7344ZM1058.72 24.3594C1058.71 23.9844 1058.7 23.7031 1058.7 23.5156C1058.7 22.4115 1058.86 21.4583 1059.17 20.6562C1059.4 20.0521 1059.77 19.4427 1060.28 18.8281C1060.66 18.3802 1061.33 17.7292 1062.3 16.875C1063.28 16.0104 1063.91 15.3229 1064.2 14.8125C1064.49 14.3021 1064.64 13.7448 1064.64 13.1406C1064.64 12.0469 1064.21 11.0885 1063.36 10.2656C1062.51 9.43229 1061.46 9.01562 1060.22 9.01562C1059.02 9.01562 1058.02 9.39062 1057.22 10.1406C1056.42 10.8906 1055.89 12.0625 1055.64 13.6562L1052.75 13.3125C1053.01 11.1771 1053.78 9.54167 1055.06 8.40625C1056.35 7.27083 1058.06 6.70312 1060.17 6.70312C1062.41 6.70312 1064.2 7.3125 1065.53 8.53125C1066.86 9.75 1067.53 11.224 1067.53 12.9531C1067.53 13.9531 1067.3 14.875 1066.83 15.7188C1066.36 16.5625 1065.44 17.5885 1064.08 18.7969C1063.16 19.6094 1062.56 20.2083 1062.28 20.5938C1062 20.9792 1061.79 21.4219 1061.66 21.9219C1061.52 22.4219 1061.44 23.2344 1061.42 24.3594H1058.72ZM1058.55 30V26.7969H1061.75V30H1058.55Z" fill="white"/>
<path id="&#208;&#159;&#208;&#190; &#209;&#135;&#208;&#181;&#208;&#188;&#209;&#131;?" d="M247.5 292.094H265.516V315H262.469V294.797H250.531V315H247.5V292.094ZM269.062 306.703C269.062 303.63 269.917 301.354 271.625 299.875C273.052 298.646 274.792 298.031 276.844 298.031C279.125 298.031 280.99 298.781 282.438 300.281C283.885 301.771 284.609 303.833 284.609 306.469C284.609 308.604 284.286 310.286 283.641 311.516C283.005 312.734 282.073 313.682 280.844 314.359C279.625 315.036 278.292 315.375 276.844 315.375C274.521 315.375 272.641 314.63 271.203 313.141C269.776 311.651 269.062 309.505 269.062 306.703ZM271.953 306.703C271.953 308.828 272.417 310.422 273.344 311.484C274.271 312.536 275.438 313.062 276.844 313.062C278.24 313.062 279.401 312.531 280.328 311.469C281.255 310.406 281.719 308.786 281.719 306.609C281.719 304.557 281.25 303.005 280.312 301.953C279.385 300.891 278.229 300.359 276.844 300.359C275.438 300.359 274.271 300.885 273.344 301.938C272.417 302.99 271.953 304.578 271.953 306.703ZM295.797 298.406H298.609V301.547C298.609 302.901 298.688 303.885 298.844 304.5C299.01 305.104 299.401 305.635 300.016 306.094C300.63 306.542 301.401 306.766 302.328 306.766C303.391 306.766 304.766 306.484 306.453 305.922V298.406H309.266V315H306.453V308.312C304.724 308.854 303.109 309.125 301.609 309.125C300.349 309.125 299.234 308.807 298.266 308.172C297.307 307.526 296.656 306.74 296.312 305.812C295.969 304.885 295.797 303.865 295.797 302.75V298.406ZM324.875 309.656L327.781 310.016C327.323 311.714 326.474 313.031 325.234 313.969C323.995 314.906 322.411 315.375 320.484 315.375C318.057 315.375 316.13 314.63 314.703 313.141C313.286 311.641 312.578 309.542 312.578 306.844C312.578 304.052 313.297 301.885 314.734 300.344C316.172 298.802 318.036 298.031 320.328 298.031C322.547 298.031 324.359 298.786 325.766 300.297C327.172 301.807 327.875 303.932 327.875 306.672C327.875 306.839 327.87 307.089 327.859 307.422H315.484C315.589 309.245 316.104 310.641 317.031 311.609C317.958 312.578 319.115 313.062 320.5 313.062C321.531 313.062 322.411 312.792 323.141 312.25C323.87 311.708 324.448 310.844 324.875 309.656ZM315.641 305.109H324.906C324.781 303.714 324.427 302.667 323.844 301.969C322.948 300.885 321.786 300.344 320.359 300.344C319.068 300.344 317.979 300.776 317.094 301.641C316.219 302.505 315.734 303.661 315.641 305.109ZM331.406 298.406H335.781L340.141 311.688L344.984 298.406H349.031V315H346.219V301.641L341.312 315H338.797L334.156 301V315H331.406V298.406ZM353.578 321.391L353.266 318.75C353.88 318.917 354.417 319 354.875 319C355.5 319 356 318.896 356.375 318.688C356.75 318.479 357.057 318.188 357.297 317.812C357.474 317.531 357.76 316.833 358.156 315.719C358.208 315.562 358.292 315.333 358.406 315.031L352.109 298.406H355.141L358.594 308.016C359.042 309.234 359.443 310.516 359.797 311.859C360.12 310.568 360.505 309.307 360.953 308.078L364.5 298.406H367.312L361 315.281C360.323 317.104 359.797 318.359 359.422 319.047C358.922 319.974 358.349 320.651 357.703 321.078C357.057 321.516 356.286 321.734 355.391 321.734C354.849 321.734 354.245 321.62 353.578 321.391ZM374.969 309.359C374.958 308.984 374.953 308.703 374.953 308.516C374.953 307.411 375.109 306.458 375.422 305.656C375.651 305.052 376.021 304.443 376.531 303.828C376.906 303.38 377.578 302.729 378.547 301.875C379.526 301.01 380.161 300.323 380.453 299.812C380.745 299.302 380.891 298.745 380.891 298.141C380.891 297.047 380.464 296.089 379.609 295.266C378.755 294.432 377.708 294.016 376.469 294.016C375.271 294.016 374.271 294.391 373.469 295.141C372.667 295.891 372.141 297.062 371.891 298.656L369 298.312C369.26 296.177 370.031 294.542 371.312 293.406C372.604 292.271 374.307 291.703 376.422 291.703C378.661 291.703 380.448 292.312 381.781 293.531C383.115 294.75 383.781 296.224 383.781 297.953C383.781 298.953 383.547 299.875 383.078 300.719C382.609 301.562 381.693 302.589 380.328 303.797C379.411 304.609 378.812 305.208 378.531 305.594C378.25 305.979 378.042 306.422 377.906 306.922C377.771 307.422 377.693 308.234 377.672 309.359H374.969ZM374.797 315V311.797H378V315H374.797Z" fill="white"/>
</g>
</svg>
