<svg width="1335" height="346" viewBox="0 0 1335 346" fill="none" xmlns="http://www.w3.org/2000/svg">
<g id="nadPolem">
<path id="podlejaschee" d="M1039 245L1332 245" stroke="#FFFFAB" stroke-width="5" stroke-linecap="round"/>
<path id="vtorostepennie2" d="M722 252L738.563 244.5C749.09 239.733 761.16 239.733 771.688 244.5V244.5C782.215 249.267 794.285 249.267 804.813 244.5V244.5C815.34 239.733 827.41 239.733 837.938 244.5V244.5C848.465 249.267 860.535 249.267 871.063 244.5V244.5C881.59 239.733 893.66 239.733 904.188 244.5V244.5C914.715 249.267 926.785 249.267 937.313 244.5V244.5C947.84 239.733 959.91 239.733 970.438 244.5L987 252" stroke="#FFFFAB" stroke-width="5" stroke-linecap="round"/>
<path id="vtorostepennie1" d="M3 252L26.3739 243.039C36.5148 239.151 47.7352 239.151 57.8761 243.039L65.4989 245.961C75.6398 249.849 86.8602 249.849 97.0011 245.961L104.624 243.039C114.765 239.151 125.985 239.151 136.126 243.039L143.749 245.961C153.89 249.849 165.11 249.849 175.251 245.961L182.874 243.039C193.015 239.151 204.235 239.151 214.376 243.039L221.999 245.961C232.14 249.849 243.36 249.849 253.501 245.961L261.124 243.039C271.265 239.151 282.485 239.151 292.626 243.039L316 252" stroke="#FFFFAB" stroke-width="5" stroke-linecap="round"/>
<g id="skazuemoe">
<path id="Line 2" d="M346 236H660" stroke="#FFFFAB" stroke-width="5" stroke-linecap="round"/>
<path id="Line 3" d="M346 252H660" stroke="#FFFFAB" stroke-width="5" stroke-linecap="round"/>
</g>
<path id="Vector 1" d="M858.879 109.121C860.05 110.293 861.95 110.293 863.121 109.121L882.213 90.0294C883.385 88.8579 883.385 86.9584 882.213 85.7868C881.042 84.6152 879.142 84.6152 877.971 85.7868L861 102.757L844.029 85.7868C842.858 84.6152 840.958 84.6152 839.787 85.7868C838.615 86.9584 838.615 88.8579 839.787 90.0294L858.879 109.121ZM861 59V56L858 56V59H861ZM1195 59H1198V56L1195 56V59ZM864 107V59H858V107H864ZM861 62L1195 62V56L861 56V62ZM1192 59V141H1198V59H1192Z" fill="#FFFFAB"/>
<path id="Vector 2" d="M133.121 279.879C131.95 278.707 130.05 278.707 128.879 279.879L109.787 298.971C108.615 300.142 108.615 302.042 109.787 303.213C110.958 304.385 112.858 304.385 114.029 303.213L131 286.243L147.971 303.213C149.142 304.385 151.042 304.385 152.213 303.213C153.385 302.042 153.385 300.142 152.213 298.971L133.121 279.879ZM131 343H128V346H131V343ZM493 343V346H496V343H493ZM128 282V343H134V282H128ZM131 346H493V340H131V346ZM496 343V264.5H490V343H496Z" fill="#FFFFAB"/>
<text id="&#208;&#154;&#208;&#176;&#208;&#186;&#208;&#190;&#208;&#181;?" fill="white" xml:space="preserve" style="white-space: pre" font-family="Arial" font-size="32" letter-spacing="0em"><tspan x="965" y="29.5938">&#x41a;&#x430;&#x43a;&#x43e;&#x435;?</tspan></text>
<text id="&#208;&#147;&#208;&#180;&#208;&#181;?" fill="white" xml:space="preserve" style="white-space: pre" font-family="Arial" font-size="32" letter-spacing="0em"><tspan x="259" y="319.594">&#x413;&#x434;&#x435;?</tspan></text>
</g>
</svg>
