<svg width="1335" height="346" viewBox="0 0 1335 346" fill="none" xmlns="http://www.w3.org/2000/svg">
<g id="ruchei">
<path id="podlejaschee" d="M1039 245L1332 245" stroke="#FFFFAB" stroke-width="5" stroke-linecap="round"/>
<path id="vtorostepennie2" d="M722 252L738.563 244.5C749.09 239.733 761.16 239.733 771.688 244.5V244.5C782.215 249.267 794.285 249.267 804.813 244.5V244.5C815.34 239.733 827.41 239.733 837.938 244.5V244.5C848.465 249.267 860.535 249.267 871.063 244.5V244.5C881.59 239.733 893.66 239.733 904.188 244.5V244.5C914.715 249.267 926.785 249.267 937.313 244.5V244.5C947.84 239.733 959.91 239.733 970.438 244.5L987 252" stroke="#FFFFAB" stroke-width="5" stroke-linecap="round"/>
<path id="vtorostepennie1" d="M3 252L26.3739 243.039C36.5148 239.151 47.7352 239.151 57.8761 243.039L65.4989 245.961C75.6398 249.849 86.8602 249.849 97.0011 245.961L104.624 243.039C114.765 239.151 125.985 239.151 136.126 243.039L143.749 245.961C153.89 249.849 165.11 249.849 175.251 245.961L182.874 243.039C193.015 239.151 204.235 239.151 214.376 243.039L221.999 245.961C232.14 249.849 243.36 249.849 253.501 245.961L261.124 243.039C271.265 239.151 282.485 239.151 292.626 243.039L316 252" stroke="#FFFFAB" stroke-width="5" stroke-linecap="round"/>
<g id="skazuemoe">
<path id="Line 2" d="M346 236H660" stroke="#FFFFAB" stroke-width="5" stroke-linecap="round"/>
<path id="Line 3" d="M346 252H660" stroke="#FFFFAB" stroke-width="5" stroke-linecap="round"/>
</g>
<path id="Vector 1" d="M858.879 109.121C860.05 110.293 861.95 110.293 863.121 109.121L882.213 90.0294C883.385 88.8579 883.385 86.9584 882.213 85.7868C881.042 84.6152 879.142 84.6152 877.971 85.7868L861 102.757L844.029 85.7868C842.858 84.6152 840.958 84.6152 839.787 85.7868C838.615 86.9584 838.615 88.8579 839.787 90.0294L858.879 109.121ZM861 59V56L858 56V59H861ZM1195 59H1198V56L1195 56V59ZM864 107V59H858V107H864ZM861 62L1195 62V56L861 56V62ZM1192 59V141H1198V59H1192Z" fill="#FFFFAB"/>
<path id="Vector 2" d="M133.121 279.879C131.95 278.707 130.05 278.707 128.879 279.879L109.787 298.971C108.615 300.142 108.615 302.042 109.787 303.213C110.958 304.385 112.858 304.385 114.029 303.213L131 286.243L147.971 303.213C149.142 304.385 151.042 304.385 152.213 303.213C153.385 302.042 153.385 300.142 152.213 298.971L133.121 279.879ZM131 343H128V346H131V343ZM493 343V346H496V343H493ZM128 282V343H134V282H128ZM131 346H493V340H131V346ZM496 343V264.5H490V343H496Z" fill="#FFFFAB"/>
<path id="&#208;&#154;&#208;&#176;&#208;&#186;&#208;&#190;&#208;&#185;?" d="M967.516 7.09375H970.547V17.125C971.932 17.125 972.906 16.8594 973.469 16.3281C974.031 15.7865 974.75 14.4948 975.625 12.4531C976.26 10.9531 976.781 9.89583 977.188 9.28125C977.604 8.65625 978.193 8.13542 978.953 7.71875C979.714 7.29167 980.552 7.07812 981.469 7.07812C982.635 7.07812 983.25 7.08854 983.312 7.10938V9.73438C983.208 9.73438 983.005 9.72917 982.703 9.71875C982.37 9.70833 982.167 9.70312 982.094 9.70312C981.125 9.70312 980.406 9.9375 979.938 10.4062C979.458 10.875 978.911 11.875 978.297 13.4062C977.526 15.3438 976.875 16.5677 976.344 17.0781C975.812 17.5781 975.177 17.9792 974.438 18.2812C975.917 18.6875 977.375 20.0521 978.812 22.375L983.531 30H979.766L975.938 23.7812C974.885 22.0625 974.005 20.8854 973.297 20.25C972.589 19.6042 971.672 19.2812 970.547 19.2812V30H967.516V7.09375ZM996.594 27.9531C995.552 28.8385 994.547 29.4635 993.578 29.8281C992.62 30.1927 991.589 30.375 990.484 30.375C988.661 30.375 987.26 29.9323 986.281 29.0469C985.302 28.151 984.812 27.0104 984.812 25.625C984.812 24.8125 984.995 24.0729 985.359 23.4062C985.734 22.7292 986.219 22.1875 986.812 21.7812C987.417 21.375 988.094 21.0677 988.844 20.8594C989.396 20.7135 990.229 20.5729 991.344 20.4375C993.615 20.1667 995.286 19.8438 996.359 19.4688C996.37 19.0833 996.375 18.8385 996.375 18.7344C996.375 17.5885 996.109 16.7812 995.578 16.3125C994.859 15.6771 993.792 15.3594 992.375 15.3594C991.052 15.3594 990.073 15.5938 989.438 16.0625C988.812 16.5208 988.349 17.3385 988.047 18.5156L985.297 18.1406C985.547 16.9635 985.958 16.0156 986.531 15.2969C987.104 14.5677 987.932 14.0104 989.016 13.625C990.099 13.2292 991.354 13.0312 992.781 13.0312C994.198 13.0312 995.349 13.1979 996.234 13.5312C997.12 13.8646 997.771 14.2865 998.188 14.7969C998.604 15.2969 998.896 15.9323 999.062 16.7031C999.156 17.1823 999.203 18.0469 999.203 19.2969V23.0469C999.203 25.6615 999.26 27.3177 999.375 28.0156C999.5 28.7031 999.74 29.3646 1000.09 30H997.156C996.865 29.4167 996.677 28.7344 996.594 27.9531ZM996.359 21.6719C995.339 22.0885 993.807 22.4427 991.766 22.7344C990.609 22.901 989.792 23.0885 989.312 23.2969C988.833 23.5052 988.464 23.8125 988.203 24.2188C987.943 24.6146 987.812 25.0573 987.812 25.5469C987.812 26.2969 988.094 26.9219 988.656 27.4219C989.229 27.9219 990.062 28.1719 991.156 28.1719C992.24 28.1719 993.203 27.9375 994.047 27.4688C994.891 26.9896 995.51 26.3385 995.906 25.5156C996.208 24.8802 996.359 23.9427 996.359 22.7031V21.6719ZM1003.56 13.4062H1006.38V20.5781C1007.27 20.5781 1007.9 20.4062 1008.25 20.0625C1008.61 19.7188 1009.15 18.7188 1009.84 17.0625C1010.4 15.75 1010.84 14.8854 1011.19 14.4688C1011.53 14.0521 1011.93 13.7708 1012.38 13.625C1012.82 13.4792 1013.54 13.4062 1014.53 13.4062H1015.09V15.7344L1014.31 15.7188C1013.57 15.7188 1013.1 15.8281 1012.89 16.0469C1012.67 16.276 1012.34 16.9583 1011.89 18.0938C1011.46 19.1771 1011.07 19.9271 1010.72 20.3438C1010.36 20.7604 1009.82 21.1406 1009.08 21.4844C1010.29 21.8073 1011.47 22.9323 1012.64 24.8594L1015.72 30H1012.62L1009.62 24.8594C1009.01 23.8281 1008.47 23.151 1008.02 22.8281C1007.56 22.4948 1007.01 22.3281 1006.38 22.3281V30H1003.56V13.4062ZM1016.91 21.7031C1016.91 18.6302 1017.76 16.3542 1019.47 14.875C1020.9 13.6458 1022.64 13.0312 1024.69 13.0312C1026.97 13.0312 1028.83 13.7812 1030.28 15.2812C1031.73 16.7708 1032.45 18.8333 1032.45 21.4688C1032.45 23.6042 1032.13 25.2865 1031.48 26.5156C1030.85 27.7344 1029.92 28.6823 1028.69 29.3594C1027.47 30.0365 1026.14 30.375 1024.69 30.375C1022.36 30.375 1020.48 29.6302 1019.05 28.1406C1017.62 26.651 1016.91 24.5052 1016.91 21.7031ZM1019.8 21.7031C1019.8 23.8281 1020.26 25.4219 1021.19 26.4844C1022.11 27.5365 1023.28 28.0625 1024.69 28.0625C1026.08 28.0625 1027.24 27.5312 1028.17 26.4688C1029.1 25.4062 1029.56 23.7865 1029.56 21.6094C1029.56 19.5573 1029.09 18.0052 1028.16 16.9531C1027.23 15.8906 1026.07 15.3594 1024.69 15.3594C1023.28 15.3594 1022.11 15.8854 1021.19 16.9375C1020.26 17.9896 1019.8 19.5781 1019.8 21.7031ZM1035.77 13.4062H1038.58V26.0625L1046.38 13.4062H1049.41V30H1046.59V17.4219L1038.8 30H1035.77V13.4062ZM1045.53 7.125H1047.45C1047.3 8.42708 1046.82 9.42708 1046.02 10.125C1045.22 10.8229 1044.17 11.1719 1042.84 11.1719C1041.51 11.1719 1040.44 10.8281 1039.64 10.1406C1038.85 9.44271 1038.38 8.4375 1038.22 7.125H1040.14C1040.29 7.83333 1040.57 8.36458 1041 8.71875C1041.44 9.0625 1042.02 9.23438 1042.75 9.23438C1043.59 9.23438 1044.23 9.06771 1044.66 8.73438C1045.09 8.39062 1045.39 7.85417 1045.53 7.125ZM1058.91 24.3594C1058.9 23.9844 1058.89 23.7031 1058.89 23.5156C1058.89 22.4115 1059.05 21.4583 1059.36 20.6562C1059.59 20.0521 1059.96 19.4427 1060.47 18.8281C1060.84 18.3802 1061.52 17.7292 1062.48 16.875C1063.46 16.0104 1064.1 15.3229 1064.39 14.8125C1064.68 14.3021 1064.83 13.7448 1064.83 13.1406C1064.83 12.0469 1064.4 11.0885 1063.55 10.2656C1062.69 9.43229 1061.65 9.01562 1060.41 9.01562C1059.21 9.01562 1058.21 9.39062 1057.41 10.1406C1056.6 10.8906 1056.08 12.0625 1055.83 13.6562L1052.94 13.3125C1053.2 11.1771 1053.97 9.54167 1055.25 8.40625C1056.54 7.27083 1058.24 6.70312 1060.36 6.70312C1062.6 6.70312 1064.39 7.3125 1065.72 8.53125C1067.05 9.75 1067.72 11.224 1067.72 12.9531C1067.72 13.9531 1067.48 14.875 1067.02 15.7188C1066.55 16.5625 1065.63 17.5885 1064.27 18.7969C1063.35 19.6094 1062.75 20.2083 1062.47 20.5938C1062.19 20.9792 1061.98 21.4219 1061.84 21.9219C1061.71 22.4219 1061.63 23.2344 1061.61 24.3594H1058.91ZM1058.73 30V26.7969H1061.94V30H1058.73Z" fill="white"/>
<path id="&#208;&#147;&#208;&#180;&#208;&#181;?" d="M261.516 297.094H276.328V299.797H264.547V320H261.516V297.094ZM278.516 303.406H290.078V317.688H291.875V324.703H289.562V320H276.5V324.703H274.188V317.688H275.672C277.651 315 278.599 310.24 278.516 303.406ZM280.859 305.734C280.651 311.12 279.818 315.104 278.359 317.688H287.281V305.734H280.859ZM306.344 314.656L309.25 315.016C308.792 316.714 307.943 318.031 306.703 318.969C305.464 319.906 303.88 320.375 301.953 320.375C299.526 320.375 297.599 319.63 296.172 318.141C294.755 316.641 294.047 314.542 294.047 311.844C294.047 309.052 294.766 306.885 296.203 305.344C297.641 303.802 299.505 303.031 301.797 303.031C304.016 303.031 305.828 303.786 307.234 305.297C308.641 306.807 309.344 308.932 309.344 311.672C309.344 311.839 309.339 312.089 309.328 312.422H296.953C297.057 314.245 297.573 315.641 298.5 316.609C299.427 317.578 300.583 318.062 301.969 318.062C303 318.062 303.88 317.792 304.609 317.25C305.339 316.708 305.917 315.844 306.344 314.656ZM297.109 310.109H306.375C306.25 308.714 305.896 307.667 305.312 306.969C304.417 305.885 303.255 305.344 301.828 305.344C300.536 305.344 299.448 305.776 298.562 306.641C297.688 307.505 297.203 308.661 297.109 310.109ZM318.062 314.359C318.052 313.984 318.047 313.703 318.047 313.516C318.047 312.411 318.203 311.458 318.516 310.656C318.745 310.052 319.115 309.443 319.625 308.828C320 308.38 320.672 307.729 321.641 306.875C322.62 306.01 323.255 305.323 323.547 304.812C323.839 304.302 323.984 303.745 323.984 303.141C323.984 302.047 323.557 301.089 322.703 300.266C321.849 299.432 320.802 299.016 319.562 299.016C318.365 299.016 317.365 299.391 316.562 300.141C315.76 300.891 315.234 302.062 314.984 303.656L312.094 303.312C312.354 301.177 313.125 299.542 314.406 298.406C315.698 297.271 317.401 296.703 319.516 296.703C321.755 296.703 323.542 297.312 324.875 298.531C326.208 299.75 326.875 301.224 326.875 302.953C326.875 303.953 326.641 304.875 326.172 305.719C325.703 306.562 324.786 307.589 323.422 308.797C322.505 309.609 321.906 310.208 321.625 310.594C321.344 310.979 321.135 311.422 321 311.922C320.865 312.422 320.786 313.234 320.766 314.359H318.062ZM317.891 320V316.797H321.094V320H317.891Z" fill="white"/>
</g>
</svg>
