<svg width="1343" height="343" viewBox="0 0 1343 343" fill="none" xmlns="http://www.w3.org/2000/svg">
<g id="samolet">
<path id="podlejaschee" d="M1047 234L1340 234" stroke="#FFFFAB" stroke-width="5" stroke-linecap="round"/>
<path id="vtorostepennie2" d="M380 245L396.563 237.5C407.09 232.733 419.16 232.733 429.688 237.5V237.5C440.215 242.267 452.285 242.267 462.813 237.5V237.5C473.34 232.733 485.41 232.733 495.938 237.5V237.5C506.465 242.267 518.535 242.267 529.063 237.5V237.5C539.59 232.733 551.66 232.733 562.188 237.5V237.5C572.715 242.267 584.785 242.267 595.313 237.5V237.5C605.84 232.733 617.91 232.733 628.438 237.5L645 245" stroke="#FFFFAB" stroke-width="5" stroke-linecap="round"/>
<path id="vtorostepennie1" d="M3 249L26.3739 240.039C36.5148 236.151 47.7352 236.151 57.8761 240.039L65.4989 242.961C75.6398 246.849 86.8602 246.849 97.0011 242.961L104.624 240.039C114.765 236.151 125.985 236.151 136.126 240.039L143.749 242.961C153.89 246.849 165.11 246.849 175.251 242.961L182.874 240.039C193.015 236.151 204.235 236.151 214.376 240.039L221.999 242.961C232.14 246.849 243.36 246.849 253.501 242.961L261.124 240.039C271.265 236.151 282.485 236.151 292.626 240.039L316 249" stroke="#FFFFAB" stroke-width="5" stroke-linecap="round"/>
<g id="skazuemoe">
<path id="Line 2" d="M689 238H1003" stroke="#FFFFAB" stroke-width="5" stroke-linecap="round"/>
<path id="Line 3" d="M689 254H1003" stroke="#FFFFAB" stroke-width="5" stroke-linecap="round"/>
</g>
<path id="Vector 1" d="M483.879 113.121C485.05 114.293 486.95 114.293 488.121 113.121L507.213 94.0294C508.385 92.8579 508.385 90.9584 507.213 89.7868C506.042 88.6152 504.142 88.6152 502.971 89.7868L486 106.757L469.029 89.7868C467.858 88.6152 465.958 88.6152 464.787 89.7868C463.615 90.9584 463.615 92.8579 464.787 94.0294L483.879 113.121ZM486 55V52L483 52V55H486ZM820 55H823V52L820 52V55ZM489 111V55H483V111H489ZM486 58L820 58V52L486 52V58ZM817 55V135H823V55H817Z" fill="#FFFFAB"/>
<path id="Vector 2" d="M160.621 278.879C159.45 277.707 157.55 277.707 156.379 278.879L137.287 297.971C136.115 299.142 136.115 301.042 137.287 302.213C138.458 303.385 140.358 303.385 141.529 302.213L158.5 285.243L175.471 302.213C176.642 303.385 178.542 303.385 179.713 302.213C180.885 301.042 180.885 299.142 179.713 297.971L160.621 278.879ZM158.5 340H155.5V343H158.5V340ZM835 340V343H838V340H835ZM155.5 281V340H161.5V281H155.5ZM158.5 343H835V337H158.5V343ZM838 340V262H832V340H838Z" fill="#FFFFAB"/>
<path id="&#208;&#147;&#208;&#180;&#208;&#181;?" d="M634.516 7.09375H649.328V9.79688H637.547V30H634.516V7.09375ZM651.516 13.4062H663.078V27.6875H664.875V34.7031H662.562V30H649.5V34.7031H647.188V27.6875H648.672C650.651 25 651.599 20.2396 651.516 13.4062ZM653.859 15.7344C653.651 21.1198 652.818 25.1042 651.359 27.6875H660.281V15.7344H653.859ZM679.344 24.6562L682.25 25.0156C681.792 26.7135 680.943 28.0312 679.703 28.9688C678.464 29.9062 676.88 30.375 674.953 30.375C672.526 30.375 670.599 29.6302 669.172 28.1406C667.755 26.6406 667.047 24.5417 667.047 21.8438C667.047 19.0521 667.766 16.8854 669.203 15.3438C670.641 13.8021 672.505 13.0312 674.797 13.0312C677.016 13.0312 678.828 13.7865 680.234 15.2969C681.641 16.8073 682.344 18.9323 682.344 21.6719C682.344 21.8385 682.339 22.0885 682.328 22.4219H669.953C670.057 24.2448 670.573 25.6406 671.5 26.6094C672.427 27.5781 673.583 28.0625 674.969 28.0625C676 28.0625 676.88 27.7917 677.609 27.25C678.339 26.7083 678.917 25.8438 679.344 24.6562ZM670.109 20.1094H679.375C679.25 18.7135 678.896 17.6667 678.312 16.9688C677.417 15.8854 676.255 15.3438 674.828 15.3438C673.536 15.3438 672.448 15.776 671.562 16.6406C670.688 17.5052 670.203 18.6615 670.109 20.1094ZM691.062 24.3594C691.052 23.9844 691.047 23.7031 691.047 23.5156C691.047 22.4115 691.203 21.4583 691.516 20.6562C691.745 20.0521 692.115 19.4427 692.625 18.8281C693 18.3802 693.672 17.7292 694.641 16.875C695.62 16.0104 696.255 15.3229 696.547 14.8125C696.839 14.3021 696.984 13.7448 696.984 13.1406C696.984 12.0469 696.557 11.0885 695.703 10.2656C694.849 9.43229 693.802 9.01562 692.562 9.01562C691.365 9.01562 690.365 9.39062 689.562 10.1406C688.76 10.8906 688.234 12.0625 687.984 13.6562L685.094 13.3125C685.354 11.1771 686.125 9.54167 687.406 8.40625C688.698 7.27083 690.401 6.70312 692.516 6.70312C694.755 6.70312 696.542 7.3125 697.875 8.53125C699.208 9.75 699.875 11.224 699.875 12.9531C699.875 13.9531 699.641 14.875 699.172 15.7188C698.703 16.5625 697.786 17.5885 696.422 18.7969C695.505 19.6094 694.906 20.2083 694.625 20.5938C694.344 20.9792 694.135 21.4219 694 21.9219C693.865 22.4219 693.786 23.2344 693.766 24.3594H691.062ZM690.891 30V26.7969H694.094V30H690.891Z" fill="white"/>
<path id="&#208;&#154;&#208;&#176;&#208;&#186;?" d="M443.516 298.094H446.547V308.125C447.932 308.125 448.906 307.859 449.469 307.328C450.031 306.786 450.75 305.495 451.625 303.453C452.26 301.953 452.781 300.896 453.188 300.281C453.604 299.656 454.193 299.135 454.953 298.719C455.714 298.292 456.552 298.078 457.469 298.078C458.635 298.078 459.25 298.089 459.312 298.109V300.734C459.208 300.734 459.005 300.729 458.703 300.719C458.37 300.708 458.167 300.703 458.094 300.703C457.125 300.703 456.406 300.938 455.938 301.406C455.458 301.875 454.911 302.875 454.297 304.406C453.526 306.344 452.875 307.568 452.344 308.078C451.812 308.578 451.177 308.979 450.438 309.281C451.917 309.688 453.375 311.052 454.812 313.375L459.531 321H455.766L451.938 314.781C450.885 313.062 450.005 311.885 449.297 311.25C448.589 310.604 447.672 310.281 446.547 310.281V321H443.516V298.094ZM472.594 318.953C471.552 319.839 470.547 320.464 469.578 320.828C468.62 321.193 467.589 321.375 466.484 321.375C464.661 321.375 463.26 320.932 462.281 320.047C461.302 319.151 460.812 318.01 460.812 316.625C460.812 315.812 460.995 315.073 461.359 314.406C461.734 313.729 462.219 313.188 462.812 312.781C463.417 312.375 464.094 312.068 464.844 311.859C465.396 311.714 466.229 311.573 467.344 311.438C469.615 311.167 471.286 310.844 472.359 310.469C472.37 310.083 472.375 309.839 472.375 309.734C472.375 308.589 472.109 307.781 471.578 307.312C470.859 306.677 469.792 306.359 468.375 306.359C467.052 306.359 466.073 306.594 465.438 307.062C464.812 307.521 464.349 308.339 464.047 309.516L461.297 309.141C461.547 307.964 461.958 307.016 462.531 306.297C463.104 305.568 463.932 305.01 465.016 304.625C466.099 304.229 467.354 304.031 468.781 304.031C470.198 304.031 471.349 304.198 472.234 304.531C473.12 304.865 473.771 305.286 474.188 305.797C474.604 306.297 474.896 306.932 475.062 307.703C475.156 308.182 475.203 309.047 475.203 310.297V314.047C475.203 316.661 475.26 318.318 475.375 319.016C475.5 319.703 475.74 320.365 476.094 321H473.156C472.865 320.417 472.677 319.734 472.594 318.953ZM472.359 312.672C471.339 313.089 469.807 313.443 467.766 313.734C466.609 313.901 465.792 314.089 465.312 314.297C464.833 314.505 464.464 314.812 464.203 315.219C463.943 315.615 463.812 316.057 463.812 316.547C463.812 317.297 464.094 317.922 464.656 318.422C465.229 318.922 466.062 319.172 467.156 319.172C468.24 319.172 469.203 318.938 470.047 318.469C470.891 317.99 471.51 317.339 471.906 316.516C472.208 315.88 472.359 314.943 472.359 313.703V312.672ZM479.562 304.406H482.375V311.578C483.271 311.578 483.896 311.406 484.25 311.062C484.615 310.719 485.146 309.719 485.844 308.062C486.396 306.75 486.844 305.885 487.188 305.469C487.531 305.052 487.927 304.771 488.375 304.625C488.823 304.479 489.542 304.406 490.531 304.406H491.094V306.734L490.312 306.719C489.573 306.719 489.099 306.828 488.891 307.047C488.672 307.276 488.339 307.958 487.891 309.094C487.464 310.177 487.073 310.927 486.719 311.344C486.365 311.76 485.818 312.141 485.078 312.484C486.286 312.807 487.474 313.932 488.641 315.859L491.719 321H488.625L485.625 315.859C485.01 314.828 484.474 314.151 484.016 313.828C483.557 313.495 483.01 313.328 482.375 313.328V321H479.562V304.406ZM498.844 315.359C498.833 314.984 498.828 314.703 498.828 314.516C498.828 313.411 498.984 312.458 499.297 311.656C499.526 311.052 499.896 310.443 500.406 309.828C500.781 309.38 501.453 308.729 502.422 307.875C503.401 307.01 504.036 306.323 504.328 305.812C504.62 305.302 504.766 304.745 504.766 304.141C504.766 303.047 504.339 302.089 503.484 301.266C502.63 300.432 501.583 300.016 500.344 300.016C499.146 300.016 498.146 300.391 497.344 301.141C496.542 301.891 496.016 303.062 495.766 304.656L492.875 304.312C493.135 302.177 493.906 300.542 495.188 299.406C496.479 298.271 498.182 297.703 500.297 297.703C502.536 297.703 504.323 298.312 505.656 299.531C506.99 300.75 507.656 302.224 507.656 303.953C507.656 304.953 507.422 305.875 506.953 306.719C506.484 307.562 505.568 308.589 504.203 309.797C503.286 310.609 502.688 311.208 502.406 311.594C502.125 311.979 501.917 312.422 501.781 312.922C501.646 313.422 501.568 314.234 501.547 315.359H498.844ZM498.672 321V317.797H501.875V321H498.672Z" fill="white"/>
</g>
</svg>
