<svg width="1333" height="346" viewBox="0 0 1333 346" fill="none" xmlns="http://www.w3.org/2000/svg">
<g id="sobaka">
<path id="podlejaschee" d="M359 245L652 245" stroke="#FFFFAB" stroke-width="5" stroke-linecap="round"/>
<path id="vtorostepennie2" d="M1065 256L1081.56 248.5C1092.09 243.733 1104.16 243.733 1114.69 248.5V248.5C1125.21 253.267 1137.29 253.267 1147.81 248.5V248.5C1158.34 243.733 1170.41 243.733 1180.94 248.5V248.5C1191.46 253.267 1203.54 253.267 1214.06 248.5V248.5C1224.59 243.733 1236.66 243.733 1247.19 248.5V248.5C1257.71 253.267 1269.79 253.267 1280.31 248.5V248.5C1290.84 243.733 1302.91 243.733 1313.44 248.5L1330 256" stroke="#FFFFAB" stroke-width="5" stroke-linecap="round"/>
<path id="vtorostepennie1" d="M3 252L26.3739 243.039C36.5148 239.151 47.7352 239.151 57.8761 243.039L65.4989 245.961C75.6398 249.849 86.8602 249.849 97.0011 245.961L104.624 243.039C114.765 239.151 125.985 239.151 136.126 243.039L143.749 245.961C153.89 249.849 165.11 249.849 175.251 245.961L182.874 243.039C193.015 239.151 204.235 239.151 214.376 243.039L221.999 245.961C232.14 249.849 243.36 249.849 253.501 245.961L261.124 243.039C271.265 239.151 282.485 239.151 292.626 243.039L316 252" stroke="#FFFFAB" stroke-width="5" stroke-linecap="round"/>
<g id="skazuemoe">
<path id="Line 2" d="M689 241H1003" stroke="#FFFFAB" stroke-width="5" stroke-linecap="round"/>
<path id="Line 3" d="M689 257H1003" stroke="#FFFFAB" stroke-width="5" stroke-linecap="round"/>
</g>
<path id="Vector 1" d="M861 59V56L858 56V59H861ZM1195 59H1198V56L1195 56V59ZM1192.88 117.121C1194.05 118.293 1195.95 118.293 1197.12 117.121L1216.21 98.0294C1217.38 96.8579 1217.38 94.9584 1216.21 93.7868C1215.04 92.6152 1213.14 92.6152 1211.97 93.7868L1195 110.757L1178.03 93.7868C1176.86 92.6152 1174.96 92.6152 1173.79 93.7868C1172.62 94.9584 1172.62 96.8579 1173.79 98.0294L1192.88 117.121ZM864 141V59H858V141H864ZM861 62L1195 62V56L861 56V62ZM1192 59V115H1198V59H1192Z" fill="#FFFFAB"/>
<path id="Vector 2" d="M133.121 279.879C131.95 278.707 130.05 278.707 128.879 279.879L109.787 298.971C108.615 300.142 108.615 302.042 109.787 303.213C110.958 304.385 112.858 304.385 114.029 303.213L131 286.243L147.971 303.213C149.142 304.385 151.042 304.385 152.213 303.213C153.385 302.042 153.385 300.142 152.213 298.971L133.121 279.879ZM131 343H128V346H131V343ZM493 343V346H496V343H493ZM128 282V343H134V282H128ZM131 346H493V340H131V346ZM496 343V264.5H490V343H496Z" fill="#FFFFAB"/>
<path id="&#208;&#147;&#208;&#180;&#208;&#181;?" d="M967.516 7.09375H982.328V9.79688H970.547V30H967.516V7.09375ZM984.516 13.4062H996.078V27.6875H997.875V34.7031H995.562V30H982.5V34.7031H980.188V27.6875H981.672C983.651 25 984.599 20.2396 984.516 13.4062ZM986.859 15.7344C986.651 21.1198 985.818 25.1042 984.359 27.6875H993.281V15.7344H986.859ZM1012.34 24.6562L1015.25 25.0156C1014.79 26.7135 1013.94 28.0312 1012.7 28.9688C1011.46 29.9062 1009.88 30.375 1007.95 30.375C1005.53 30.375 1003.6 29.6302 1002.17 28.1406C1000.76 26.6406 1000.05 24.5417 1000.05 21.8438C1000.05 19.0521 1000.77 16.8854 1002.2 15.3438C1003.64 13.8021 1005.51 13.0312 1007.8 13.0312C1010.02 13.0312 1011.83 13.7865 1013.23 15.2969C1014.64 16.8073 1015.34 18.9323 1015.34 21.6719C1015.34 21.8385 1015.34 22.0885 1015.33 22.4219H1002.95C1003.06 24.2448 1003.57 25.6406 1004.5 26.6094C1005.43 27.5781 1006.58 28.0625 1007.97 28.0625C1009 28.0625 1009.88 27.7917 1010.61 27.25C1011.34 26.7083 1011.92 25.8438 1012.34 24.6562ZM1003.11 20.1094H1012.38C1012.25 18.7135 1011.9 17.6667 1011.31 16.9688C1010.42 15.8854 1009.26 15.3438 1007.83 15.3438C1006.54 15.3438 1005.45 15.776 1004.56 16.6406C1003.69 17.5052 1003.2 18.6615 1003.11 20.1094ZM1024.06 24.3594C1024.05 23.9844 1024.05 23.7031 1024.05 23.5156C1024.05 22.4115 1024.2 21.4583 1024.52 20.6562C1024.74 20.0521 1025.11 19.4427 1025.62 18.8281C1026 18.3802 1026.67 17.7292 1027.64 16.875C1028.62 16.0104 1029.26 15.3229 1029.55 14.8125C1029.84 14.3021 1029.98 13.7448 1029.98 13.1406C1029.98 12.0469 1029.56 11.0885 1028.7 10.2656C1027.85 9.43229 1026.8 9.01562 1025.56 9.01562C1024.36 9.01562 1023.36 9.39062 1022.56 10.1406C1021.76 10.8906 1021.23 12.0625 1020.98 13.6562L1018.09 13.3125C1018.35 11.1771 1019.12 9.54167 1020.41 8.40625C1021.7 7.27083 1023.4 6.70312 1025.52 6.70312C1027.76 6.70312 1029.54 7.3125 1030.88 8.53125C1032.21 9.75 1032.88 11.224 1032.88 12.9531C1032.88 13.9531 1032.64 14.875 1032.17 15.7188C1031.7 16.5625 1030.79 17.5885 1029.42 18.7969C1028.51 19.6094 1027.91 20.2083 1027.62 20.5938C1027.34 20.9792 1027.14 21.4219 1027 21.9219C1026.86 22.4219 1026.79 23.2344 1026.77 24.3594H1024.06ZM1023.89 30V26.7969H1027.09V30H1023.89Z" fill="white"/>
</g>
</svg>
