<svg width="1000" height="1000" viewBox="0 0 1000 1000" fill="none" xmlns="http://www.w3.org/2000/svg">
<g id="PravopisOkonchEnd_2">
<rect width="1000" height="1000" fill="white"/>
<rect id="backgroundFon" x="72" y="44" width="863" height="887" rx="35" stroke="#0BCB78" stroke-width="6" stroke-dasharray="14 14"/>
<rect id="bgWord" x="129" y="353" width="750" height="147" rx="22" fill="#B8ECFF"/>
<text id="title" fill="#505F9A" xml:space="preserve" style="white-space: pre" font-family="Arial" font-size="40" letter-spacing="0em"><tspan x="224" y="433.867">&#x41b;&#x44f;&#x433;&#x443;&#x448;&#x43a;&#x430; &#x43e;&#x441;&#x442;&#x430;&#x43b;&#x430;&#x441;&#x44c; &#x434;&#x43e;&#x432;&#x43e;&#x43b;&#x44c;&#x43d;&#x430;!</tspan></text>
<g id="frog">
<path id="Ellipse 1" d="M324.761 236.903C322.257 242.89 324.472 250.439 330.594 257.927C336.685 265.377 346.483 272.54 358.561 277.593C370.638 282.646 382.618 284.594 392.2 283.7C401.83 282.802 408.761 279.08 411.266 273.094C413.77 267.107 411.554 259.558 405.432 252.07C399.342 244.62 389.544 237.456 377.466 232.404C365.388 227.351 353.408 225.403 343.827 226.297C334.197 227.195 327.266 230.917 324.761 236.903Z" fill="#A0CB6C" stroke="#7D6262" stroke-width="2"/>
<g id="Ellipse 3">
<mask id="path-5-inside-1_9_87" fill="white">
<path d="M323.911 237.177C322.619 240.265 322.478 243.8 323.498 247.579C324.517 251.358 326.676 255.307 329.852 259.202C333.027 263.096 337.157 266.86 342.005 270.277C346.854 273.694 352.326 276.698 358.109 279.117C363.892 281.537 369.872 283.324 375.71 284.377C381.547 285.431 387.126 285.729 392.129 285.256C397.132 284.783 401.46 283.548 404.867 281.62C408.273 279.693 410.692 277.111 411.984 274.023L367.947 255.6L323.911 237.177Z"/>
</mask>
<path d="M323.911 237.177C322.619 240.265 322.478 243.8 323.498 247.579C324.517 251.358 326.676 255.307 329.852 259.202C333.027 263.096 337.157 266.86 342.005 270.277C346.854 273.694 352.326 276.698 358.109 279.117C363.892 281.537 369.872 283.324 375.71 284.377C381.547 285.431 387.126 285.729 392.129 285.256C397.132 284.783 401.46 283.548 404.867 281.62C408.273 279.693 410.692 277.111 411.984 274.023L367.947 255.6L323.911 237.177Z" fill="#F1EE9F" stroke="#7D6262" stroke-width="4" mask="url(#path-5-inside-1_9_87)"/>
</g>
<path id="Subtract" fill-rule="evenodd" clip-rule="evenodd" d="M327.018 235.306C336.848 228.62 356.012 228.885 375.31 236.959C395.264 245.307 409.173 259.414 410.57 271.373C414.004 259.075 399.6 242.19 377.275 232.85C355.556 223.764 334.015 225.029 327.018 235.306Z" fill="#D5F276"/>
<circle id="Ellipse 2" cx="12.0573" cy="12.0573" r="11.0573" transform="matrix(-1 0 0 1 368.358 215.726)" fill="#A0CB6C" stroke="#7D6262" stroke-width="2"/>
<path id="Subtract_2" fill-rule="evenodd" clip-rule="evenodd" d="M346.999 224.108C348.872 222.069 351.56 220.792 354.546 220.792C360.204 220.792 364.791 225.379 364.791 231.037C364.791 231.891 364.687 232.72 364.49 233.513C365.625 231.892 366.291 229.918 366.291 227.789C366.291 222.268 361.816 217.793 356.295 217.793C352.075 217.793 348.465 220.409 346.999 224.108Z" fill="#D5F276"/>
<path id="Vector 3" d="M342.521 268.089C334.968 262.922 322.885 250.865 325.296 240.185C325.296 240.185 329.085 249.831 340.109 260.51C351.133 271.19 363.535 278.424 363.535 278.424C356.99 277.046 355.612 277.046 342.521 268.089Z" fill="#CAC770"/>
<circle id="Ellipse 5" cx="1.37798" cy="1.37798" r="1.37798" transform="matrix(-1 0 0 1 353.889 228.128)" fill="#7D6262"/>
<path id="Vector 1" d="M323.574 284.97C323.574 284.97 324.263 277.735 341.487 279.113L355.612 250.865C362.157 240.874 376.281 248.109 373.525 254.998L348.033 284.97H323.574Z" fill="#A0CB6C" stroke="#7D6262" stroke-width="2" stroke-linecap="round"/>
<path id="Vector 2" d="M343.554 284.969L409.353 284.969C415.209 250.176 351.822 240.185 362.846 278.424C357.058 277.322 343.554 279.457 343.554 284.969Z" fill="#A0CB6C" stroke="#7D6262" stroke-width="2" stroke-linecap="round"/>
<path id="Subtract_3" fill-rule="evenodd" clip-rule="evenodd" d="M367.669 259.886C372.423 256.067 381.69 256.218 391.023 260.831C400.673 265.6 407.399 273.659 408.075 280.491C409.736 273.465 402.77 263.819 391.973 258.483C381.47 253.293 371.053 254.015 367.669 259.886Z" fill="#D5F276"/>
<path id="Vector 4" d="M344.932 283.936H408.664C409.008 280.836 387.871 281.18 377.659 281.18C367.324 281.18 345.966 281.525 344.932 283.936Z" fill="#7B9C53"/>
</g>
<g id="frog_2">
<path id="Ellipse 1_2" d="M460.761 241.903C458.257 247.89 460.472 255.439 466.594 262.927C472.685 270.377 482.483 277.54 494.561 282.593C506.638 287.646 518.618 289.594 528.2 288.7C537.83 287.802 544.761 284.08 547.266 278.094C549.77 272.107 547.554 264.558 541.432 257.07C535.342 249.62 525.544 242.456 513.466 237.404C501.388 232.351 489.408 230.403 479.827 231.297C470.197 232.195 463.266 235.917 460.761 241.903Z" fill="#A0CB6C" stroke="#7D6262" stroke-width="2"/>
<g id="Ellipse 3_2">
<mask id="path-16-inside-2_9_87" fill="white">
<path d="M459.911 242.177C458.619 245.265 458.478 248.8 459.498 252.579C460.517 256.358 462.676 260.307 465.852 264.202C469.027 268.096 473.157 271.86 478.005 275.277C482.854 278.694 488.326 281.698 494.109 284.117C499.892 286.537 505.872 288.324 511.71 289.377C517.547 290.431 523.126 290.729 528.129 290.256C533.132 289.783 537.46 288.548 540.867 286.62C544.273 284.693 546.692 282.111 547.984 279.023L503.947 260.6L459.911 242.177Z"/>
</mask>
<path d="M459.911 242.177C458.619 245.265 458.478 248.8 459.498 252.579C460.517 256.358 462.676 260.307 465.852 264.202C469.027 268.096 473.157 271.86 478.005 275.277C482.854 278.694 488.326 281.698 494.109 284.117C499.892 286.537 505.872 288.324 511.71 289.377C517.547 290.431 523.126 290.729 528.129 290.256C533.132 289.783 537.46 288.548 540.867 286.62C544.273 284.693 546.692 282.111 547.984 279.023L503.947 260.6L459.911 242.177Z" fill="#F1EE9F" stroke="#7D6262" stroke-width="4" mask="url(#path-16-inside-2_9_87)"/>
</g>
<path id="Subtract_4" fill-rule="evenodd" clip-rule="evenodd" d="M463.018 240.306C472.848 233.62 492.012 233.885 511.31 241.959C531.264 250.307 545.173 264.414 546.57 276.373C550.004 264.075 535.6 247.19 513.275 237.85C491.556 228.764 470.015 230.029 463.018 240.306Z" fill="#D5F276"/>
<circle id="Ellipse 2_2" cx="12.0573" cy="12.0573" r="11.0573" transform="matrix(-1 0 0 1 504.358 220.726)" fill="#A0CB6C" stroke="#7D6262" stroke-width="2"/>
<path id="Subtract_5" fill-rule="evenodd" clip-rule="evenodd" d="M482.999 229.108C484.872 227.069 487.56 225.792 490.546 225.792C496.204 225.792 500.791 230.379 500.791 236.037C500.791 236.891 500.687 237.72 500.49 238.513C501.625 236.892 502.291 234.918 502.291 232.789C502.291 227.268 497.816 222.793 492.295 222.793C488.075 222.793 484.465 225.409 482.999 229.108Z" fill="#D5F276"/>
<path id="Vector 3_2" d="M478.521 273.089C470.968 267.922 458.885 255.865 461.296 245.185C461.296 245.185 465.085 254.831 476.109 265.51C487.133 276.19 499.535 283.424 499.535 283.424C492.99 282.046 491.612 282.046 478.521 273.089Z" fill="#CAC770"/>
<circle id="Ellipse 5_2" cx="1.37798" cy="1.37798" r="1.37798" transform="matrix(-1 0 0 1 489.889 233.128)" fill="#7D6262"/>
<path id="Vector 1_2" d="M459.574 289.97C459.574 289.97 460.263 282.735 477.487 284.113L491.612 255.865C498.157 245.874 512.281 253.109 509.525 259.998L484.033 289.97H459.574Z" fill="#A0CB6C" stroke="#7D6262" stroke-width="2" stroke-linecap="round"/>
<path id="Vector 2_2" d="M479.554 289.969L545.353 289.969C551.209 255.176 487.822 245.185 498.846 283.424C493.058 282.322 479.554 284.457 479.554 289.969Z" fill="#A0CB6C" stroke="#7D6262" stroke-width="2" stroke-linecap="round"/>
<path id="Subtract_6" fill-rule="evenodd" clip-rule="evenodd" d="M503.669 264.886C508.423 261.067 517.69 261.218 527.023 265.831C536.673 270.6 543.399 278.659 544.075 285.491C545.736 278.465 538.77 268.819 527.973 263.483C517.47 258.293 507.053 259.015 503.669 264.886Z" fill="#D5F276"/>
<path id="Vector 4_2" d="M480.932 288.936H544.664C545.008 285.836 523.871 286.18 513.659 286.18C503.324 286.18 481.966 286.525 480.932 288.936Z" fill="#7B9C53"/>
</g>
<g id="frog_3">
<path id="Ellipse 1_3" d="M596.761 241.903C594.257 247.89 596.472 255.439 602.594 262.927C608.685 270.377 618.483 277.54 630.561 282.593C642.638 287.646 654.618 289.594 664.2 288.7C673.83 287.802 680.761 284.08 683.266 278.094C685.77 272.107 683.554 264.558 677.432 257.07C671.342 249.62 661.544 242.456 649.466 237.404C637.388 232.351 625.408 230.403 615.827 231.297C606.197 232.195 599.266 235.917 596.761 241.903Z" fill="#A0CB6C" stroke="#7D6262" stroke-width="2"/>
<g id="Ellipse 3_3">
<mask id="path-27-inside-3_9_87" fill="white">
<path d="M595.911 242.177C594.619 245.265 594.478 248.8 595.498 252.579C596.517 256.358 598.676 260.307 601.852 264.202C605.027 268.096 609.157 271.86 614.005 275.277C618.854 278.694 624.326 281.698 630.109 284.117C635.892 286.537 641.872 288.324 647.71 289.377C653.547 290.431 659.126 290.729 664.129 290.256C669.132 289.783 673.46 288.548 676.867 286.62C680.273 284.693 682.692 282.111 683.984 279.023L639.947 260.6L595.911 242.177Z"/>
</mask>
<path d="M595.911 242.177C594.619 245.265 594.478 248.8 595.498 252.579C596.517 256.358 598.676 260.307 601.852 264.202C605.027 268.096 609.157 271.86 614.005 275.277C618.854 278.694 624.326 281.698 630.109 284.117C635.892 286.537 641.872 288.324 647.71 289.377C653.547 290.431 659.126 290.729 664.129 290.256C669.132 289.783 673.46 288.548 676.867 286.62C680.273 284.693 682.692 282.111 683.984 279.023L639.947 260.6L595.911 242.177Z" fill="#F1EE9F" stroke="#7D6262" stroke-width="4" mask="url(#path-27-inside-3_9_87)"/>
</g>
<path id="Subtract_7" fill-rule="evenodd" clip-rule="evenodd" d="M599.018 240.306C608.848 233.62 628.012 233.885 647.31 241.959C667.264 250.307 681.173 264.414 682.57 276.373C686.004 264.075 671.6 247.19 649.275 237.85C627.556 228.764 606.015 230.029 599.018 240.306Z" fill="#D5F276"/>
<circle id="Ellipse 2_3" cx="12.0573" cy="12.0573" r="11.0573" transform="matrix(-1 0 0 1 640.358 220.726)" fill="#A0CB6C" stroke="#7D6262" stroke-width="2"/>
<path id="Subtract_8" fill-rule="evenodd" clip-rule="evenodd" d="M618.999 229.108C620.872 227.069 623.56 225.792 626.546 225.792C632.204 225.792 636.791 230.379 636.791 236.037C636.791 236.891 636.687 237.72 636.49 238.513C637.625 236.892 638.291 234.918 638.291 232.789C638.291 227.268 633.816 222.793 628.295 222.793C624.075 222.793 620.465 225.409 618.999 229.108Z" fill="#D5F276"/>
<path id="Vector 3_3" d="M614.521 273.089C606.968 267.922 594.885 255.865 597.296 245.185C597.296 245.185 601.085 254.831 612.109 265.51C623.133 276.19 635.535 283.424 635.535 283.424C628.99 282.046 627.612 282.046 614.521 273.089Z" fill="#CAC770"/>
<circle id="Ellipse 5_3" cx="1.37798" cy="1.37798" r="1.37798" transform="matrix(-1 0 0 1 625.889 233.128)" fill="#7D6262"/>
<path id="Vector 1_3" d="M595.574 289.97C595.574 289.97 596.263 282.735 613.487 284.113L627.612 255.865C634.157 245.874 648.281 253.109 645.525 259.998L620.033 289.97H595.574Z" fill="#A0CB6C" stroke="#7D6262" stroke-width="2" stroke-linecap="round"/>
<path id="Vector 2_3" d="M615.554 289.969L681.353 289.969C687.209 255.176 623.822 245.185 634.846 283.424C629.058 282.322 615.554 284.457 615.554 289.969Z" fill="#A0CB6C" stroke="#7D6262" stroke-width="2" stroke-linecap="round"/>
<path id="Subtract_9" fill-rule="evenodd" clip-rule="evenodd" d="M639.669 264.886C644.423 261.067 653.69 261.218 663.023 265.831C672.673 270.6 679.399 278.659 680.075 285.491C681.736 278.465 674.77 268.819 663.973 263.483C653.47 258.293 643.053 259.015 639.669 264.886Z" fill="#D5F276"/>
<path id="Vector 4_3" d="M616.932 288.936H680.664C681.008 285.836 659.871 286.18 649.659 286.18C639.324 286.18 617.966 286.525 616.932 288.936Z" fill="#7B9C53"/>
</g>
</g>
</svg>
