<svg width="500" height="333" viewBox="0 0 500 333" fill="none" xmlns="http://www.w3.org/2000/svg">
<g id="busli" clip-path="url(#clip0_20_5)">
<rect width="500" height="333" fill="white"/>
<path id="Rectangle 1" d="M0 0H500V333H0V0Z" fill="#6A87F8"/>
<path id="Polygon 5" d="M2 296.74L113.211 241.54L39.0567 331.5L2 331.5L2 296.74Z" fill="#FFFEFE" stroke="black" stroke-width="4"/>
<path id="Polygon 6" d="M112.5 242L68.5 298.5L45 273L112.5 242Z" fill="#FF4602"/>
<g id="Subtract">
<mask id="path-4-inside-1_20_5" fill="white">
<path fill-rule="evenodd" clip-rule="evenodd" d="M332.098 8C311.516 8.91451 292.594 16.2099 277.261 27.9559L324.281 77.1847C325.484 78.4445 327.611 77.6704 327.723 75.9318L332.098 8ZM270.52 33.6185C256.122 46.8585 245.719 64.3739 241.323 84.1514L309.001 91.6409C310.733 91.8325 311.865 89.8724 310.833 88.4686L270.52 33.6185ZM239.804 92.8217C239.274 96.9403 239 101.139 239 105.402C239 121.594 242.947 136.863 249.931 150.302L306.589 112.536C308.039 111.57 307.646 109.341 305.953 108.929L239.804 92.8217ZM254.339 157.92C265.003 174.569 280.589 187.762 299.043 195.448L318.172 130.094C318.662 128.422 316.928 126.967 315.366 127.739L254.339 157.92ZM307.313 198.459C316.528 201.346 326.332 202.902 336.5 202.902C346.668 202.902 356.472 201.346 365.687 198.459L338.332 136.098C337.632 134.502 335.368 134.502 334.668 136.098L307.313 198.459ZM373.957 195.448C392.411 187.762 407.997 174.569 418.661 157.92L357.634 127.739C356.072 126.967 354.338 128.422 354.828 130.094L373.957 195.448ZM423.069 150.302C430.053 136.863 434 121.594 434 105.402C434 101.139 433.726 96.9403 433.196 92.8217L367.047 108.929C365.354 109.341 364.961 111.57 366.411 112.536L423.069 150.302ZM431.677 84.1514C427.281 64.3739 416.878 46.8585 402.48 33.6185L362.167 88.4686C361.135 89.8724 362.267 91.8325 363.999 91.6409L431.677 84.1514ZM395.739 27.9559C380.406 16.2099 361.484 8.91452 340.902 8L345.277 75.9318C345.389 77.6704 347.516 78.4445 348.719 77.1847L395.739 27.9559Z"/>
</mask>
<path fill-rule="evenodd" clip-rule="evenodd" d="M332.098 8C311.516 8.91451 292.594 16.2099 277.261 27.9559L324.281 77.1847C325.484 78.4445 327.611 77.6704 327.723 75.9318L332.098 8ZM270.52 33.6185C256.122 46.8585 245.719 64.3739 241.323 84.1514L309.001 91.6409C310.733 91.8325 311.865 89.8724 310.833 88.4686L270.52 33.6185ZM239.804 92.8217C239.274 96.9403 239 101.139 239 105.402C239 121.594 242.947 136.863 249.931 150.302L306.589 112.536C308.039 111.57 307.646 109.341 305.953 108.929L239.804 92.8217ZM254.339 157.92C265.003 174.569 280.589 187.762 299.043 195.448L318.172 130.094C318.662 128.422 316.928 126.967 315.366 127.739L254.339 157.92ZM307.313 198.459C316.528 201.346 326.332 202.902 336.5 202.902C346.668 202.902 356.472 201.346 365.687 198.459L338.332 136.098C337.632 134.502 335.368 134.502 334.668 136.098L307.313 198.459ZM373.957 195.448C392.411 187.762 407.997 174.569 418.661 157.92L357.634 127.739C356.072 126.967 354.338 128.422 354.828 130.094L373.957 195.448ZM423.069 150.302C430.053 136.863 434 121.594 434 105.402C434 101.139 433.726 96.9403 433.196 92.8217L367.047 108.929C365.354 109.341 364.961 111.57 366.411 112.536L423.069 150.302ZM431.677 84.1514C427.281 64.3739 416.878 46.8585 402.48 33.6185L362.167 88.4686C361.135 89.8724 362.267 91.8325 363.999 91.6409L431.677 84.1514ZM395.739 27.9559C380.406 16.2099 361.484 8.91452 340.902 8L345.277 75.9318C345.389 77.6704 347.516 78.4445 348.719 77.1847L395.739 27.9559Z" fill="#7C38F2"/>
<path d="M277.261 27.9559L274.828 24.7806L271.287 27.4931L274.368 30.7187L277.261 27.9559ZM332.098 8L336.09 8.25709L336.376 3.80595L331.92 4.00394L332.098 8ZM324.281 77.1847L321.388 79.9475L324.281 77.1847ZM327.723 75.9318L323.731 75.6747L327.723 75.9318ZM241.323 84.1514L237.418 83.2834L236.45 87.6366L240.883 88.1271L241.323 84.1514ZM270.52 33.6185L273.743 31.2496L271.098 27.6518L267.812 30.6742L270.52 33.6185ZM309.001 91.6409L309.441 87.6652H309.441L309.001 91.6409ZM310.833 88.4686L307.61 90.8375L310.833 88.4686ZM239.804 92.8217L240.751 88.9352L236.408 87.8778L235.837 92.3106L239.804 92.8217ZM249.931 150.302L246.381 152.146L248.438 156.104L252.149 153.63L249.931 150.302ZM306.589 112.536L308.808 115.865L308.808 115.865L306.589 112.536ZM305.953 108.929L306.899 105.042H306.899L305.953 108.929ZM299.043 195.448L297.505 199.141L301.628 200.857L302.882 196.572L299.043 195.448ZM254.339 157.92L252.566 154.335L248.561 156.316L250.971 160.078L254.339 157.92ZM318.172 130.094L314.334 128.97L318.172 130.094ZM315.366 127.739L313.593 124.154H313.593L315.366 127.739ZM307.313 198.459L303.65 196.852L301.857 200.941L306.117 202.276L307.313 198.459ZM365.687 198.459L366.883 202.276L371.143 200.941L369.35 196.852L365.687 198.459ZM338.332 136.098L341.995 134.491L341.995 134.491L338.332 136.098ZM334.668 136.098L331.005 134.491L331.005 134.491L334.668 136.098ZM418.661 157.92L422.029 160.078L424.439 156.316L420.434 154.335L418.661 157.92ZM373.957 195.448L370.118 196.572L371.372 200.857L375.495 199.141L373.957 195.448ZM357.634 127.739L359.407 124.154H359.407L357.634 127.739ZM354.828 130.094L350.989 131.217L350.989 131.217L354.828 130.094ZM423.069 150.302L420.851 153.63L424.562 156.104L426.619 152.146L423.069 150.302ZM433.196 92.8217L437.163 92.3106L436.592 87.8778L432.249 88.9352L433.196 92.8217ZM367.047 108.929L367.993 112.815L367.047 108.929ZM366.411 112.536L364.192 115.865L364.192 115.865L366.411 112.536ZM402.48 33.6185L405.188 30.6742L401.902 27.6518L399.257 31.2496L402.48 33.6185ZM431.677 84.1514L432.117 88.1271L436.55 87.6366L435.582 83.2834L431.677 84.1514ZM362.167 88.4686L365.39 90.8375L362.167 88.4686ZM363.999 91.6409L363.559 87.6652H363.559L363.999 91.6409ZM340.902 8L341.08 4.00394L336.624 3.80595L336.91 8.2571L340.902 8ZM395.739 27.9559L398.632 30.7187L401.713 27.4931L398.172 24.7806L395.739 27.9559ZM345.277 75.9318L349.269 75.6747L345.277 75.9318ZM348.719 77.1847L345.827 74.4219L345.827 74.4219L348.719 77.1847ZM279.693 31.1313C294.398 19.8665 312.539 12.873 332.276 11.9961L331.92 4.00394C310.494 4.956 290.79 12.5533 274.828 24.7806L279.693 31.1313ZM274.368 30.7187L321.388 79.9475L327.173 74.4219L280.153 25.1931L274.368 30.7187ZM321.388 79.9475C324.998 83.727 331.378 81.4047 331.714 76.1889L323.731 75.6747C323.843 73.9361 325.97 73.162 327.173 74.4219L321.388 79.9475ZM331.714 76.1889L336.09 8.25709L328.106 7.74291L323.731 75.6747L331.714 76.1889ZM245.227 85.0193C249.441 66.062 259.415 49.2647 273.227 36.5627L267.812 30.6742C252.83 44.4523 241.997 62.6858 237.418 83.2834L245.227 85.0193ZM240.883 88.1271L308.561 95.6166L309.441 87.6652L241.763 80.1756L240.883 88.1271ZM308.561 95.6166C313.756 96.1915 317.151 90.3111 314.056 86.0997L307.61 90.8375C306.578 89.4337 307.71 87.4736 309.441 87.6652L308.561 95.6166ZM314.056 86.0997L273.743 31.2496L267.296 35.9873L307.61 90.8375L314.056 86.0997ZM243 105.402C243 101.311 243.263 97.2823 243.771 93.3328L235.837 92.3106C235.285 96.5983 235 100.968 235 105.402H243ZM253.48 148.457C246.785 135.575 243 120.937 243 105.402H235C235 122.251 239.108 138.152 246.381 152.146L253.48 148.457ZM252.149 153.63L308.808 115.865L304.371 109.208L247.712 146.973L252.149 153.63ZM308.808 115.865C313.157 112.966 311.978 106.279 306.899 105.042L305.007 112.815C303.314 112.403 302.921 110.174 304.371 109.208L308.808 115.865ZM306.899 105.042L240.751 88.9352L238.858 96.7081L305.007 112.815L306.899 105.042ZM300.581 191.755C282.887 184.387 267.936 171.733 257.707 155.763L250.971 160.078C262.069 177.405 278.29 191.138 297.505 199.141L300.581 191.755ZM302.882 196.572L322.011 131.217L314.334 128.97L295.204 194.324L302.882 196.572ZM322.011 131.217C323.48 126.201 318.278 121.837 313.593 124.154L317.14 131.325C315.578 132.097 313.844 130.642 314.334 128.97L322.011 131.217ZM313.593 124.154L252.566 154.335L256.112 161.506L317.14 131.325L313.593 124.154ZM336.5 198.902C326.743 198.902 317.342 197.409 308.509 194.642L306.117 202.276C315.715 205.283 325.922 206.902 336.5 206.902V198.902ZM364.491 194.642C355.658 197.409 346.257 198.902 336.5 198.902V206.902C347.078 206.902 357.285 205.283 366.883 202.276L364.491 194.642ZM369.35 196.852L341.995 134.491L334.668 137.705L362.024 200.065L369.35 196.852ZM341.995 134.491C339.895 129.705 333.105 129.705 331.005 134.491L338.332 137.705C337.632 139.3 335.368 139.3 334.668 137.705L341.995 134.491ZM331.005 134.491L303.65 196.852L310.976 200.066L338.332 137.705L331.005 134.491ZM415.293 155.763C405.064 171.733 390.113 184.386 372.419 191.755L375.495 199.141C394.71 191.138 410.931 177.405 422.029 160.078L415.293 155.763ZM420.434 154.335L359.407 124.154L355.86 131.325L416.888 161.506L420.434 154.335ZM359.407 124.154C354.722 121.837 349.52 126.201 350.989 131.217L358.666 128.97C359.156 130.642 357.422 132.097 355.86 131.325L359.407 124.154ZM350.989 131.217L370.118 196.572L377.796 194.324L358.666 128.97L350.989 131.217ZM430 105.402C430 120.937 426.215 135.575 419.52 148.457L426.619 152.146C433.892 138.152 438 122.251 438 105.402H430ZM429.229 93.3328C429.737 97.2823 430 101.311 430 105.402H438C438 100.968 437.715 96.5983 437.163 92.3106L429.229 93.3328ZM432.249 88.9352L366.101 105.042L367.993 112.815L434.142 96.7081L432.249 88.9352ZM366.101 105.042C361.022 106.279 359.843 112.966 364.192 115.865L368.629 109.208C370.079 110.174 369.686 112.403 367.993 112.815L366.101 105.042ZM364.192 115.865L420.851 153.63L425.288 146.973L368.629 109.208L364.192 115.865ZM399.773 36.5627C413.585 49.2647 423.559 66.062 427.773 85.0193L435.582 83.2834C431.003 62.6858 420.17 44.4523 405.188 30.6742L399.773 36.5627ZM399.257 31.2496L358.944 86.0997L365.39 90.8375L405.704 35.9874L399.257 31.2496ZM358.944 86.0997C355.849 90.3111 359.244 96.1915 364.439 95.6166L363.559 87.6652C365.29 87.4736 366.422 89.4337 365.39 90.8375L358.944 86.0997ZM364.439 95.6166L432.117 88.1271L431.237 80.1756L363.559 87.6652L364.439 95.6166ZM340.725 11.9961C360.461 12.873 378.602 19.8665 393.307 31.1313L398.172 24.7806C382.21 12.5533 362.506 4.956 341.08 4.00394L340.725 11.9961ZM336.91 8.2571L341.286 76.1889L349.269 75.6747L344.894 7.74291L336.91 8.2571ZM341.286 76.1889C341.622 81.4047 348.002 83.7271 351.612 79.9474L345.827 74.4219C347.03 73.162 349.157 73.9362 349.269 75.6747L341.286 76.1889ZM351.612 79.9475L398.632 30.7187L392.847 25.1931L345.827 74.4219L351.612 79.9475Z" fill="#5A25B4" mask="url(#path-4-inside-1_20_5)"/>
</g>
<g id="Subtract_2">
<mask id="path-6-inside-2_20_5" fill="white">
<path fill-rule="evenodd" clip-rule="evenodd" d="M406.904 213C394.766 213.539 383.607 217.842 374.564 224.769L401.002 252.449C402.205 253.708 404.332 252.934 404.444 251.196L406.904 213ZM370.588 228.108C362.098 235.917 355.963 246.246 353.37 257.91L391.424 262.121C393.155 262.313 394.287 260.352 393.255 258.949L370.588 228.108ZM352.474 263.023C352.161 265.452 352 267.928 352 270.442C352 279.991 354.328 288.996 358.446 296.921L390.304 275.687C391.753 274.721 391.36 272.492 389.668 272.08L352.474 263.023ZM361.046 301.415C367.335 311.233 376.527 319.014 387.41 323.546L398.166 286.799C398.655 285.127 396.922 283.672 395.36 284.445L361.046 301.415ZM392.287 325.322C397.722 327.025 403.504 327.942 409.5 327.942C415.496 327.942 421.278 327.025 426.713 325.322L411.332 290.258C410.632 288.662 408.368 288.662 407.668 290.258L392.287 325.322ZM431.59 323.546C442.473 319.014 451.665 311.233 457.954 301.415L423.64 284.445C422.078 283.672 420.345 285.127 420.834 286.799L431.59 323.546ZM460.554 296.921C464.672 288.996 467 279.991 467 270.442C467 267.928 466.839 265.452 466.526 263.023L429.332 272.08C427.64 272.492 427.247 274.721 428.696 275.687L460.554 296.921ZM465.63 257.91C463.037 246.246 456.902 235.917 448.412 228.108L425.745 258.949C424.713 260.352 425.845 262.313 427.576 262.121L465.63 257.91ZM444.436 224.769C435.393 217.842 424.234 213.539 412.096 213L414.556 251.196C414.668 252.934 416.795 253.708 417.998 252.449L444.436 224.769Z"/>
</mask>
<path fill-rule="evenodd" clip-rule="evenodd" d="M406.904 213C394.766 213.539 383.607 217.842 374.564 224.769L401.002 252.449C402.205 253.708 404.332 252.934 404.444 251.196L406.904 213ZM370.588 228.108C362.098 235.917 355.963 246.246 353.37 257.91L391.424 262.121C393.155 262.313 394.287 260.352 393.255 258.949L370.588 228.108ZM352.474 263.023C352.161 265.452 352 267.928 352 270.442C352 279.991 354.328 288.996 358.446 296.921L390.304 275.687C391.753 274.721 391.36 272.492 389.668 272.08L352.474 263.023ZM361.046 301.415C367.335 311.233 376.527 319.014 387.41 323.546L398.166 286.799C398.655 285.127 396.922 283.672 395.36 284.445L361.046 301.415ZM392.287 325.322C397.722 327.025 403.504 327.942 409.5 327.942C415.496 327.942 421.278 327.025 426.713 325.322L411.332 290.258C410.632 288.662 408.368 288.662 407.668 290.258L392.287 325.322ZM431.59 323.546C442.473 319.014 451.665 311.233 457.954 301.415L423.64 284.445C422.078 283.672 420.345 285.127 420.834 286.799L431.59 323.546ZM460.554 296.921C464.672 288.996 467 279.991 467 270.442C467 267.928 466.839 265.452 466.526 263.023L429.332 272.08C427.64 272.492 427.247 274.721 428.696 275.687L460.554 296.921ZM465.63 257.91C463.037 246.246 456.902 235.917 448.412 228.108L425.745 258.949C424.713 260.352 425.845 262.313 427.576 262.121L465.63 257.91ZM444.436 224.769C435.393 217.842 424.234 213.539 412.096 213L414.556 251.196C414.668 252.934 416.795 253.708 417.998 252.449L444.436 224.769Z" fill="#5D26BD"/>
<path d="M374.564 224.769L373.348 223.181L371.577 224.537L373.118 226.15L374.564 224.769ZM406.904 213L408.9 213.129L409.043 210.903L406.815 211.002L406.904 213ZM401.002 252.449L402.448 251.067L401.002 252.449ZM404.444 251.196L402.448 251.067L404.444 251.196ZM353.37 257.91L351.417 257.476L350.934 259.652L353.15 259.898L353.37 257.91ZM370.588 228.108L372.2 226.924L370.878 225.125L369.235 226.636L370.588 228.108ZM391.424 262.121L391.204 264.109L391.424 262.121ZM393.255 258.949L391.644 260.133L391.644 260.133L393.255 258.949ZM352.474 263.023L352.947 261.08L350.776 260.551L350.491 262.768L352.474 263.023ZM358.446 296.921L356.672 297.844L357.7 299.822L359.556 298.586L358.446 296.921ZM390.304 275.687L391.413 277.351L390.304 275.687ZM389.668 272.08L389.195 274.023L389.668 272.08ZM387.41 323.546L386.641 325.393L388.702 326.251L389.33 324.108L387.41 323.546ZM361.046 301.415L360.159 299.622L358.157 300.612L359.362 302.493L361.046 301.415ZM398.166 286.799L400.085 287.361L398.166 286.799ZM395.36 284.445L394.473 282.652L394.473 282.652L395.36 284.445ZM392.287 325.322L390.456 324.518L389.559 326.563L391.689 327.23L392.287 325.322ZM426.713 325.322L427.311 327.23L429.441 326.563L428.544 324.518L426.713 325.322ZM411.332 290.258L413.163 289.454L411.332 290.258ZM407.668 290.258L409.5 291.061H409.5L407.668 290.258ZM457.954 301.415L459.638 302.493L460.843 300.612L458.841 299.622L457.954 301.415ZM431.59 323.546L429.67 324.108L430.298 326.251L432.359 325.393L431.59 323.546ZM423.64 284.445L424.527 282.652L423.64 284.445ZM420.834 286.799L418.915 287.361L420.834 286.799ZM460.554 296.921L459.444 298.586L461.3 299.822L462.328 297.844L460.554 296.921ZM466.526 263.023L468.509 262.768L468.224 260.551L466.053 261.08L466.526 263.023ZM429.332 272.08L428.859 270.136L429.332 272.08ZM428.696 275.687L427.587 277.351L428.696 275.687ZM448.412 228.108L449.765 226.636L448.122 225.125L446.8 226.924L448.412 228.108ZM465.63 257.91L465.85 259.898L468.066 259.652L467.583 257.476L465.63 257.91ZM425.745 258.949L424.133 257.764L425.745 258.949ZM427.576 262.121L427.356 260.133L427.576 262.121ZM412.096 213L412.185 211.002L409.957 210.903L410.1 213.129L412.096 213ZM444.436 224.769L445.882 226.15L447.423 224.537L445.652 223.181L444.436 224.769ZM414.556 251.196L416.552 251.067L414.556 251.196ZM417.998 252.449L416.552 251.067L416.552 251.067L417.998 252.449ZM375.78 226.357C384.509 219.67 395.277 215.519 406.993 214.998L406.815 211.002C394.255 211.56 382.705 216.013 373.348 223.181L375.78 226.357ZM373.118 226.15L399.555 253.83L402.448 251.067L376.01 223.387L373.118 226.15ZM399.555 253.83C401.962 256.35 406.216 254.801 406.44 251.324L402.448 251.067L402.448 251.067L399.555 253.83ZM406.44 251.324L408.9 213.129L404.908 212.871L402.448 251.067L406.44 251.324ZM355.322 258.344C357.824 247.09 363.744 237.12 371.942 229.58L369.235 226.636C360.452 234.713 354.101 245.402 351.417 257.476L355.322 258.344ZM353.15 259.898L391.204 264.109L391.644 260.133L353.59 255.922L353.15 259.898ZM391.204 264.109C394.667 264.492 396.93 260.572 394.867 257.764L391.644 260.133L391.644 260.133L391.204 264.109ZM394.867 257.764L372.2 226.924L368.977 229.293L391.644 260.133L394.867 257.764ZM354 270.442C354 268.014 354.156 265.623 354.458 263.279L350.491 262.768C350.167 265.281 350 267.843 350 270.442H354ZM360.221 295.999C356.247 288.352 354 279.663 354 270.442H350C350 280.32 352.408 289.64 356.672 297.844L360.221 295.999ZM359.556 298.586L391.413 277.351L389.195 274.023L357.337 295.257L359.556 298.586ZM391.413 277.351C394.312 275.419 393.526 270.961 390.141 270.136L389.195 274.023L391.413 277.351ZM390.141 270.136L352.947 261.08L352.001 264.966L389.195 274.023L390.141 270.136ZM388.179 321.7C377.676 317.326 368.802 309.815 362.73 300.336L359.362 302.493C365.868 312.651 375.378 320.702 386.641 325.393L388.179 321.7ZM389.33 324.108L400.085 287.361L396.247 286.237L385.491 322.984L389.33 324.108ZM400.085 287.361C401.064 284.017 397.597 281.107 394.473 282.652L396.247 286.237L396.247 286.237L400.085 287.361ZM394.473 282.652L360.159 299.622L361.933 303.207L396.247 286.237L394.473 282.652ZM409.5 325.942C403.709 325.942 398.129 325.056 392.885 323.413L391.689 327.23C397.315 328.993 403.299 329.942 409.5 329.942V325.942ZM426.115 323.413C420.871 325.056 415.291 325.942 409.5 325.942V329.942C415.701 329.942 421.685 328.993 427.311 327.23L426.115 323.413ZM428.544 324.518L413.163 289.454L409.5 291.061L424.881 326.125L428.544 324.518ZM413.163 289.454C411.763 286.263 407.237 286.263 405.837 289.454L409.5 291.061L409.5 291.061L413.163 289.454ZM405.837 289.454L390.456 324.518L394.119 326.125L409.5 291.061L405.837 289.454ZM456.27 300.336C450.198 309.815 441.324 317.326 430.821 321.7L432.359 325.393C443.622 320.702 453.132 312.651 459.638 302.493L456.27 300.336ZM458.841 299.622L424.527 282.652L422.753 286.237L457.067 303.207L458.841 299.622ZM424.527 282.652C421.403 281.107 417.936 284.017 418.915 287.361L422.753 286.237V286.237L424.527 282.652ZM418.915 287.361L429.67 324.108L433.509 322.984L422.753 286.237L418.915 287.361ZM465 270.442C465 279.663 462.753 288.352 458.779 295.999L462.328 297.844C466.592 289.64 469 280.32 469 270.442H465ZM464.542 263.279C464.844 265.623 465 268.014 465 270.442H469C469 267.843 468.833 265.281 468.509 262.768L464.542 263.279ZM466.053 261.08L428.859 270.136L429.805 274.023L466.999 264.966L466.053 261.08ZM428.859 270.136C425.474 270.961 424.688 275.419 427.587 277.351L429.805 274.023L428.859 270.136ZM427.587 277.351L459.444 298.586L461.663 295.257L429.805 274.023L427.587 277.351ZM447.058 229.58C455.256 237.12 461.176 247.09 463.678 258.344L467.583 257.476C464.899 245.402 458.549 234.713 449.765 226.636L447.058 229.58ZM446.8 226.924L424.133 257.764L427.356 260.133L450.023 229.293L446.8 226.924ZM424.133 257.764C422.07 260.572 424.333 264.492 427.796 264.109L427.356 260.133V260.133L424.133 257.764ZM427.796 264.109L465.85 259.898L465.41 255.922L427.356 260.133L427.796 264.109ZM412.007 214.998C423.723 215.519 434.491 219.67 443.22 226.357L445.652 223.181C436.295 216.013 424.745 211.56 412.185 211.002L412.007 214.998ZM410.1 213.129L412.56 251.324L416.552 251.067L414.092 212.871L410.1 213.129ZM412.56 251.324C412.784 254.801 417.038 256.35 419.445 253.83L416.552 251.067H416.552L412.56 251.324ZM419.445 253.83L445.882 226.15L442.99 223.387L416.552 251.067L419.445 253.83Z" fill="#9B6CFA" mask="url(#path-6-inside-2_20_5)"/>
</g>
<g id="Subtract_3">
<mask id="path-8-inside-3_20_5" fill="white">
<path fill-rule="evenodd" clip-rule="evenodd" d="M175.033 165.989C168.172 166.294 161.865 168.726 156.754 172.641L170.327 186.852C171.531 188.112 173.658 187.338 173.77 185.6L175.033 165.989ZM154.507 174.528C149.707 178.942 146.24 184.78 144.774 191.373L164.313 193.535C166.044 193.727 167.176 191.766 166.144 190.363L154.507 174.528ZM144.268 194.263C144.091 195.636 144 197.035 144 198.456C144 203.854 145.316 208.943 147.644 213.423L164 202.52C165.45 201.554 165.057 199.325 163.364 198.913L144.268 194.263ZM149.113 215.962C152.668 221.512 157.863 225.91 164.014 228.472L169.537 209.604C170.026 207.932 168.293 206.477 166.731 207.249L149.113 215.962ZM166.771 229.475C169.843 230.438 173.111 230.956 176.5 230.956C179.889 230.956 183.157 230.438 186.229 229.475L178.332 211.472C177.632 209.876 175.368 209.876 174.668 211.472L166.771 229.475ZM188.986 228.472C195.137 225.91 200.332 221.512 203.887 215.962L186.269 207.249C184.707 206.477 182.974 207.932 183.463 209.604L188.986 228.472ZM205.356 213.423C207.684 208.943 209 203.854 209 198.456C209 197.035 208.909 195.636 208.732 194.263L189.636 198.913C187.943 199.325 187.55 201.554 189 202.52L205.356 213.423ZM208.226 191.373C206.76 184.78 203.293 178.942 198.493 174.528L186.856 190.363C185.824 191.766 186.956 193.727 188.687 193.535L208.226 191.373ZM196.246 172.641C191.135 168.726 184.828 166.294 177.967 165.989L179.23 185.6C179.342 187.338 181.469 188.112 182.673 186.852L196.246 172.641Z"/>
</mask>
<path fill-rule="evenodd" clip-rule="evenodd" d="M175.033 165.989C168.172 166.294 161.865 168.726 156.754 172.641L170.327 186.852C171.531 188.112 173.658 187.338 173.77 185.6L175.033 165.989ZM154.507 174.528C149.707 178.942 146.24 184.78 144.774 191.373L164.313 193.535C166.044 193.727 167.176 191.766 166.144 190.363L154.507 174.528ZM144.268 194.263C144.091 195.636 144 197.035 144 198.456C144 203.854 145.316 208.943 147.644 213.423L164 202.52C165.45 201.554 165.057 199.325 163.364 198.913L144.268 194.263ZM149.113 215.962C152.668 221.512 157.863 225.91 164.014 228.472L169.537 209.604C170.026 207.932 168.293 206.477 166.731 207.249L149.113 215.962ZM166.771 229.475C169.843 230.438 173.111 230.956 176.5 230.956C179.889 230.956 183.157 230.438 186.229 229.475L178.332 211.472C177.632 209.876 175.368 209.876 174.668 211.472L166.771 229.475ZM188.986 228.472C195.137 225.91 200.332 221.512 203.887 215.962L186.269 207.249C184.707 206.477 182.974 207.932 183.463 209.604L188.986 228.472ZM205.356 213.423C207.684 208.943 209 203.854 209 198.456C209 197.035 208.909 195.636 208.732 194.263L189.636 198.913C187.943 199.325 187.55 201.554 189 202.52L205.356 213.423ZM208.226 191.373C206.76 184.78 203.293 178.942 198.493 174.528L186.856 190.363C185.824 191.766 186.956 193.727 188.687 193.535L208.226 191.373ZM196.246 172.641C191.135 168.726 184.828 166.294 177.967 165.989L179.23 185.6C179.342 187.338 181.469 188.112 182.673 186.852L196.246 172.641Z" fill="#50259A"/>
<path d="M156.754 172.641L154.929 170.259L152.274 172.294L154.584 174.713L156.754 172.641ZM175.033 165.989L178.026 166.182L178.241 162.843L174.899 162.992L175.033 165.989ZM170.327 186.852L172.497 184.78V184.78L170.327 186.852ZM173.77 185.6L170.776 185.407L173.77 185.6ZM144.774 191.373L141.846 190.722L141.12 193.987L144.444 194.355L144.774 191.373ZM154.507 174.528L156.924 172.752L154.941 170.053L152.476 172.32L154.507 174.528ZM164.313 193.535L163.983 196.517H163.983L164.313 193.535ZM166.144 190.363L163.727 192.139L166.144 190.363ZM144.268 194.263L144.978 191.348L141.721 190.555L141.293 193.88L144.268 194.263ZM147.644 213.423L144.982 214.806L146.524 217.774L149.307 215.919L147.644 213.423ZM164 202.52L162.337 200.024H162.337L164 202.52ZM163.364 198.913L162.655 201.828L163.364 198.913ZM164.014 228.472L162.861 231.241L165.953 232.529L166.894 229.314L164.014 228.472ZM149.113 215.962L147.783 213.273L144.779 214.759L146.587 217.581L149.113 215.962ZM169.537 209.604L172.416 210.447L169.537 209.604ZM166.731 207.249L168.061 209.939L168.061 209.939L166.731 207.249ZM166.771 229.475L164.024 228.27L162.679 231.337L165.874 232.338L166.771 229.475ZM186.229 229.475L187.126 232.338L190.321 231.337L188.976 228.27L186.229 229.475ZM178.332 211.472L181.079 210.267L178.332 211.472ZM174.668 211.472L177.416 212.677L174.668 211.472ZM203.887 215.962L206.413 217.581L208.221 214.759L205.217 213.273L203.887 215.962ZM188.986 228.472L186.106 229.314L187.047 232.529L190.139 231.241L188.986 228.472ZM186.269 207.249L184.939 209.939V209.939L186.269 207.249ZM183.463 209.604L180.584 210.447H180.584L183.463 209.604ZM205.356 213.423L203.693 215.919L206.476 217.774L208.018 214.806L205.356 213.423ZM208.732 194.263L211.707 193.88L211.279 190.555L208.022 191.348L208.732 194.263ZM189.636 198.913L190.345 201.828L189.636 198.913ZM189 202.52L187.336 205.017V205.017L189 202.52ZM198.493 174.528L200.524 172.32L198.059 170.053L196.076 172.752L198.493 174.528ZM208.226 191.373L208.556 194.355L211.88 193.987L211.154 190.722L208.226 191.373ZM186.856 190.363L189.273 192.139L189.273 192.139L186.856 190.363ZM188.687 193.535L189.017 196.517L188.687 193.535ZM177.967 165.989L178.101 162.992L174.759 162.843L174.974 166.182L177.967 165.989ZM196.246 172.641L198.416 174.713L200.726 172.294L198.071 170.259L196.246 172.641ZM179.23 185.6L176.237 185.792V185.792L179.23 185.6ZM182.673 186.852L180.503 184.78L180.503 184.78L182.673 186.852ZM158.578 175.022C163.218 171.468 168.939 169.263 175.166 168.986L174.899 162.992C167.405 163.325 160.511 165.983 154.929 170.259L158.578 175.022ZM154.584 174.713L168.158 188.925L172.497 184.78L158.923 170.569L154.584 174.713ZM168.158 188.925C171.166 192.074 176.483 190.139 176.763 185.792L170.776 185.407C170.832 184.538 171.895 184.15 172.497 184.78L168.158 188.925ZM176.763 185.792L178.026 166.182L172.039 165.796L170.776 185.407L176.763 185.792ZM147.703 192.024C149.031 186.046 152.177 180.746 156.537 176.737L152.476 172.32C147.238 177.137 143.448 183.514 141.846 190.722L147.703 192.024ZM144.444 194.355L163.983 196.517L164.643 190.553L145.104 188.391L144.444 194.355ZM163.983 196.517C168.312 196.996 171.141 192.096 168.562 188.586L163.727 192.139C163.211 191.437 163.777 190.457 164.643 190.553L163.983 196.517ZM168.562 188.586L156.924 172.752L152.089 176.305L163.727 192.139L168.562 188.586ZM147 198.456C147 197.164 147.083 195.892 147.243 194.646L141.293 193.88C141.099 195.379 141 196.907 141 198.456H147ZM150.306 212.039C148.194 207.977 147 203.361 147 198.456H141C141 204.346 142.437 209.91 144.982 214.806L150.306 212.039ZM149.307 215.919L165.664 205.017L162.337 200.024L145.98 210.927L149.307 215.919ZM165.664 205.017C169.289 202.601 168.306 197.028 164.074 195.998L162.655 201.828C161.808 201.622 161.612 200.507 162.337 200.024L165.664 205.017ZM164.074 195.998L144.978 191.348L143.558 197.178L162.655 201.828L164.074 195.998ZM165.168 225.702C159.586 223.378 154.868 219.385 151.639 214.344L146.587 217.581C150.468 223.639 156.139 228.442 162.861 231.241L165.168 225.702ZM166.894 229.314L172.416 210.447L166.658 208.761L161.135 227.629L166.894 229.314ZM172.416 210.447C173.64 206.267 169.305 202.63 165.401 204.56L168.061 209.939C167.28 210.325 166.413 209.597 166.658 208.761L172.416 210.447ZM165.401 204.56L147.783 213.273L150.443 218.652L168.061 209.939L165.401 204.56ZM176.5 227.956C173.419 227.956 170.453 227.485 167.668 226.612L165.874 232.338C169.233 233.39 172.803 233.956 176.5 233.956V227.956ZM185.332 226.612C182.547 227.485 179.581 227.956 176.5 227.956V233.956C180.197 233.956 183.767 233.39 187.126 232.338L185.332 226.612ZM188.976 228.27L181.079 210.267L175.584 212.677L183.482 230.68L188.976 228.27ZM181.079 210.267C179.329 206.278 173.671 206.278 171.921 210.267L177.416 212.677C177.066 213.475 175.934 213.475 175.584 212.677L181.079 210.267ZM171.921 210.267L164.024 228.27L169.518 230.68L177.416 212.677L171.921 210.267ZM201.361 214.344C198.132 219.385 193.414 223.378 187.832 225.702L190.139 231.241C196.861 228.442 202.532 223.639 206.413 217.581L201.361 214.344ZM205.217 213.273L187.599 204.56L184.939 209.939L202.557 218.652L205.217 213.273ZM187.599 204.56C183.695 202.63 179.36 206.267 180.584 210.447L186.342 208.761C186.587 209.597 185.72 210.325 184.939 209.939L187.599 204.56ZM180.584 210.447L186.106 229.314L191.865 227.629L186.342 208.761L180.584 210.447ZM206 198.456C206 203.361 204.806 207.977 202.694 212.039L208.018 214.806C210.563 209.91 212 204.346 212 198.456H206ZM205.757 194.646C205.917 195.892 206 197.164 206 198.456H212C212 196.907 211.901 195.379 211.707 193.88L205.757 194.646ZM208.022 191.348L188.926 195.998L190.345 201.828L209.442 197.178L208.022 191.348ZM188.926 195.998C184.694 197.028 183.711 202.601 187.336 205.017L190.663 200.024C191.388 200.507 191.192 201.622 190.345 201.828L188.926 195.998ZM187.336 205.017L203.693 215.919L207.02 210.927L190.663 200.024L187.336 205.017ZM196.463 176.737C200.823 180.746 203.969 186.046 205.297 192.024L211.154 190.722C209.552 183.514 205.762 177.137 200.524 172.32L196.463 176.737ZM196.076 172.752L184.438 188.586L189.273 192.139L200.911 176.305L196.076 172.752ZM184.438 188.586C181.859 192.096 184.688 196.996 189.017 196.517L188.357 190.553C189.223 190.457 189.789 191.437 189.273 192.139L184.438 188.586ZM189.017 196.517L208.556 194.355L207.896 188.391L188.357 190.553L189.017 196.517ZM177.834 168.986C184.061 169.263 189.782 171.468 194.422 175.022L198.071 170.259C192.489 165.983 185.595 163.325 178.101 162.992L177.834 168.986ZM174.974 166.182L176.237 185.792L182.224 185.407L180.961 165.796L174.974 166.182ZM176.237 185.792C176.517 190.139 181.834 192.074 184.842 188.925L180.503 184.78C181.105 184.15 182.168 184.538 182.224 185.407L176.237 185.792ZM184.842 188.925L198.416 174.713L194.077 170.569L180.503 184.78L184.842 188.925Z" fill="#21074E" mask="url(#path-8-inside-3_20_5)"/>
</g>
<g id="Group 8">
<path id="Polygon 8" d="M93.3367 19.3856L3.09026 216.533L85.0951 159.216L85.2758 159.089L85.4853 159.02L193.484 123.458L106.076 105.277L105.039 105.061L104.895 104.011L93.3367 19.3856Z" fill="white" stroke="black" stroke-width="3"/>
<path id="Polygon 7" d="M195.53 123.377L139.976 139.375L131.998 112.156L195.53 123.377Z" fill="#FF4602"/>
</g>
<g id="Group 7">
<path id="Polygon 7_2" d="M309.259 287.171L159.618 319.856L211.38 271.969L211.542 271.82L211.654 271.63L252.421 202.422L251.847 265.151L251.837 266.211L252.832 266.574L309.259 287.171Z" fill="white" stroke="black" stroke-width="3"/>
<path id="Polygon 9" d="M252.299 202.996L251.298 242.286L232.215 237.608L252.299 202.996Z" fill="#FF4602"/>
</g>
</g>
<defs>
<clipPath id="clip0_20_5">
<rect width="500" height="333" fill="white"/>
</clipPath>
</defs>
</svg>
