<svg width="500" height="333" viewBox="0 0 500 333" fill="none" xmlns="http://www.w3.org/2000/svg">
<g clip-path="url(#clip0_21_38)">
<rect width="500" height="333" fill="white"/>
<rect width="250" height="167" fill="#2C4AC1"/>
<rect x="250" width="250" height="167" fill="url(#paint0_linear_21_38)"/>
<circle cx="241" cy="133" r="58" fill="#E7B71C" stroke="#FA6B2E" stroke-width="4"/>
<circle cx="129" cy="173" r="66" fill="white"/>
<circle cx="63" cy="190" r="44" fill="white"/>
<circle cx="231" cy="195" r="44" fill="white"/>
<circle cx="186.5" cy="158.5" r="34.5" fill="white"/>
<circle cx="430.422" cy="155.453" r="31.4531" fill="white"/>
<ellipse cx="403.707" cy="163.214" rx="25.7071" ry="20.9143" fill="white"/>
<circle cx="479.031" cy="165.938" r="20.9688" fill="white"/>
<ellipse cx="451.636" cy="148.4" rx="22.2214" ry="16.5571" fill="white"/>
<rect y="167" width="500" height="166" fill="url(#paint1_linear_21_38)"/>
<path d="M1.11159 332.5L242.155 167H264.341L497.432 332.5H1.11159Z" fill="url(#paint2_linear_21_38)" stroke="white"/>
</g>
<defs>
<linearGradient id="paint0_linear_21_38" x1="500" y1="83.5" x2="250" y2="83.5" gradientUnits="userSpaceOnUse">
<stop stop-color="#69E9FF"/>
<stop offset="0.994012" stop-color="#2C4AC1"/>
</linearGradient>
<linearGradient id="paint1_linear_21_38" x1="250" y1="167" x2="250" y2="333" gradientUnits="userSpaceOnUse">
<stop stop-color="#55B4EA"/>
<stop offset="0.439759" stop-color="#4E51F8"/>
<stop offset="1" stop-color="#272F51"/>
</linearGradient>
<linearGradient id="paint2_linear_21_38" x1="249.25" y1="167" x2="249.25" y2="333" gradientUnits="userSpaceOnUse">
<stop stop-color="#55B3EA"/>
<stop offset="1" stop-color="#02123B"/>
</linearGradient>
<clipPath id="clip0_21_38">
<rect width="500" height="333" fill="white"/>
</clipPath>
</defs>
</svg>
