<?xml version="1.0" encoding="UTF-8"?><svg id="_Слой_2" xmlns="http://www.w3.org/2000/svg" viewBox="0 0 1920.5 383.2"><g id="_Слой_1-2"><rect width="1920.5" height="383.2" style="fill:#1c1b34; stroke-width:0px;"/><path d="m393.6,178.2c0,4-3.1,7.4-7,7.4-4.1,0-7.5-3-7.7-6.9-.2-4.2,3.6-8.2,7.7-8.1,3.9.1,7,3.4,7,7.5Z" style="fill:#5fddf8; stroke-width:0px;"/><path d="m692.3,219.3c0,3.5,0,7,0,10.5,0,1.7-.5,2.9-1.8,3.8-7.5,5.2-15.5,9-24.8,8.7-18.4-.8-30.8-14.1-31.6-31.2-.3-7.4.5-14.6,4.4-21,5.8-9.5,14-15.3,25.5-15.5,3.9,0,7.9.5,11.8,1,5.3.7,9.4,3.9,13.4,7,1.2,1,1.1,1.9.3,3-.9,1.2-1.8,2.4-2.7,3.5-3.1,4-3.1,4.1-7.1,1.2-6-4.4-12.4-4.7-19.4-2.9-4.5,1.2-7.9,4.1-9.8,7.9-4.6,9-5,18.2.6,27.3,4.4,7.2,16.9,10.3,23.4,6.4.3-.2.6-.3.9-.4,6.2-3,6.4-3.5,5.9-10.2-.1-1.5-.7-1.9-2.1-2-2.6-.1-5.3-.5-7.9-.6-1.9,0-2.2-1-2.1-2.5,0-.2,0-.3,0-.5q-.2-7.2,6.9-7.2c4.7,0,9.3,0,14,0,1.8,0,2.3.7,2.3,2.3,0,3.8,0,7.7,0,11.5h0Z" style="fill:#47d3fb; stroke-width:0px;"/><path d="m876.8,197.4c0,6,.2,12,0,17.9-.1,3.1-.6,6.3-1.4,9.2-2.7,9.5-9.6,14.6-18.9,16.9-5.1,1.3-10.2,1-15.2-.3-9.9-2.5-16.7-9.2-18.1-19.9-2-14.5-.6-29.2-1-43.8,0-1.4.5-2.2,2-2.1.2,0,.3,0,.5,0,3.3.1,6.6.2,9.9.3.2,3.1.5,6.2.5,9.3,0,9.8,0,19.6,0,29.4,0,1.9.4,3.9.8,5.8,1.7,7.9,8.8,10.5,15.1,9.8,8.4-.8,12.8-6.1,12.9-14.7.1-12.1,0-24.3,0-36.4,0-3.3-.6-3.8,3.4-3.7,3.1.1,6.2.4,9.2.6,0,3,.2,5.9.2,8.9,0,4.2,0,8.3,0,12.5Z" style="fill:#47d3fb; stroke-width:0px;"/><path d="m756.2,199.3c0,6.3,0,12.6,0,19,0,11.2-8.6,21.6-20.3,23.4-5.1.8-9.9.5-14.7-.5-9.7-2-17-10.5-18.1-18.9-.4-3.1-.8-6.2-.9-9.3,0-11.6,0-23.3,0-34.9,0-1.9.5-2.7,2.5-2.6,3.3.2,6.6.2,9.9.3.2,3.1.5,6.2.5,9.3,0,10.1.4,20.3,0,30.4-.4,9,8.3,18.3,20.8,13.6,4-1.5,6.3-4.9,7.2-8.9.7-3.2.9-6.6.9-9.8.1-10.6,0-21.3,0-31.9,0-2.8,0-2.9,2.7-2.9,3.1,0,6.2.3,9.3.5.1,3,.2,5.9.3,8.9,0,2.5,0,5,0,7.5,0,2.3,0,4.7,0,7h0Z" style="fill:#47d3fb; stroke-width:0px;"/><path d="m813.2,236.1c-2.8-6.7-5.5-13.4-8.5-20-.7-1.5-.7-2.4.6-3.3,7.9-5.2,8.8-14.8,7-22.6-1-4.2-3.1-7.7-6.7-10.1-3.8-2.6-8.2-4.3-12.9-4.4-3.8-.1-7.6,0-11.5,0h0c-3-.1-6-.1-9-.1-6,0-5.1-.7-5.1,4.9,0,10.1,0,20.3,0,30.4,0,9,0,18,0,26.9,0,3.2.2,3.4,3.3,3.5,2,0,4,0,6,0,3.3,0,3.5-.3,3.5-3.8,0-3.3,0-6.7,0-10,0-3.2.4-6.5.6-9.7,3.3,0,6.6,0,9.9-.3,1.7-.1,2.4.5,2.9,1.9,1.8,4.6,3.6,9.2,5.4,13.8,1,2.4,1.4,5.4,3,7.2,2,2.1,5.3.8,8.1.8,5.7,0,5.7,1.1,3.1-5.1Zm-23.6-29.5c-3.1,0-6.2-.3-9.2-.5,0-2.9-.2-5.9-.3-8.8,0-.3,0-.7,0-1h0c0-2.6,0-5.3,0-7.9,0-1.2.4-1.9,1.7-1.8,3.5,0,7-.3,10.4.2,4.5.7,8,2.7,8,8.8,0,7.3-3.2,11-10.6,11.1Z" style="fill:#47d3fb; stroke-width:0px;"/><path d="m402.8,216.1c0-7,0-14,0-21,0-3.2,0-3.2,3.4-3.3,1.3,0,2.7,0,4,0,4,0,4,0,4.6,4.3,0,.4.4.8.7,1.1.4-.3.8-.5,1.2-.8,2.7-2.6,5.8-4.3,9.5-5,6.9-1.4,12.8.1,17.2,5.9,1,1.3,1.5,1.4,2.6.2,3.2-3.3,6.8-5.5,11.6-6.3,14.3-2.1,20.3,6,20.9,16.3.4,6.5.2,13,.2,19.5,0,4,0,8,0,12,0,1.7-.7,2.3-2.4,2.2-2.5-.1-5-.1-7.5,0-1.7,0-2.4-.5-2.4-2.3,0-3.7,0-7.3,0-11,0-4.5,0-9,0-13.5,0-1.8-.3-3.6-.7-5.4-1.2-4.4-3.2-6.2-7-6.5-4.1-.3-7.6,1.1-9.6,4.8-1.7,3.1-2.2,6.5-2.2,10.1,0,6.8,0,13.6,0,20.5,0,3.2,0,3.2-3.4,3.2-2.2,0-4.3,0-6.5,0-1.7,0-2.5-.4-2.4-2.2,0-2.8,0-5.7,0-8.5,0-5.5,0-11,0-16.5,0-1.5-.2-3-.4-4.4-.5-3.7-2.6-6.2-6.2-6.9-3.7-.7-7,.4-9.3,3.4-2,2.5-3.1,5.4-3.1,8.7,0,6.8,0,13.6,0,20.5,0,1.2,0,2.3,0,3.5,0,1.7-.9,2.2-2.5,2.4q-10.1,1-10.1-9.2c0-5.3,0-10.6,0-16h0Z" style="fill:#fcfcfc; stroke-width:0px;"/><path d="m579.3,263c-2.6-.6-5.2-1-7.7-1.8-2.5-.8-2.7-1.4-2.2-4.1.2-.8.5-1.6.7-2.4.5-1.6.5-3.7,1.6-4.5.7-.6,2.8.8,4.4,1.1,4.1.7,7.8-.1,9.5-4.3.2-.5.4-.9.7-1.3,1.9-3,1.9-5.9.4-9.3-5.8-13.6-11.2-27.3-16.8-40.9-.3-.8-.5-1.6-.9-2.3-.6-1.1-.1-1.4.9-1.4,3.2,0,6.3.2,9.5,0,2,0,3,.6,3.7,2.5,3.3,9.2,6.7,18.3,10,27.5.2.5.2,1,.4,1.4.2.4.7.7,1,1,.2-.4.6-.7.7-1.1,2.3-6.2,4.6-12.4,6.8-18.7,1.2-3.4,2.2-6.9,3.2-10.4.4-1.5,1.2-2.2,2.8-2.2,2.8,0,5.7,0,8.5,0,1.4,0,1.7.7,1.2,1.9-1.3,3.2-2.5,6.5-3.8,9.7-5.4,14.1-10.7,28.2-16.1,42.2-1.1,2.9-2.6,5.7-4,8.5-2.8,5.4-7.9,8.8-14.7,8.9Z" style="fill:#fbfbfb; stroke-width:0px;"/><path d="m343,196.8c0-1,0-2,0-3,0-1.4.8-2.1,2.2-2.1,2.3,0,4.7,0,7,0,3.2,0,3.2,0,3.3,3.4,0,1.2,0,2.3,0,3.5,0,.5.3.9.4,1.4.3-.3.7-.6,1-1,1.7-2.3,3.2-4.7,5.9-6,1.2-.6,2.4-1.2,3.6-1.5,4.9-1.1,5.5-.5,5.4,4.3,0,2-.1,4,0,6,0,1.7-.5,2.4-2.3,2.4-2.9-.1-5.5.8-7.9,2.5-3.9,2.7-5.7,6.3-5.8,10.9,0,6.6,0,13.3,0,19.9,0,3.5-.1,3.6-3.7,3.6-2.8,0-5.6-.3-8.4-.4,0-2.6-.5-5.1-.5-7.7,0-3.1-.2-5.5-.2-8.6,0-.6,0-18.7,0-27.6Z" style="fill:#faf9fa; stroke-width:0px;"/><path d="m538.2,216.3c0-7.3,0-14.6,0-21.9,0-1.8.5-2.8,2.5-2.6,2.3.2,4.7,0,7,0,1.6,0,2.5.5,2.6,2.2.1,2,.4,4.1.6,6.1,1.3-1.5,2.5-3.1,3.8-4.6,2.8-3.3,6.5-4.4,10.7-4.2,1,0,1.7,0,1.5,1.7-.4,2.8-.5,5.6-.5,8.4,0,1.7-.6,2.1-2.3,2.3-6.4.8-11.3,3.7-13.1,10.4-.4,1.6-.6,3.2-.6,4.9,0,6.5,0,13,0,19.4,0,1.9-.6,2.8-2.6,2.8-2.5,0-5,0-7.5,0-1.9,0-2.2-.9-2.2-2.5,0-7.5,0-15,0-22.4h0Z" style="fill:#fcfcfc; stroke-width:0px;"/><path d="m379.7,215.8c0-6.8,0-13.6,0-20.5,0-4.2.1-3.7,3.9-3.7,2,0,4,0,6,0,2.5,0,2.8.3,2.8,3,0,14.5,0,28.9,0,43.4,0,2.7-.4,3-3.3,3-2,0-4,0-6,0-3.3,0-3.4-.2-3.4-3.4,0-7.3,0-14.6,0-21.9h0Z" style="fill:#f9f9fa; stroke-width:0px;"/><path d="m623.5,241.6c-5.3,0-8.2-2.7-8.1-7.7,0-4.2,3.4-7.3,7.6-7.5,4.4-.2,8.2,3.6,8.3,7.4,0,4.3-3.3,7.8-7.7,7.8Z" style="fill:#fbfbfb; stroke-width:0px;"/><path d="m332.9,203.3c-6.2-13.5-24.3-16.2-32.5-7.1-.3.4-.8.6-1.2.8-.2-.4-.4-.9-.4-1.3q-.5-4-4.3-4c-1,0-2,0-3,0-4.8,0-4.7-.7-4.7,4.4,0,9.8,0,19.6,0,29.4h0c0,3.2,0,6.3,0,9.5,0,7.3,0,14.6,0,22,0,2.4.6,3.1,2.8,3.2,2.2.1,4.3.1,6.5,0,2.4-.1,3.3-1,3.4-3.4,0-1,0-2,0-3-.2-6-.3-11.9-.5-17.9,0-.3.3-.7.5-1,.3.2.7.2.9.5,2.3,3,5,5.1,8.7,6.2,7.4,2.2,17.2-1.6,21.5-8,6.4-9.6,7.1-19.9,2.3-30.3Zm-14.2,23.9c-4.7,5-15,4.2-18.3-3.5-2.3-5.4-1.6-10.7.4-15.9.3-.9,1-1.7,1.7-2.4,6-6,17.1-3.1,19.2,5.1.5,2.1.8,4.2,1,5.5-.3,4.8-1.2,8.3-4,11.3Z" style="fill:#fbfbfc; stroke-width:0px;"/><path d="m528.2,224.5c0,0,.2,0,.3,0-.3-6.3-.4-12.6-1-18.9-.6-6.8-4.4-11.3-11-13.3-8.9-2.7-17.3-1.4-25.4,2.9-3,1.6-3,1.7-1.3,4.9.6,1.2,1.2,2.4,1.9,3.5.7,1.3,1.4,1.9,3.1.9,4.5-2.7,9.5-2.7,14.5-2.1,3.5.4,5.4,2.3,6.2,5.6.7,3.2.3,3.6-3.1,3.6-2.7,0-5.4-.2-8,.1-3.3.4-6.6.8-9.7,1.9-5.5,1.9-8.7,6.2-8.9,12-.2,5.9,1.6,11,7.3,14.2,6.7,3.7,16.7,2.6,21.8-2.4.4-.4,1-.7,1.6-1,.3.5.7,1.1.8,1.6.5,3.1.5,3.1,3.5,3.1,1.7,0,3.3,0,5,0,2,0,2.6-.9,2.5-2.7,0-4.7,0-9.3,0-14Zm-27,7c-2.2-1.1-3.7-2.7-3.7-5.4,0-2.6,1.5-4.7,4.4-5.2,4-.7,8.2-1,12.3-1.1.9,0,1.1,2,1.2,2.7,1.2,7.6-9.1,11.6-14.2,9Z" style="fill:#fbfbfb; stroke-width:0px;"/><path d="m127.9,171.8c10.1,2.1,19.8,5.6,29.2,9.8,5.5,2.4,9.9,6.4,14.5,10.1,1.5,1.2,1.4,2.9,1.4,4.5,0,9.1,0,18.2,0,27.4,0,14.3-.1,28.5-.2,42.8-1.8,0-2.2-1.4-2.4-2.6-1.6-9.5-3.8-18.8-1-28.6,1.7-6.1.5-12.6.6-18.9,0-5.6,0-11.3,0-17,0-.5,0-1,0-1.5-.4.5-.1,1.1-.1,1.6-.2,7.1.5,14.3-1,21.4-2.8,13.9-16.1,22.4-29.9,18.5-11.2-3.1-19.7-9.5-23.3-21.1-.5-1.5-1.3-2.7-1.9-4.1-1.2-4.6-.8-9.3-.6-13.9.2-6.5.6-13,1.6-19.4,1.2-8,3.3-9.4,11.2-8.9.7,0,1.3,0,2-.2Z" style="fill:#fc9b1d; stroke-width:0px;"/><path d="m186.8,189.4c4.6-4.5,10.2-7.2,16-9.7,9.5-4.1,19.6-6.7,29.6-9.1.5-.1,1,0,1.5,0,5.8.6,6,1,7,6.7,1.7,10.5.3,21.1,1.8,31.6.2,1.6,0,3.3-.7,4.9-1.4,2.1-2.5,4.2-3.3,6.6-3.9,11.2-17.4,20.5-29.4,20.4-10.6,0-20-7.6-22.1-18.8-2.1-10.8-1.7-21.8-.4-32.7Z" style="fill:#47d3fb; stroke-width:0px;"/><path d="m186.8,189.4c.4,1.6,1,3.1,1,4.7.1,6.8,0,13.6,0,20.4,0,5,1,9.7,3.5,14,3,5.1,7.2,8.6,13.1,10.1,6.9,1.8,13.1-.3,18.9-3.4,4.3-2.3,8.2-5.1,10.9-9.5,1.5-2.5,2.3-5.3,3.5-7.9.6-1.3.6-3.4,2.9-3.2,2.1,3.4,3.7,24.9,2.1,28.2-1.5,3.2-4.5,3.7-7.4,4.3-11.9,2.5-23.3,6.6-34.4,11.4-1.9.8-3.6,1.8-5.1,3.1-3.8,2.2-7.6,4.5-11.4,6.6-1.6.9-2.4.4-2.4-1.6,0-2.2,0-4.3,0-6.5,0-17.9,0-35.8,0-53.7,0-3.4,1-6.7.1-10.2-.5-2,.4-3.9,2.3-5,.8-.5,1.6-1.2,2.4-1.8Z" style="fill:#37a3fa; stroke-width:0px;"/><path d="m257.7,261.5c-.6-9.6-1.2-19.1-1.8-28.7,0-.8,0-1.7,0-2.5-.4-10.1-.8-20.2-1.2-30.3-.2-3.8-.6-7.6-.8-11.4,0-.3.5-.7.8-1,.3.3.8.5,1,.9.2.4,0,1,0,1.5.3,11.4,1.6,22.7,2.9,34,.6,5.1.8,10.2,1.2,15.3.9,9.4,1.8,18.7,2.7,28.1,0,1,0,2,0,3-.3,3.9-2.8,6-6.6,5.5-7-1.1-13.9-2.5-20.9-3.3-12-1.5-24.2-1.6-36.3-1-1.3,0-2.5.7-3.7,1.2-3.4,1.6-6.8,3.3-10.2,5.1-4.7,2.5-9.2,2.7-14.1,0-4.3-2.3-8.4-5.2-13.5-6-.5,0-.9-.5-1.4-.5-9.1,0-18.3,0-27.4.3-3.8.1-7.5,1-11.2,1.5-6,.8-12.1,1.7-18.1,2.5-3.6.5-6.3-1.5-6.1-5.1.3-6.3,1-12.5,1.6-18.7.3-3.8.8-7.5,1.2-11.3.4-5.4.7-10.9,1.2-16.3.5-5.7,1.3-11.5,1.8-17.2.5-5.1.8-10.2,1.1-15.3,0-1.2,0-2.3.2-3.5,0-.3.7-.5,1.1-.7.1,0,.6.4.6.7,0,2.5,0,5-.2,7.5-.1,2.1-.6,4.2-.7,6.4-.4,9.9-.8,19.9-1.2,29.8-.3,7.1-.6,14.2-1,21.3,0,1.1-.4,2.3-.5,3.4-.1,2.3-.5,4.7-.2,6.9.6,4.3,1.3,4.6,5.8,3.9,11.9-1.7,23.9-1.9,35.8-.9,11.9,1,23.8,3,35,7.6,2,.8,3.8.7,6,0,9.1-3.4,18.4-5.7,28.1-6.9,8.6-1.1,17.2-.8,25.8-.9,5.6,0,11.2.6,16.7,1.8.6.1,1.3.1,2,.2,3.5.2,4.1-.3,4.2-3.8,0-1,0-2,0-3Z" style="fill:#f5be45; stroke-width:0px;"/><path d="m115,214.5c.5.4,1.5.8,1.5,1.1,0,3.5,2.4,6,3.7,8.8,1.5,3.1,4.4,5.9,7.4,7.8,3.4,2.2,7.1,4.3,11.3,5.5,3.3.9,6.6,1.2,9.7.6,4.7-.9,9.2-2.8,13.1-6,3.6-3,4.3-7.1,5.3-11.2,1.2-5,.9-10.1.9-15.2,0-3.8,0-7.6,0-11.5,0-.9.4-1.8.6-2.8.9.6,2.1,1,2.7,1.8.5.7.7,1.8.7,2.7,0,12.5,0,24.9,0,37.4,0,.8.1,1.8-.3,2.4-3.3,5.4-1.1,11.3-1.7,17,0,.3,0,.7.2.9,2.4,3,1.7,6.6,1.8,10,0,.8.6,1.6.9,2.5-.1,3-.2,3-2.3,1.9-2.3-1.2-4.4-2.7-6.7-3.9-3.9-2.1-7.9-4-11.9-6-3.8-4.2-9.4-4.7-14.3-6.4-6.4-2.3-13-4-19.7-5.4-5.6-1.2-7-3.2-6.4-8.8.7-5.9.6-11.9,1.5-17.9.3-1.9,0-4,1.9-5.4Z" style="fill:#f87a1c; stroke-width:0px;"/><path d="m115,214.5c-.3,7.1-.6,14.1-1,21.2-.1,1.9-.7,3.8-.9,5.7-.2,1.7.7,2.8,2.5,3,11.2,1.2,21.4,5.7,31.9,9.3,2,.7,3.5,2.7,5.3,4.2,0,0-.1.3-.3.4-.1,0-.3,0-.5.1-8.2-2.9-16.4-5.6-24.9-7.4-4.7-.9-9.3-1.8-14-2.6-4.3-.7-5.1-1.4-4.9-5.8.5-8.6,1.1-17.1,1.7-25.7,0-.3,0-.7,0-1,.4-8.6.8-17.2,1.2-25.8.3-5.3.7-10.5,1-15.8,0-.3,0-.7,0-1,.7-3.8,1.4-4.4,5.2-3.8,3.6.6,7.1,1.5,10.6,2.2-1.5.2-3.1.6-4.6.7-3.1.3-5.5,1.9-6.2,4.7-.5,2.2-.9,4.4-1.1,6.7-.8,10.2-1.3,20.4-1,30.6Z" style="fill:#f8ae39; stroke-width:0px;"/><path d="m195.9,261.5c1.7-3.8,5.6-4.3,8.7-5.9,4.6-2.3,9.5-3.9,14.4-5.8,5.1-2,10.4-3.6,15.8-4.4,7-1.1,7.3-1,6.9-8.2-.4-7.6-1.2-15.1-.9-22.7-.3-10.5-.5-21.1-1-31.6-.1-2.9-1.2-5.7-.9-8.7.1-1.5-.8-2.4-2.3-2.7-.9-.2-1.7-.5-2.6-.8,1.1-.3,2.2-.6,3.4-.8,5.1-1.1,5.4-.9,5.7,4.4.7,11.7,1.4,23.5,2.1,35.2.6,9.8,1.2,19.5,1.8,29.2,0,1.3,0,2.7,0,4,0,5.1,0,4.9-5.1,5.6-12.9,1.9-25.5,5.2-37.7,9.9-2.8,1.1-5.5,2.2-8.3,3.2Z" style="fill:#7bf1fb; stroke-width:0px;"/><path d="m116.5,105.6c.5.2,1,.4,1.4.7,7.6,4.7,15.1,9.5,22.7,14.2,1,.6,2,1.1,2.9,1.9.4.3.6,1.4.3,1.7-.3.4-1.1.4-1.7.4-.4,0-.9-.4-1.3-.7-7.8-4.8-15.5-9.5-23.3-14.3-.7-.4-1.5-.8-2-1.4-.3-.4-.3-1.2-.1-1.8.1-.3.8-.5,1.2-.8Z" style="fill:#eeecf1; stroke-width:0px;"/><path d="m158.4,107.1c-.2,0-.8.4-1.4.5-.4,0-.9,0-1.4-.2-.3-.1-.4-.5-.6-.7-4.7-7.8-9.4-15.7-14-23.5-.3-.6-.4-1.3-.6-2,.9,0,1.9-.2,2.7.2.7.3,1.2,1.1,1.6,1.8,4.4,7.4,8.7,14.7,13.1,22.1.2.3.2.6.6,1.8Z" style="fill:#e9eaef; stroke-width:0px;"/><path d="m212.7,124.8c-.4-.3-.8-.6-1-.9-.2-.3-.2-1,0-1.2.6-.6,1.2-1,1.9-1.5,7.7-4.8,15.3-9.6,23-14.5.4-.3.9-.6,1.4-.6.5,0,1.3.2,1.5.6.2.4,0,1.2-.2,1.7,0,.3-.5.4-.8.6-8.1,5-16.3,10-24.4,14.9-.4.3-.9.4-1.4.7Z" style="fill:#eaeaf1; stroke-width:0px;"/><path d="m242.1,252.3c4-.6,3.3,5.6,3.2,7.5,0,2.9-4.3,2.1-5.1,2-5.7.2-15.5.8-25.6-.6,1.2-.5,11.3-4.5,12.5-4.8,1.1-.2,13.8-4.4,15-4.2Z" style="fill:#64d3ef; stroke-width:0px;"/><path d="m112.8,252.3c-4-.6-3.3,5.6-3.2,7.5,0,2.9,4.3,2.1,5.1,2,5.7.2,15.5.8,25.6-.6-1.2-.5-11.3-4.5-12.5-4.8-1.1-.2-13.8-4.4-15-4.2Z" style="fill:#f87a1c; stroke-width:0px;"/><path d="m179,86.2c0,4,0,8,0,11.9,0,.8-.6,2.2-1.1,2.3-1.5.1-1.8-1.1-1.8-2.4,0-2.2,0-4.3,0-6.5,0-5.5,0-10.9,0-16.4,0-1-.2-2,.1-2.9.2-.6,1.1-.9,1.7-1.4.3.5,1,1,1,1.5.1,2.3,0,4.6,0,7,0,2.3,0,4.6,0,7h0Z" style="fill:#edeef2; stroke-width:0px;"/><path d="m214.1,81.9c-.4.9-.8,1.8-1.3,2.6-4,7-8,14-12,21.1-.3.6-.6,1.4-1.1,1.6-.6.3-1.5,0-2.2.1,0-.6-.2-1.3,0-1.7,2.7-4.9,5.6-9.7,8.3-14.6,1.8-3.2,3.4-6.4,5.2-9.6.3-.5,1.4-.6,2.1-.7.2,0,.6.7.9,1.2Z" style="fill:#eae9f0; stroke-width:0px;"/><path d="m160.7,125.5c-16.4,15.3-3.7,31.6,6.8,45.4,0,1,.3,1.7.7,2.3,0,.6.2,1.2.7,1.7,1.1,1.3,2.8.8,4.2.5,1.3-.2,2.6-.4,3.9-.5,2.7-.2,5.5-.2,8.2-.3.3,0,.6,0,.8-.2,1.2-.3.9-1.4,3.4-5.9,31.6-29.8-2-64.7-28.7-43Z" style="fill:#fac224; stroke-width:0px;"/><path d="m190.9,145.6c1.4-7.7-5-12.9-11.6-14.9-2-.6-3.8.1-5.7.8-7.7,2.6-11,8.5-9,16.4.1.5.3,1,.2,1.4-.3,2.9.1,5.6,2.7,7.5.2.1.1,1,0,1.2-.2.2-1,.3-1.2,0-5-4.1-8.7-9-9.2-15.6-.3-3.9.5-7.8,3.2-10.9,1.8-2.1,3.4-4.2,5.7-5.9,5.5-4.1,11.4-3.8,17.6-2.9,5.4.8,8.9,4.1,11.5,8.8,1.6,3,3,6,3.7,9.4.6,2.6-2.6,10.6-4.8,11.9-.3.2-1,.1-1.2-.1-.7-1-1.5-2.1-1.8-3.3-.3-1.3,0-2.6,0-3.9Z" style="fill:#fdd677; stroke-width:0px;"/><path d="m189.8,140.9c-1.7-2-4.1-.8-5.7.7-.9.8-1.6,1.3-2.8.7-.9-.5-1.7-1.1-2.7-1.5-1-.4-2-.5-2.9,0-.6.2-1.1.7-1.7.9-.9.3-1.6-.3-2.3-.7-1-.6-2-1.3-3.3-1.2-1.1,0-2.2.6-2.6,1.7-.5,1.1.9,2.1,1.7,1.4,3.1,1.1,4,5.6,4.9,8.4,1.2,3.4,2.3,6.9,3.5,10.3.1.5.2,1,.5,1.5.4,1,1.9.5,1.5-.5,0-.2,0-.3-.2-.5,0,0,0-.2,0-.3,0-.2-.1-.4-.2-.6-1.2-5.9,4.2-11.2,6.2-16.4,0,0,0-.1,0-.2.7-.3,1.2-.8,1.8-1.3.3-.3,1.8-1.9,2.4-1.2.9,1.1,2.8-.1,1.9-1.2Zm-19.9,1.5c.1,0,.3.2.4.2.9.6,1.8,1.2,3,1.3,1.2.1,2-.4,3-.9.1,0,.2-.1.4-.2-.4,4.1-.7,8.2-1.1,12.4-.7-2-1.3-4-2-5.9-.8-2.4-1.7-5.2-3.5-6.8Zm7.3,11.2c.3-3.5.6-7.1.9-10.6.1,0,.3.1.4.2,1.1.6,2.2,1.4,3.4,1.6-1.3,2.9-3.3,5.8-4.7,8.8Z" style="fill:#fef8c0; stroke-width:0px;"/><path d="m188.2,175.4c0-1.3-1.1-2.1-2.3-2.1-5.5,0-11,.7-16.3,2.1-1.2.3-1.8,1.7-1.4,2.8.4,1.2,1.6,1.7,2.8,1.4.4,0,.8-.2,1.2-.3-1,.4-1.6,1.7-1.2,2.7.3.9,1.2,1.5,2.1,1.5,0,0,0,0,0,.1-.2.5-.3,1.2-.1,1.7.4,1.1,1.7,1.9,2.8,1.4,0,0,.1,0,.2,0,0,.2-.1.4,0,.7,0,.3,0,.6.2.8.1.3.3.5.5.7l.5.3c.4.2.7.3,1.1.2.2,0,.4,0,.6-.1,0,0,0,0,0,0,.2,0,.4,0,.5,0,0,0,0,0,.1,0,.2,0,.4,0,.6-.1,0,0,0,0,0,0,.1,0,.2-.1.3-.1,0,0,.2,0,.3-.1.2-.1.3-.3.5-.4,0,0,0,0,0,0l.3-.5s0,0,0,0c0,0,0-.2.1-.3,0,0,0-.2.1-.3,0-.2,0-.4,0-.6,0-.2,0-.4-.1-.6,0,0,0,0,0,0l-.2-.5s0,0,0,0c0,0,0,0,0,0,.4,0,.8,0,1.3,0,1.2,0,2.2-1.2,2.1-2.3,0-.5-.3-1-.6-1.3.2,0,.3,0,.5,0,1.2,0,2.2-1.2,2.1-2.3,0-.8-.5-1.4-1.1-1.8.2,0,.4,0,.6,0,1.2,0,2.2-1.2,2.1-2.3Z" style="fill:gray; stroke-width:0px;"/><path d="m182.5,173.6c-2.2,0-4.4.1-6.5.5-.4,0-.8.4-.8.9,0,.4.4.8.9.8,1.7-.3,3.5-.5,5.3-.5.9,0,1.8,0,2.7,0,.4,0,1.8,0,1.8.6,0,1,1.6.9,1.6,0,0-2.4-3.3-2.2-4.9-2.2Z" style="fill:#e6e6e6; stroke-width:0px;"/><path d="m185.3,178.3c-.7-.7-1.9-.6-2.8-.6-2-.1-4,0-5.9.4-1,.3-.5,1.8.5,1.5,1.3-.3,2.7-.4,4-.4.7,0,1.3,0,2,0,.3,0,.5,0,.8,0-.1.2-.2.5-.1.7.1.5.6.6,1,.5,1.1-.2,1.2-1.6.5-2.3Z" style="fill:#e6e6e6; stroke-width:0px;"/><path d="m183.9,182.4c-.5-.9-1.5-1-2.4-1-1.8.1-3.7.5-5.4,1.2-.4.2-.7.6-.5,1,.1.4.6.7,1,.5,1.2-.5,2.4-.8,3.7-1,.6,0,1.2-.2,1.8-.1.2,0,.3,0,.4.2,0,0,0,0,0,0-.8.5-.3,1.8.6,1.5.9-.3,1.3-1.4.8-2.3Z" style="fill:#e6e6e6; stroke-width:0px;"/><path d="m181.2,186.9c0-.1,0-.3,0-.4,0-.2-.2-.4-.4-.6,0,0-.2-.1-.3-.2,0,0-.1,0-.2,0-.2,0-.5-.2-.7-.1-.3,0-.5,0-.7.2-.2.1-.3.3-.4.5,0,.2,0,.4.1.6.2.3.6.4,1,.3,0,0,0,0,0,0,0,0,0,0,0,0,0,0,0,0,0,0,0,0,0,0,0,0,0,0,0,0,0,0,0,0,0,0,0,0,0,0,0,0,0,0,0,0,0,0,0,0,0,0-.1,0-.2,0,0,0,0,0,0,0-.2,0-.4,0-.6.1-.2.1-.3.3-.4.5,0,.2,0,.4.1.6.1.2.3.3.5.4.2,0,.4,0,.6,0,.1,0,.2,0,.4,0,.1,0,.2,0,.3-.2.2,0,.3-.2.4-.3,0,0,.2-.2.2-.3,0,0,0-.1,0-.2.1-.3.1-.5.2-.7,0,0,0-.1,0-.2Z" style="fill:#e6e6e6; stroke-width:0px;"/></g></svg>