<?xml version="1.0" encoding="UTF-8"?><svg id="_Слой_2" xmlns="http://www.w3.org/2000/svg" viewBox="0 0 674.2 123.6"><g id="_Слой_1-2"><path d="m17.8,58.9v1.5c2.3-2.9,4.7-5,7.2-6.3,2.5-1.3,5.3-2,8.5-2s7.3,1,10.5,2.9c3.2,2,5.7,4.8,7.6,8.6,1.9,3.8,2.8,8.2,2.8,13.4s-.5,7.3-1.6,10.5c-1.1,3.2-2.5,5.9-4.4,8-1.9,2.2-4.1,3.8-6.6,5-2.6,1.2-5.3,1.7-8.2,1.7s-6.5-.7-8.9-2.1c-2.4-1.4-4.7-3.5-6.9-6.2v18.6c0,5.4-2,8.2-5.9,8.2s-3.9-.7-4.6-2.1c-.8-1.4-1.1-3.4-1.1-6.1v-53.3c0-2.4.5-4.1,1.5-5.3,1-1.2,2.4-1.7,4.2-1.7s3.2.6,4.3,1.8c1.1,1.2,1.7,2.9,1.7,5.1Zm24.2,18c0-3.3-.5-6.1-1.5-8.4-1-2.3-2.4-4.1-4.1-5.4-1.8-1.3-3.7-1.9-5.9-1.9-3.4,0-6.3,1.3-8.6,4-2.3,2.7-3.5,6.6-3.5,11.9s1.2,8.7,3.5,11.5c2.3,2.7,5.2,4.1,8.6,4.1s4-.6,5.7-1.8c1.8-1.2,3.2-3,4.2-5.4,1.1-2.4,1.6-5.3,1.6-8.6Z" style="stroke-width:0px;"/><path d="m76.6,84.4v10.3c0,2.5-.6,4.4-1.8,5.6s-2.7,1.9-4.5,1.9-3.2-.6-4.4-1.9-1.7-3.1-1.7-5.6v-34.4c0-5.6,2-8.3,6-8.3s3.5.6,4.4,1.9c.9,1.3,1.4,3.2,1.5,5.8,1.5-2.5,3-4.5,4.6-5.8,1.6-1.3,3.6-1.9,6.2-1.9s5.1.6,7.6,1.9c2.4,1.3,3.7,3,3.7,5.2s-.5,2.8-1.6,3.7c-1,1-2.2,1.5-3.4,1.5s-1.5-.3-3.3-.8c-1.7-.6-3.3-.8-4.6-.8s-3.3.5-4.4,1.4c-1.1,1-2,2.4-2.7,4.2-.6,1.9-1.1,4.1-1.3,6.7-.2,2.6-.4,5.7-.4,9.4Z" style="stroke-width:0px;"/><path d="m111.2,46.2c-1.7,0-3.2-.5-4.4-1.6-1.2-1.1-1.8-2.6-1.8-4.5s.6-3.2,1.9-4.3c1.3-1.1,2.7-1.7,4.4-1.7s3,.5,4.3,1.5c1.2,1,1.9,2.5,1.9,4.5s-.6,3.4-1.8,4.5c-1.2,1.1-2.6,1.6-4.3,1.6Zm6.1,12.8v35.7c0,2.5-.6,4.3-1.8,5.6-1.2,1.3-2.7,1.9-4.5,1.9s-3.3-.6-4.4-1.9c-1.1-1.3-1.7-3.2-1.7-5.6v-35.4c0-2.4.6-4.3,1.7-5.5,1.1-1.2,2.6-1.9,4.4-1.9s3.3.6,4.5,1.9c1.2,1.2,1.8,3,1.8,5.2Z" style="stroke-width:0px;"/><path d="m171.2,78v16.4c0,2.6-.6,4.5-1.8,5.8-1.2,1.3-2.7,1.9-4.7,1.9s-3.4-.6-4.6-1.9c-1.2-1.3-1.7-3.2-1.7-5.8v-19.7c0-3.1-.1-5.5-.3-7.2-.2-1.7-.8-3.1-1.7-4.2-.9-1.1-2.4-1.7-4.4-1.7-4,0-6.7,1.4-8,4.2-1.3,2.8-1.9,6.8-1.9,12v16.7c0,2.6-.6,4.5-1.7,5.8-1.2,1.3-2.7,2-4.6,2s-3.4-.7-4.6-2c-1.2-1.3-1.8-3.3-1.8-5.8v-35.4c0-2.3.5-4.1,1.6-5.3,1.1-1.2,2.5-1.8,4.2-1.8s3.1.6,4.2,1.7c1.1,1.1,1.7,2.7,1.7,4.7v1.2c2.1-2.6,4.4-4.5,6.9-5.7,2.4-1.2,5.2-1.8,8.2-1.8s5.8.6,8,1.9c2.2,1.2,4.1,3.1,5.5,5.6,2.1-2.5,4.3-4.4,6.7-5.6,2.4-1.2,5-1.8,7.9-1.8s6.3.7,8.7,2c2.4,1.3,4.3,3.2,5.5,5.7,1.1,2.2,1.6,5.8,1.6,10.6v24.1c0,2.6-.6,4.5-1.8,5.8-1.2,1.3-2.7,1.9-4.7,1.9s-3.4-.7-4.6-2c-1.2-1.3-1.8-3.3-1.8-5.8v-20.8c0-2.7-.1-4.8-.3-6.4-.2-1.6-.8-2.9-1.8-4s-2.5-1.6-4.5-1.6-3.2.5-4.6,1.4c-1.5,1-2.6,2.3-3.4,3.9-.9,2.1-1.4,5.8-1.4,11.1Z" style="stroke-width:0px;"/><path d="m243.4,95.3c-3,2.3-5.9,4.1-8.7,5.2-2.8,1.2-5.9,1.7-9.4,1.7s-6-.6-8.4-1.9-4.2-3-5.5-5.1c-1.3-2.1-1.9-4.5-1.9-7s1.1-6.3,3.2-8.6c2.1-2.4,5.1-4,8.8-4.8.8-.2,2.7-.6,5.8-1.2,3.1-.6,5.8-1.2,8-1.7,2.2-.5,4.6-1.2,7.2-1.9-.2-3.3-.8-5.7-2-7.2-1.2-1.5-3.6-2.3-7.2-2.3s-5.5.4-7.1,1.3c-1.6.9-2.9,2.2-4.1,3.9-1.1,1.8-1.9,2.9-2.4,3.5-.5.6-1.5.8-3,.8s-2.6-.4-3.6-1.3c-1-.9-1.5-2-1.5-3.4,0-2.2.8-4.3,2.3-6.3,1.5-2.1,3.9-3.7,7.2-5.1,3.3-1.3,7.3-2,12.2-2s9.7.6,12.8,1.9c3.1,1.3,5.3,3.3,6.6,6.1,1.3,2.8,1.9,6.5,1.9,11.1s0,5.4,0,7.4c0,2,0,4.3,0,6.7,0,2.3.4,4.7,1.2,7.3.8,2.5,1.2,4.1,1.2,4.9,0,1.3-.6,2.4-1.8,3.5-1.2,1-2.5,1.6-4.1,1.6s-2.5-.6-3.8-1.8c-1.2-1.2-2.6-2.9-3.9-5.2Zm-.8-17.9c-1.8.7-4.4,1.4-7.9,2.1-3.5.7-5.9,1.3-7.2,1.6-1.3.3-2.6,1-3.8,2-1.2,1-1.8,2.4-1.8,4.2s.7,3.5,2.1,4.8c1.4,1.3,3.3,2,5.6,2s4.7-.5,6.8-1.6c2.1-1.1,3.6-2.5,4.6-4.1,1.1-1.9,1.7-5,1.7-9.2v-1.8Z" style="stroke-width:0px;"/><path d="m279.6,84.4v10.3c0,2.5-.6,4.4-1.8,5.6s-2.7,1.9-4.5,1.9-3.2-.6-4.4-1.9-1.7-3.1-1.7-5.6v-34.4c0-5.6,2-8.3,6-8.3s3.5.6,4.4,1.9c.9,1.3,1.4,3.2,1.5,5.8,1.5-2.5,3-4.5,4.6-5.8,1.6-1.3,3.6-1.9,6.2-1.9s5.1.6,7.6,1.9c2.4,1.3,3.7,3,3.7,5.2s-.5,2.8-1.6,3.7c-1,1-2.2,1.5-3.4,1.5s-1.5-.3-3.3-.8c-1.7-.6-3.3-.8-4.6-.8s-3.3.5-4.4,1.4c-1.1,1-2,2.4-2.7,4.2-.6,1.9-1.1,4.1-1.3,6.7-.2,2.6-.4,5.7-.4,9.4Z" style="stroke-width:0px;"/><path d="m319.3,103.8l1.1-2.8-15.2-38.3c-.9-2.2-1.4-3.8-1.4-4.8s.3-2,.8-2.9,1.3-1.6,2.2-2.2c1-.5,1.9-.8,3-.8,1.8,0,3.1.6,4,1.7.9,1.1,1.7,2.8,2.4,4.9l10.5,30.4,9.9-28.3c.8-2.3,1.5-4.1,2.1-5.4.6-1.3,1.3-2.2,2-2.6.7-.5,1.7-.7,3-.7s1.8.2,2.7.7,1.5,1.2,2,2c.5.8.7,1.7.7,2.7-.1.6-.3,1.4-.6,2.4-.3,1.1-.6,2.1-1,3.2l-16.1,42.2c-1.4,3.7-2.7,6.6-4.1,8.7-1.3,2.1-3.1,3.7-5.3,4.9-2.2,1.1-5.1,1.7-8.9,1.7s-6.3-.4-8.2-1.2c-1.8-.8-2.7-2.2-2.7-4.3s.4-2.5,1.3-3.3,2.1-1.2,3.8-1.2,1.3,0,1.9.3c.8.2,1.5.3,2,.3,1.4,0,2.5-.2,3.4-.6.8-.4,1.5-1.2,2.2-2.2.6-1,1.4-2.6,2.2-4.6Z" style="stroke-width:0px;"/><path d="m358.2,102.2c-1.9,0-3.5-.6-4.8-1.8-1.4-1.2-2-2.9-2-5.1s.6-3.4,1.9-4.8c1.3-1.3,2.9-2,4.8-2s3.5.7,4.9,2c1.3,1.3,2,2.9,2,4.8s-.7,3.8-2,5c-1.3,1.2-2.9,1.8-4.7,1.8Z" style="stroke-width:0px;"/><path d="m426.3,58.9c1.9,1.7,2.8,4.5,2.8,8.5s-.8,9.7-2.4,14c-1.6,4.3-3.9,7.9-6.8,11-3,3.1-6.5,5.5-10.7,7.1-4.2,1.7-8.9,2.5-14,2.5s-9.7-.9-14-2.7c-4.3-1.8-7.9-4.4-11.1-7.8-3.1-3.4-5.5-7.4-7.3-12.1-1.7-4.7-2.6-9.9-2.6-15.7s.9-11.2,2.6-16c1.7-4.8,4.2-8.8,7.4-12.1,3.2-3.3,7.1-5.8,11.6-7.6,4.5-1.8,9.5-2.7,15.1-2.7s7.7.4,11.1,1.3c3.3.9,6.2,2,8.5,3.5,2.4,1.4,4.2,3,5.4,4.8,1.3,1.8,1.9,3.5,1.9,5.3s-.7,3.8-2.1,5.4c-1.4,1.6-3.1,2.3-5,2.3s-2.6-.4-3.9-1.1c-1.3-.7-2.8-1.5-4.4-2.3-1.6-.8-3.4-1.6-5.4-2.3-2-.7-4.2-1.1-6.8-1.1-5.6,0-10,1.9-13.3,5.8-3.3,3.9-5,9.3-5,16.3s1.7,12.8,5.1,16.9c3.4,4.1,7.8,6.1,13.3,6.1s7.8-1.3,10.6-3.9c2.7-2.6,4.1-6.1,4.1-10.7h-5.8c-3.9,0-6.8-.6-8.7-1.8-1.9-1.2-2.9-3.1-2.9-5.8s1-4.8,2.9-6c1.9-1.2,4.8-1.8,8.7-1.8h12.3c4,0,7,.8,8.9,2.5Z" style="fill:#fff; stroke-width:0px;"/><path d="m454.8,25.4c5.6,0,8.5,4,8.5,12.1v28.3c0,13.2,5,19.9,15,19.9s15-6.6,15-19.9v-28.3c0-8.1,2.8-12.1,8.5-12.1s8.6,4,8.6,12.1v30.2c0,11.2-2.9,19.7-8.7,25.5s-13.6,8.7-23.4,8.7-17.6-2.9-23.3-8.7c-5.8-5.8-8.7-14.3-8.7-25.5v-30.2c0-8.1,2.8-12.1,8.5-12.1Z" style="fill:#fff; stroke-width:0px;"/><path d="m536.6,102c-5.6,0-8.5-4-8.5-12v-51.7c0-4.1.8-7.1,2.3-9,1.5-1.9,4.7-2.8,9.5-2.8h13.2c9.3,0,16.3,2.1,21.2,6.4,4.8,4.3,7.3,9.9,7.3,16.8s-1.5,9.9-4.6,13.5c-3.1,3.6-7.4,5.8-13.1,6.8l13.4,14.9c3.3,3.8,4.9,7,4.9,9.7s-.8,4.1-2.3,5.6c-1.5,1.6-3.5,2.3-5.8,2.3s-3.2-.5-4.6-1.6c-1.4-1.1-2.9-2.5-4.5-4.4l-19.9-25v18.5c0,8-2.8,12-8.5,12Zm24.4-44.2c1.9-1.6,2.8-3.9,2.8-6.9s-.9-5-2.7-6.5c-1.8-1.6-4.4-2.3-7.9-2.3h-8.1v18.2h7.8c3.5,0,6.2-.8,8.1-2.5Z" style="fill:#fff; stroke-width:0px;"/><path d="m609.3,25.4c5.6,0,8.5,4,8.5,12.1v28.3c0,13.2,5,19.9,15,19.9s15-6.6,15-19.9v-28.3c0-8.1,2.8-12.1,8.5-12.1s8.6,4,8.6,12.1v30.2c0,11.2-2.9,19.7-8.7,25.5s-13.6,8.7-23.4,8.7-17.6-2.9-23.3-8.7c-5.8-5.8-8.7-14.3-8.7-25.5v-30.2c0-8.1,2.8-12.1,8.5-12.1Z" style="fill:#fff; stroke-width:0px;"/></g></svg>