<?xml version="1.0" encoding="UTF-8"?><svg id="_Слой_2" xmlns="http://www.w3.org/2000/svg" viewBox="0 0 156 125.9"><g id="_Слой_1-2"><path d="m78.1,123.1S40.4,81.5,3.7,92.5l4.1,14.2s31.3.2,70.3,16.5" style="fill:#f7931e; stroke:#000; stroke-linecap:round; stroke-miterlimit:10; stroke-width:2.9px;"/><path d="m78.1,123.1c-39-16.3-72.1-1.8-72.1-1.8l-4.1-14.2c36.7-11,76.2,16,76.2,16" style="fill:#075c95; stroke:#000; stroke-linecap:round; stroke-miterlimit:10; stroke-width:2.9px;"/><path d="m1.4,123.9s31.8-19.9,76.6-.7" style="fill:none; stroke:#000; stroke-linecap:round; stroke-miterlimit:10; stroke-width:2.9px;"/><path d="m10.4,79.2c32,6.8,60.5,32.7,67.7,43.9" style="fill:none; stroke:#000; stroke-linecap:round; stroke-miterlimit:10; stroke-width:2.9px;"/><path d="m78.1,123.1s37.6-41.7,74.4-30.6l-4.1,14.2s-31.3.2-70.3,16.5" style="fill:#f7931e; stroke:#000; stroke-linecap:round; stroke-miterlimit:10; stroke-width:2.9px;"/><path d="m78.1,123.1c39-16.3,72.1-1.8,72.1-1.8l4.1-14.2c-36.7-11-76.2,16-76.2,16" style="fill:#075c95; stroke:#000; stroke-linecap:round; stroke-miterlimit:10; stroke-width:2.9px;"/><path d="m154.2,124.5s-30.5-20.9-75.4-1.7" style="fill:none; stroke:#000; stroke-linecap:round; stroke-miterlimit:10; stroke-width:2.9px;"/><path d="m145.8,79.2c-32,6.8-60.5,32.7-67.7,43.9" style="fill:none; stroke:#000; stroke-linecap:round; stroke-miterlimit:10; stroke-width:2.9px;"/><path d="m104.1,51.9c0-14.5-11.7-26.2-26.2-26.2s-26.2,11.7-26.2,26.2,5.5,18.6,13.7,23v10.5c0,4.6,3.8,8.4,8.4,8.4h8.4c4.6,0,8.4-3.8,8.4-8.4v-10.5c8.1-4.5,13.7-13.1,13.7-23Z" style="fill:#fbb03b; stroke:#000; stroke-linecap:round; stroke-miterlimit:10; stroke-width:2.2px;"/><rect x="63.6" y="85.9" width="28.3" height="5.4" rx="1" ry="1" transform="translate(-7.4 7.1) rotate(-5)" style="fill:#fff; stroke:#000; stroke-linecap:round; stroke-miterlimit:10; stroke-width:2.2px;"/><rect x="62.9" y="80.2" width="28.6" height="5.4" rx="1" ry="1" transform="translate(-6.9 7) rotate(-5)" style="fill:#fff; stroke:#000; stroke-linecap:round; stroke-miterlimit:10; stroke-width:2.2px;"/><rect x="70.9" y="94" width="14.5" height="8.1" rx="1.6" ry="1.6" style="fill:#fff; stroke:#000; stroke-linecap:round; stroke-miterlimit:10; stroke-width:2.2px;"/><rect x="64.9" y="91.3" width="26.5" height="5.4" rx="1" ry="1" transform="translate(-7.8 7.1) rotate(-5)" style="fill:#fff; stroke:#000; stroke-linecap:round; stroke-miterlimit:10; stroke-width:2.2px;"/><path d="m89.4,32.5c-5.7-2.2-9.9.9-5.6,5.1,2.5,2.4,6.8,6.8,6.8,10.2,0,6.1,8.4,5.2,9.1-.8.7-6.8-4.8-12.4-10.3-14.5Z" style="fill:#ededed; stroke-width:0px;"/><path d="m76.4,32.8c-13.3.5-23,14.6-16.6,26.8.9,1.9,2.2,3.7,3.6,5.3,1.5,1.6,3.1,3,4.9,4.2,0,0,0,0,0,.1-3.8-1.9-7.3-5.3-9.5-9.1-4.6-7.8-2.9-19.2,4.7-24.6,3.7-2.8,8.6-3.9,12.9-2.9.1,0,.1.2,0,.2h0Z" style="fill:#f7931e; stroke-width:0px;"/><line x1="77.4" y1="1.8" x2="77.4" y2="16.1" style="fill:none; stroke:#000; stroke-linecap:round; stroke-miterlimit:10; stroke-width:3.6px;"/><line x1="94.7" y1="4.7" x2="89.8" y2="18.1" style="fill:none; stroke:#000; stroke-linecap:round; stroke-miterlimit:10; stroke-width:3.6px;"/><line x1="110" y1="13.3" x2="100.8" y2="24.3" style="fill:none; stroke:#000; stroke-linecap:round; stroke-miterlimit:10; stroke-width:3.6px;"/><line x1="121.4" y1="26.6" x2="109" y2="33.8" style="fill:none; stroke:#000; stroke-linecap:round; stroke-miterlimit:10; stroke-width:3.6px;"/><line x1="127.6" y1="43" x2="113.5" y2="45.5" style="fill:none; stroke:#000; stroke-linecap:round; stroke-miterlimit:10; stroke-width:3.6px;"/><line x1="127.8" y1="60.6" x2="113.7" y2="58.1" style="fill:none; stroke:#000; stroke-linecap:round; stroke-miterlimit:10; stroke-width:3.6px;"/><line x1="122" y1="77.1" x2="109.5" y2="69.9" style="fill:none; stroke:#000; stroke-linecap:round; stroke-miterlimit:10; stroke-width:3.6px;"/><line x1="34.5" y1="78" x2="46.9" y2="70.9" style="fill:none; stroke:#000; stroke-linecap:round; stroke-miterlimit:10; stroke-width:3.6px;"/><line x1="28.3" y1="61.6" x2="42.4" y2="59.1" style="fill:none; stroke:#000; stroke-linecap:round; stroke-miterlimit:10; stroke-width:3.6px;"/><line x1="28.1" y1="44.1" x2="42.2" y2="46.6" style="fill:none; stroke:#000; stroke-linecap:round; stroke-miterlimit:10; stroke-width:3.6px;"/><line x1="33.9" y1="27.5" x2="46.4" y2="34.7" style="fill:none; stroke:#000; stroke-linecap:round; stroke-miterlimit:10; stroke-width:3.6px;"/><line x1="45.1" y1="14" x2="54.3" y2="25" style="fill:none; stroke:#000; stroke-linecap:round; stroke-miterlimit:10; stroke-width:3.6px;"/><line x1="60.2" y1="5" x2="65.1" y2="18.5" style="fill:none; stroke:#000; stroke-linecap:round; stroke-miterlimit:10; stroke-width:3.6px;"/></g></svg>